%TF.GenerationSoftware,KiCad,Pcbnew,(6.0.5)*%
%TF.CreationDate,2022-09-15T17:30:36-04:00*%
%TF.ProjectId,protoboard,70726f74-6f62-46f6-9172-642e6b696361,0.1*%
%TF.SameCoordinates,Original*%
%TF.FileFunction,Soldermask,Top*%
%TF.FilePolarity,Negative*%
%FSLAX46Y46*%
G04 Gerber Fmt 4.6, Leading zero omitted, Abs format (unit mm)*
G04 Created by KiCad (PCBNEW (6.0.5)) date 2022-09-15 17:30:36*
%MOMM*%
%LPD*%
G01*
G04 APERTURE LIST*
%ADD10C,0.150000*%
%ADD11C,1.700000*%
%ADD12O,1.700000X1.700000*%
%ADD13C,3.200000*%
G04 APERTURE END LIST*
D10*
X134374761Y-157678380D02*
X134374761Y-156678380D01*
X134755714Y-156678380D01*
X134850952Y-156726000D01*
X134898571Y-156773619D01*
X134946190Y-156868857D01*
X134946190Y-157011714D01*
X134898571Y-157106952D01*
X134850952Y-157154571D01*
X134755714Y-157202190D01*
X134374761Y-157202190D01*
X135946190Y-157678380D02*
X135612857Y-157202190D01*
X135374761Y-157678380D02*
X135374761Y-156678380D01*
X135755714Y-156678380D01*
X135850952Y-156726000D01*
X135898571Y-156773619D01*
X135946190Y-156868857D01*
X135946190Y-157011714D01*
X135898571Y-157106952D01*
X135850952Y-157154571D01*
X135755714Y-157202190D01*
X135374761Y-157202190D01*
X136565238Y-156678380D02*
X136755714Y-156678380D01*
X136850952Y-156726000D01*
X136946190Y-156821238D01*
X136993809Y-157011714D01*
X136993809Y-157345047D01*
X136946190Y-157535523D01*
X136850952Y-157630761D01*
X136755714Y-157678380D01*
X136565238Y-157678380D01*
X136470000Y-157630761D01*
X136374761Y-157535523D01*
X136327142Y-157345047D01*
X136327142Y-157011714D01*
X136374761Y-156821238D01*
X136470000Y-156726000D01*
X136565238Y-156678380D01*
X137279523Y-156678380D02*
X137850952Y-156678380D01*
X137565238Y-157678380D02*
X137565238Y-156678380D01*
X138374761Y-156678380D02*
X138565238Y-156678380D01*
X138660476Y-156726000D01*
X138755714Y-156821238D01*
X138803333Y-157011714D01*
X138803333Y-157345047D01*
X138755714Y-157535523D01*
X138660476Y-157630761D01*
X138565238Y-157678380D01*
X138374761Y-157678380D01*
X138279523Y-157630761D01*
X138184285Y-157535523D01*
X138136666Y-157345047D01*
X138136666Y-157011714D01*
X138184285Y-156821238D01*
X138279523Y-156726000D01*
X138374761Y-156678380D01*
X139565238Y-157154571D02*
X139708095Y-157202190D01*
X139755714Y-157249809D01*
X139803333Y-157345047D01*
X139803333Y-157487904D01*
X139755714Y-157583142D01*
X139708095Y-157630761D01*
X139612857Y-157678380D01*
X139231904Y-157678380D01*
X139231904Y-156678380D01*
X139565238Y-156678380D01*
X139660476Y-156726000D01*
X139708095Y-156773619D01*
X139755714Y-156868857D01*
X139755714Y-156964095D01*
X139708095Y-157059333D01*
X139660476Y-157106952D01*
X139565238Y-157154571D01*
X139231904Y-157154571D01*
X140422380Y-156678380D02*
X140612857Y-156678380D01*
X140708095Y-156726000D01*
X140803333Y-156821238D01*
X140850952Y-157011714D01*
X140850952Y-157345047D01*
X140803333Y-157535523D01*
X140708095Y-157630761D01*
X140612857Y-157678380D01*
X140422380Y-157678380D01*
X140327142Y-157630761D01*
X140231904Y-157535523D01*
X140184285Y-157345047D01*
X140184285Y-157011714D01*
X140231904Y-156821238D01*
X140327142Y-156726000D01*
X140422380Y-156678380D01*
X141231904Y-157392666D02*
X141708095Y-157392666D01*
X141136666Y-157678380D02*
X141470000Y-156678380D01*
X141803333Y-157678380D01*
X142708095Y-157678380D02*
X142374761Y-157202190D01*
X142136666Y-157678380D02*
X142136666Y-156678380D01*
X142517619Y-156678380D01*
X142612857Y-156726000D01*
X142660476Y-156773619D01*
X142708095Y-156868857D01*
X142708095Y-157011714D01*
X142660476Y-157106952D01*
X142612857Y-157154571D01*
X142517619Y-157202190D01*
X142136666Y-157202190D01*
X143136666Y-157678380D02*
X143136666Y-156678380D01*
X143374761Y-156678380D01*
X143517619Y-156726000D01*
X143612857Y-156821238D01*
X143660476Y-156916476D01*
X143708095Y-157106952D01*
X143708095Y-157249809D01*
X143660476Y-157440285D01*
X143612857Y-157535523D01*
X143517619Y-157630761D01*
X143374761Y-157678380D01*
X143136666Y-157678380D01*
X144803333Y-157011714D02*
X145041428Y-157678380D01*
X145279523Y-157011714D01*
X145850952Y-156678380D02*
X145946190Y-156678380D01*
X146041428Y-156726000D01*
X146089047Y-156773619D01*
X146136666Y-156868857D01*
X146184285Y-157059333D01*
X146184285Y-157297428D01*
X146136666Y-157487904D01*
X146089047Y-157583142D01*
X146041428Y-157630761D01*
X145946190Y-157678380D01*
X145850952Y-157678380D01*
X145755714Y-157630761D01*
X145708095Y-157583142D01*
X145660476Y-157487904D01*
X145612857Y-157297428D01*
X145612857Y-157059333D01*
X145660476Y-156868857D01*
X145708095Y-156773619D01*
X145755714Y-156726000D01*
X145850952Y-156678380D01*
X146612857Y-157583142D02*
X146660476Y-157630761D01*
X146612857Y-157678380D01*
X146565238Y-157630761D01*
X146612857Y-157583142D01*
X146612857Y-157678380D01*
X147612857Y-157678380D02*
X147041428Y-157678380D01*
X147327142Y-157678380D02*
X147327142Y-156678380D01*
X147231904Y-156821238D01*
X147136666Y-156916476D01*
X147041428Y-156964095D01*
X127245238Y-53141619D02*
X127245238Y-54141619D01*
X126864285Y-54141619D01*
X126769047Y-54094000D01*
X126721428Y-54046380D01*
X126673809Y-53951142D01*
X126673809Y-53808285D01*
X126721428Y-53713047D01*
X126769047Y-53665428D01*
X126864285Y-53617809D01*
X127245238Y-53617809D01*
X125673809Y-53141619D02*
X126007142Y-53617809D01*
X126245238Y-53141619D02*
X126245238Y-54141619D01*
X125864285Y-54141619D01*
X125769047Y-54094000D01*
X125721428Y-54046380D01*
X125673809Y-53951142D01*
X125673809Y-53808285D01*
X125721428Y-53713047D01*
X125769047Y-53665428D01*
X125864285Y-53617809D01*
X126245238Y-53617809D01*
X125054761Y-54141619D02*
X124864285Y-54141619D01*
X124769047Y-54094000D01*
X124673809Y-53998761D01*
X124626190Y-53808285D01*
X124626190Y-53474952D01*
X124673809Y-53284476D01*
X124769047Y-53189238D01*
X124864285Y-53141619D01*
X125054761Y-53141619D01*
X125150000Y-53189238D01*
X125245238Y-53284476D01*
X125292857Y-53474952D01*
X125292857Y-53808285D01*
X125245238Y-53998761D01*
X125150000Y-54094000D01*
X125054761Y-54141619D01*
X124340476Y-54141619D02*
X123769047Y-54141619D01*
X124054761Y-53141619D02*
X124054761Y-54141619D01*
X123245238Y-54141619D02*
X123054761Y-54141619D01*
X122959523Y-54094000D01*
X122864285Y-53998761D01*
X122816666Y-53808285D01*
X122816666Y-53474952D01*
X122864285Y-53284476D01*
X122959523Y-53189238D01*
X123054761Y-53141619D01*
X123245238Y-53141619D01*
X123340476Y-53189238D01*
X123435714Y-53284476D01*
X123483333Y-53474952D01*
X123483333Y-53808285D01*
X123435714Y-53998761D01*
X123340476Y-54094000D01*
X123245238Y-54141619D01*
X122054761Y-53665428D02*
X121911904Y-53617809D01*
X121864285Y-53570190D01*
X121816666Y-53474952D01*
X121816666Y-53332095D01*
X121864285Y-53236857D01*
X121911904Y-53189238D01*
X122007142Y-53141619D01*
X122388095Y-53141619D01*
X122388095Y-54141619D01*
X122054761Y-54141619D01*
X121959523Y-54094000D01*
X121911904Y-54046380D01*
X121864285Y-53951142D01*
X121864285Y-53855904D01*
X121911904Y-53760666D01*
X121959523Y-53713047D01*
X122054761Y-53665428D01*
X122388095Y-53665428D01*
X121197619Y-54141619D02*
X121007142Y-54141619D01*
X120911904Y-54094000D01*
X120816666Y-53998761D01*
X120769047Y-53808285D01*
X120769047Y-53474952D01*
X120816666Y-53284476D01*
X120911904Y-53189238D01*
X121007142Y-53141619D01*
X121197619Y-53141619D01*
X121292857Y-53189238D01*
X121388095Y-53284476D01*
X121435714Y-53474952D01*
X121435714Y-53808285D01*
X121388095Y-53998761D01*
X121292857Y-54094000D01*
X121197619Y-54141619D01*
X120388095Y-53427333D02*
X119911904Y-53427333D01*
X120483333Y-53141619D02*
X120150000Y-54141619D01*
X119816666Y-53141619D01*
X118911904Y-53141619D02*
X119245238Y-53617809D01*
X119483333Y-53141619D02*
X119483333Y-54141619D01*
X119102380Y-54141619D01*
X119007142Y-54094000D01*
X118959523Y-54046380D01*
X118911904Y-53951142D01*
X118911904Y-53808285D01*
X118959523Y-53713047D01*
X119007142Y-53665428D01*
X119102380Y-53617809D01*
X119483333Y-53617809D01*
X118483333Y-53141619D02*
X118483333Y-54141619D01*
X118245238Y-54141619D01*
X118102380Y-54094000D01*
X118007142Y-53998761D01*
X117959523Y-53903523D01*
X117911904Y-53713047D01*
X117911904Y-53570190D01*
X117959523Y-53379714D01*
X118007142Y-53284476D01*
X118102380Y-53189238D01*
X118245238Y-53141619D01*
X118483333Y-53141619D01*
X116816666Y-53808285D02*
X116578571Y-53141619D01*
X116340476Y-53808285D01*
X115769047Y-54141619D02*
X115673809Y-54141619D01*
X115578571Y-54094000D01*
X115530952Y-54046380D01*
X115483333Y-53951142D01*
X115435714Y-53760666D01*
X115435714Y-53522571D01*
X115483333Y-53332095D01*
X115530952Y-53236857D01*
X115578571Y-53189238D01*
X115673809Y-53141619D01*
X115769047Y-53141619D01*
X115864285Y-53189238D01*
X115911904Y-53236857D01*
X115959523Y-53332095D01*
X116007142Y-53522571D01*
X116007142Y-53760666D01*
X115959523Y-53951142D01*
X115911904Y-54046380D01*
X115864285Y-54094000D01*
X115769047Y-54141619D01*
X115007142Y-53236857D02*
X114959523Y-53189238D01*
X115007142Y-53141619D01*
X115054761Y-53189238D01*
X115007142Y-53236857D01*
X115007142Y-53141619D01*
X114007142Y-53141619D02*
X114578571Y-53141619D01*
X114292857Y-53141619D02*
X114292857Y-54141619D01*
X114388095Y-53998761D01*
X114483333Y-53903523D01*
X114578571Y-53855904D01*
D11*
%TO.C,J42*%
X116840000Y-111760000D03*
D12*
X119380000Y-111760000D03*
X121920000Y-111760000D03*
X124460000Y-111760000D03*
X127000000Y-111760000D03*
%TD*%
D11*
%TO.C,J5*%
X116840000Y-114300000D03*
D12*
X119380000Y-114300000D03*
X121920000Y-114300000D03*
X124460000Y-114300000D03*
X127000000Y-114300000D03*
%TD*%
D11*
%TO.C,J27*%
X134620000Y-142240000D03*
D12*
X137160000Y-142240000D03*
X139700000Y-142240000D03*
X142240000Y-142240000D03*
X144780000Y-142240000D03*
%TD*%
D11*
%TO.C,J9*%
X134620000Y-124460000D03*
D12*
X137160000Y-124460000D03*
X139700000Y-124460000D03*
X142240000Y-124460000D03*
X144780000Y-124460000D03*
%TD*%
D11*
%TO.C,J60*%
X134620000Y-121920000D03*
D12*
X137160000Y-121920000D03*
X139700000Y-121920000D03*
X142240000Y-121920000D03*
X144780000Y-121920000D03*
%TD*%
D13*
%TO.C,H4*%
X151130000Y-154940000D03*
%TD*%
D11*
%TO.C,J47*%
X134620000Y-78740000D03*
D12*
X137160000Y-78740000D03*
X139700000Y-78740000D03*
X142240000Y-78740000D03*
X144780000Y-78740000D03*
%TD*%
D11*
%TO.C,J34*%
X134620000Y-104140000D03*
D12*
X137160000Y-104140000D03*
X139700000Y-104140000D03*
X142240000Y-104140000D03*
X144780000Y-104140000D03*
%TD*%
D11*
%TO.C,J23*%
X116840000Y-101600000D03*
D12*
X119380000Y-101600000D03*
X121920000Y-101600000D03*
X124460000Y-101600000D03*
X127000000Y-101600000D03*
%TD*%
D11*
%TO.C,J53*%
X116840000Y-132080000D03*
D12*
X119380000Y-132080000D03*
X121920000Y-132080000D03*
X124460000Y-132080000D03*
X127000000Y-132080000D03*
%TD*%
D11*
%TO.C,J68*%
X109220000Y-63500000D03*
D12*
X109220000Y-66040000D03*
X109220000Y-68580000D03*
X109220000Y-71120000D03*
X109220000Y-73660000D03*
X109220000Y-76200000D03*
X109220000Y-78740000D03*
X109220000Y-81280000D03*
X109220000Y-83820000D03*
X109220000Y-86360000D03*
X109220000Y-88900000D03*
X109220000Y-91440000D03*
X109220000Y-93980000D03*
X109220000Y-96520000D03*
X109220000Y-99060000D03*
X109220000Y-101600000D03*
X109220000Y-104140000D03*
X109220000Y-106680000D03*
X109220000Y-109220000D03*
X109220000Y-111760000D03*
X109220000Y-114300000D03*
X109220000Y-116840000D03*
X109220000Y-119380000D03*
X109220000Y-121920000D03*
X109220000Y-124460000D03*
X109220000Y-127000000D03*
X109220000Y-129540000D03*
X109220000Y-132080000D03*
X109220000Y-134620000D03*
X109220000Y-137160000D03*
X109220000Y-139700000D03*
X109220000Y-142240000D03*
X109220000Y-144780000D03*
X109220000Y-147320000D03*
%TD*%
D11*
%TO.C,J8*%
X116840000Y-73660000D03*
D12*
X119380000Y-73660000D03*
X121920000Y-73660000D03*
X124460000Y-73660000D03*
X127000000Y-73660000D03*
%TD*%
D11*
%TO.C,J20*%
X134620000Y-99060000D03*
D12*
X137160000Y-99060000D03*
X139700000Y-99060000D03*
X142240000Y-99060000D03*
X144780000Y-99060000D03*
%TD*%
D11*
%TO.C,J62*%
X147320000Y-68580000D03*
D12*
X147320000Y-71120000D03*
X147320000Y-73660000D03*
X147320000Y-76200000D03*
X147320000Y-78740000D03*
X147320000Y-81280000D03*
X147320000Y-83820000D03*
X147320000Y-86360000D03*
X147320000Y-88900000D03*
X147320000Y-91440000D03*
X147320000Y-93980000D03*
X147320000Y-96520000D03*
X147320000Y-99060000D03*
X147320000Y-101600000D03*
X147320000Y-104140000D03*
X147320000Y-106680000D03*
X147320000Y-109220000D03*
X147320000Y-111760000D03*
X147320000Y-114300000D03*
X147320000Y-116840000D03*
X147320000Y-119380000D03*
X147320000Y-121920000D03*
X147320000Y-124460000D03*
X147320000Y-127000000D03*
X147320000Y-129540000D03*
X147320000Y-132080000D03*
X147320000Y-134620000D03*
X147320000Y-137160000D03*
X147320000Y-139700000D03*
X147320000Y-142240000D03*
%TD*%
D11*
%TO.C,J49*%
X116840000Y-119380000D03*
D12*
X119380000Y-119380000D03*
X121920000Y-119380000D03*
X124460000Y-119380000D03*
X127000000Y-119380000D03*
%TD*%
D11*
%TO.C,J48*%
X116840000Y-91440000D03*
D12*
X119380000Y-91440000D03*
X121920000Y-91440000D03*
X124460000Y-91440000D03*
X127000000Y-91440000D03*
%TD*%
D11*
%TO.C,J64*%
X132080000Y-68580000D03*
D12*
X132080000Y-71120000D03*
X132080000Y-73660000D03*
X132080000Y-76200000D03*
X132080000Y-78740000D03*
X132080000Y-81280000D03*
X132080000Y-83820000D03*
X132080000Y-86360000D03*
X132080000Y-88900000D03*
X132080000Y-91440000D03*
X132080000Y-93980000D03*
X132080000Y-96520000D03*
X132080000Y-99060000D03*
X132080000Y-101600000D03*
X132080000Y-104140000D03*
X132080000Y-106680000D03*
X132080000Y-109220000D03*
X132080000Y-111760000D03*
X132080000Y-114300000D03*
X132080000Y-116840000D03*
X132080000Y-119380000D03*
X132080000Y-121920000D03*
X132080000Y-124460000D03*
X132080000Y-127000000D03*
X132080000Y-129540000D03*
X132080000Y-132080000D03*
X132080000Y-134620000D03*
X132080000Y-137160000D03*
X132080000Y-139700000D03*
X132080000Y-142240000D03*
%TD*%
D11*
%TO.C,J29*%
X116840000Y-104140000D03*
D12*
X119380000Y-104140000D03*
X121920000Y-104140000D03*
X124460000Y-104140000D03*
X127000000Y-104140000D03*
%TD*%
D11*
%TO.C,J6*%
X116840000Y-96520000D03*
D12*
X119380000Y-96520000D03*
X121920000Y-96520000D03*
X124460000Y-96520000D03*
X127000000Y-96520000D03*
%TD*%
D11*
%TO.C,J2*%
X116840000Y-109220000D03*
D12*
X119380000Y-109220000D03*
X121920000Y-109220000D03*
X124460000Y-109220000D03*
X127000000Y-109220000D03*
%TD*%
D11*
%TO.C,J59*%
X134620000Y-91440000D03*
D12*
X137160000Y-91440000D03*
X139700000Y-91440000D03*
X142240000Y-91440000D03*
X144780000Y-91440000D03*
%TD*%
D11*
%TO.C,J25*%
X134620000Y-83820000D03*
D12*
X137160000Y-83820000D03*
X139700000Y-83820000D03*
X142240000Y-83820000D03*
X144780000Y-83820000D03*
%TD*%
D11*
%TO.C,J57*%
X134620000Y-129540000D03*
D12*
X137160000Y-129540000D03*
X139700000Y-129540000D03*
X142240000Y-129540000D03*
X144780000Y-129540000D03*
%TD*%
D11*
%TO.C,J72*%
X111760000Y-147320000D03*
D12*
X114300000Y-147320000D03*
X116840000Y-147320000D03*
X119380000Y-147320000D03*
X121920000Y-147320000D03*
X124460000Y-147320000D03*
X127000000Y-147320000D03*
X129540000Y-147320000D03*
X132080000Y-147320000D03*
X134620000Y-147320000D03*
X137160000Y-147320000D03*
X139700000Y-147320000D03*
X142240000Y-147320000D03*
X144780000Y-147320000D03*
X147320000Y-147320000D03*
X149860000Y-147320000D03*
%TD*%
D11*
%TO.C,J50*%
X116840000Y-78740000D03*
D12*
X119380000Y-78740000D03*
X121920000Y-78740000D03*
X124460000Y-78740000D03*
X127000000Y-78740000D03*
%TD*%
D11*
%TO.C,J16*%
X134620000Y-111760000D03*
D12*
X137160000Y-111760000D03*
X139700000Y-111760000D03*
X142240000Y-111760000D03*
X144780000Y-111760000D03*
%TD*%
D11*
%TO.C,J69*%
X109220000Y-60960000D03*
D12*
X111760000Y-60960000D03*
X114300000Y-60960000D03*
X116840000Y-60960000D03*
X119380000Y-60960000D03*
X121920000Y-60960000D03*
X124460000Y-60960000D03*
X127000000Y-60960000D03*
X129540000Y-60960000D03*
X132080000Y-60960000D03*
X134620000Y-60960000D03*
X137160000Y-60960000D03*
X139700000Y-60960000D03*
X142240000Y-60960000D03*
X144780000Y-60960000D03*
X147320000Y-60960000D03*
X149860000Y-60960000D03*
X152400000Y-60960000D03*
%TD*%
D11*
%TO.C,J67*%
X152400000Y-63500000D03*
D12*
X152400000Y-66040000D03*
X152400000Y-68580000D03*
X152400000Y-71120000D03*
X152400000Y-73660000D03*
X152400000Y-76200000D03*
X152400000Y-78740000D03*
X152400000Y-81280000D03*
X152400000Y-83820000D03*
X152400000Y-86360000D03*
X152400000Y-88900000D03*
X152400000Y-91440000D03*
X152400000Y-93980000D03*
X152400000Y-96520000D03*
X152400000Y-99060000D03*
X152400000Y-101600000D03*
X152400000Y-104140000D03*
X152400000Y-106680000D03*
X152400000Y-109220000D03*
X152400000Y-111760000D03*
X152400000Y-114300000D03*
X152400000Y-116840000D03*
X152400000Y-119380000D03*
X152400000Y-121920000D03*
X152400000Y-124460000D03*
X152400000Y-127000000D03*
X152400000Y-129540000D03*
X152400000Y-132080000D03*
X152400000Y-134620000D03*
X152400000Y-137160000D03*
X152400000Y-139700000D03*
X152400000Y-142240000D03*
X152400000Y-144780000D03*
X152400000Y-147320000D03*
%TD*%
D11*
%TO.C,J71*%
X111760000Y-63500000D03*
D12*
X114300000Y-63500000D03*
X116840000Y-63500000D03*
X119380000Y-63500000D03*
X121920000Y-63500000D03*
X124460000Y-63500000D03*
X127000000Y-63500000D03*
X129540000Y-63500000D03*
X132080000Y-63500000D03*
X134620000Y-63500000D03*
X137160000Y-63500000D03*
X139700000Y-63500000D03*
X142240000Y-63500000D03*
X144780000Y-63500000D03*
X147320000Y-63500000D03*
X149860000Y-63500000D03*
%TD*%
D11*
%TO.C,J10*%
X134620000Y-101600000D03*
D12*
X137160000Y-101600000D03*
X139700000Y-101600000D03*
X142240000Y-101600000D03*
X144780000Y-101600000D03*
%TD*%
D11*
%TO.C,J17*%
X116840000Y-93980000D03*
D12*
X119380000Y-93980000D03*
X121920000Y-93980000D03*
X124460000Y-93980000D03*
X127000000Y-93980000D03*
%TD*%
D13*
%TO.C,H3*%
X151130000Y-55880000D03*
%TD*%
D11*
%TO.C,J56*%
X134620000Y-137160000D03*
D12*
X137160000Y-137160000D03*
X139700000Y-137160000D03*
X142240000Y-137160000D03*
X144780000Y-137160000D03*
%TD*%
D13*
%TO.C,H2*%
X110490000Y-55880000D03*
%TD*%
D11*
%TO.C,J41*%
X116840000Y-142240000D03*
D12*
X119380000Y-142240000D03*
X121920000Y-142240000D03*
X124460000Y-142240000D03*
X127000000Y-142240000D03*
%TD*%
D11*
%TO.C,J43*%
X134620000Y-119380000D03*
D12*
X137160000Y-119380000D03*
X139700000Y-119380000D03*
X142240000Y-119380000D03*
X144780000Y-119380000D03*
%TD*%
D11*
%TO.C,J21*%
X116840000Y-106680000D03*
D12*
X119380000Y-106680000D03*
X121920000Y-106680000D03*
X124460000Y-106680000D03*
X127000000Y-106680000D03*
%TD*%
D11*
%TO.C,J75*%
X115570000Y-154940000D03*
D12*
X115570000Y-152400000D03*
X118110000Y-154940000D03*
X118110000Y-152400000D03*
X120650000Y-154940000D03*
X120650000Y-152400000D03*
X123190000Y-154940000D03*
X123190000Y-152400000D03*
X125730000Y-154940000D03*
X125730000Y-152400000D03*
X128270000Y-154940000D03*
X128270000Y-152400000D03*
X130810000Y-154940000D03*
X130810000Y-152400000D03*
X133350000Y-154940000D03*
X133350000Y-152400000D03*
X135890000Y-154940000D03*
X135890000Y-152400000D03*
X138430000Y-154940000D03*
X138430000Y-152400000D03*
X140970000Y-154940000D03*
X140970000Y-152400000D03*
X143510000Y-154940000D03*
X143510000Y-152400000D03*
X146050000Y-154940000D03*
X146050000Y-152400000D03*
%TD*%
D11*
%TO.C,J39*%
X116840000Y-81280000D03*
D12*
X119380000Y-81280000D03*
X121920000Y-81280000D03*
X124460000Y-81280000D03*
X127000000Y-81280000D03*
%TD*%
D11*
%TO.C,J44*%
X116840000Y-139700000D03*
D12*
X119380000Y-139700000D03*
X121920000Y-139700000D03*
X124460000Y-139700000D03*
X127000000Y-139700000D03*
%TD*%
D11*
%TO.C,J19*%
X116840000Y-134620000D03*
D12*
X119380000Y-134620000D03*
X121920000Y-134620000D03*
X124460000Y-134620000D03*
X127000000Y-134620000D03*
%TD*%
D11*
%TO.C,J40*%
X134620000Y-88900000D03*
D12*
X137160000Y-88900000D03*
X139700000Y-88900000D03*
X142240000Y-88900000D03*
X144780000Y-88900000D03*
%TD*%
D11*
%TO.C,J1*%
X116840000Y-116840000D03*
D12*
X119380000Y-116840000D03*
X121920000Y-116840000D03*
X124460000Y-116840000D03*
X127000000Y-116840000D03*
%TD*%
D11*
%TO.C,J70*%
X109220000Y-149860000D03*
D12*
X111760000Y-149860000D03*
X114300000Y-149860000D03*
X116840000Y-149860000D03*
X119380000Y-149860000D03*
X121920000Y-149860000D03*
X124460000Y-149860000D03*
X127000000Y-149860000D03*
X129540000Y-149860000D03*
X132080000Y-149860000D03*
X134620000Y-149860000D03*
X137160000Y-149860000D03*
X139700000Y-149860000D03*
X142240000Y-149860000D03*
X144780000Y-149860000D03*
X147320000Y-149860000D03*
X149860000Y-149860000D03*
X152400000Y-149860000D03*
%TD*%
D13*
%TO.C,H1*%
X110490000Y-154940000D03*
%TD*%
D11*
%TO.C,J28*%
X116840000Y-137160000D03*
D12*
X119380000Y-137160000D03*
X121920000Y-137160000D03*
X124460000Y-137160000D03*
X127000000Y-137160000D03*
%TD*%
D11*
%TO.C,J46*%
X116840000Y-86360000D03*
D12*
X119380000Y-86360000D03*
X121920000Y-86360000D03*
X124460000Y-86360000D03*
X127000000Y-86360000D03*
%TD*%
D11*
%TO.C,J61*%
X114300000Y-68580000D03*
D12*
X114300000Y-71120000D03*
X114300000Y-73660000D03*
X114300000Y-76200000D03*
X114300000Y-78740000D03*
X114300000Y-81280000D03*
X114300000Y-83820000D03*
X114300000Y-86360000D03*
X114300000Y-88900000D03*
X114300000Y-91440000D03*
X114300000Y-93980000D03*
X114300000Y-96520000D03*
X114300000Y-99060000D03*
X114300000Y-101600000D03*
X114300000Y-104140000D03*
X114300000Y-106680000D03*
X114300000Y-109220000D03*
X114300000Y-111760000D03*
X114300000Y-114300000D03*
X114300000Y-116840000D03*
X114300000Y-119380000D03*
X114300000Y-121920000D03*
X114300000Y-124460000D03*
X114300000Y-127000000D03*
X114300000Y-129540000D03*
X114300000Y-132080000D03*
X114300000Y-134620000D03*
X114300000Y-137160000D03*
X114300000Y-139700000D03*
X114300000Y-142240000D03*
%TD*%
D11*
%TO.C,J3*%
X134620000Y-93980000D03*
D12*
X137160000Y-93980000D03*
X139700000Y-93980000D03*
X142240000Y-93980000D03*
X144780000Y-93980000D03*
%TD*%
D11*
%TO.C,J36*%
X116840000Y-71120000D03*
D12*
X119380000Y-71120000D03*
X121920000Y-71120000D03*
X124460000Y-71120000D03*
X127000000Y-71120000D03*
%TD*%
D11*
%TO.C,J58*%
X116840000Y-88900000D03*
D12*
X119380000Y-88900000D03*
X121920000Y-88900000D03*
X124460000Y-88900000D03*
X127000000Y-88900000D03*
%TD*%
D11*
%TO.C,J30*%
X134620000Y-76200000D03*
D12*
X137160000Y-76200000D03*
X139700000Y-76200000D03*
X142240000Y-76200000D03*
X144780000Y-76200000D03*
%TD*%
D11*
%TO.C,J73*%
X114300000Y-66040000D03*
D12*
X116840000Y-66040000D03*
X119380000Y-66040000D03*
X121920000Y-66040000D03*
X124460000Y-66040000D03*
X127000000Y-66040000D03*
X129540000Y-66040000D03*
X132080000Y-66040000D03*
X134620000Y-66040000D03*
X137160000Y-66040000D03*
X139700000Y-66040000D03*
X142240000Y-66040000D03*
X144780000Y-66040000D03*
X147320000Y-66040000D03*
%TD*%
D11*
%TO.C,J55*%
X116840000Y-68580000D03*
D12*
X119380000Y-68580000D03*
X121920000Y-68580000D03*
X124460000Y-68580000D03*
X127000000Y-68580000D03*
%TD*%
D11*
%TO.C,J38*%
X116840000Y-121920000D03*
D12*
X119380000Y-121920000D03*
X121920000Y-121920000D03*
X124460000Y-121920000D03*
X127000000Y-121920000D03*
%TD*%
D11*
%TO.C,J33*%
X134620000Y-73660000D03*
D12*
X137160000Y-73660000D03*
X139700000Y-73660000D03*
X142240000Y-73660000D03*
X144780000Y-73660000D03*
%TD*%
D11*
%TO.C,J35*%
X134620000Y-86360000D03*
D12*
X137160000Y-86360000D03*
X139700000Y-86360000D03*
X142240000Y-86360000D03*
X144780000Y-86360000D03*
%TD*%
D11*
%TO.C,J12*%
X134620000Y-127000000D03*
D12*
X137160000Y-127000000D03*
X139700000Y-127000000D03*
X142240000Y-127000000D03*
X144780000Y-127000000D03*
%TD*%
D11*
%TO.C,J13*%
X116840000Y-129540000D03*
D12*
X119380000Y-129540000D03*
X121920000Y-129540000D03*
X124460000Y-129540000D03*
X127000000Y-129540000D03*
%TD*%
D11*
%TO.C,J18*%
X116840000Y-76200000D03*
D12*
X119380000Y-76200000D03*
X121920000Y-76200000D03*
X124460000Y-76200000D03*
X127000000Y-76200000D03*
%TD*%
D11*
%TO.C,J7*%
X134620000Y-116840000D03*
D12*
X137160000Y-116840000D03*
X139700000Y-116840000D03*
X142240000Y-116840000D03*
X144780000Y-116840000D03*
%TD*%
D11*
%TO.C,J31*%
X134620000Y-114300000D03*
D12*
X137160000Y-114300000D03*
X139700000Y-114300000D03*
X142240000Y-114300000D03*
X144780000Y-114300000D03*
%TD*%
D11*
%TO.C,J51*%
X134620000Y-68580000D03*
D12*
X137160000Y-68580000D03*
X139700000Y-68580000D03*
X142240000Y-68580000D03*
X144780000Y-68580000D03*
%TD*%
D11*
%TO.C,J52*%
X134620000Y-109220000D03*
D12*
X137160000Y-109220000D03*
X139700000Y-109220000D03*
X142240000Y-109220000D03*
X144780000Y-109220000D03*
%TD*%
D11*
%TO.C,J24*%
X116840000Y-124460000D03*
D12*
X119380000Y-124460000D03*
X121920000Y-124460000D03*
X124460000Y-124460000D03*
X127000000Y-124460000D03*
%TD*%
D11*
%TO.C,J37*%
X134620000Y-81280000D03*
D12*
X137160000Y-81280000D03*
X139700000Y-81280000D03*
X142240000Y-81280000D03*
X144780000Y-81280000D03*
%TD*%
D11*
%TO.C,J66*%
X111760000Y-66040000D03*
D12*
X111760000Y-68580000D03*
X111760000Y-71120000D03*
X111760000Y-73660000D03*
X111760000Y-76200000D03*
X111760000Y-78740000D03*
X111760000Y-81280000D03*
X111760000Y-83820000D03*
X111760000Y-86360000D03*
X111760000Y-88900000D03*
X111760000Y-91440000D03*
X111760000Y-93980000D03*
X111760000Y-96520000D03*
X111760000Y-99060000D03*
X111760000Y-101600000D03*
X111760000Y-104140000D03*
X111760000Y-106680000D03*
X111760000Y-109220000D03*
X111760000Y-111760000D03*
X111760000Y-114300000D03*
X111760000Y-116840000D03*
X111760000Y-119380000D03*
X111760000Y-121920000D03*
X111760000Y-124460000D03*
X111760000Y-127000000D03*
X111760000Y-129540000D03*
X111760000Y-132080000D03*
X111760000Y-134620000D03*
X111760000Y-137160000D03*
X111760000Y-139700000D03*
X111760000Y-142240000D03*
X111760000Y-144780000D03*
%TD*%
D11*
%TO.C,J63*%
X129540000Y-68580000D03*
D12*
X129540000Y-71120000D03*
X129540000Y-73660000D03*
X129540000Y-76200000D03*
X129540000Y-78740000D03*
X129540000Y-81280000D03*
X129540000Y-83820000D03*
X129540000Y-86360000D03*
X129540000Y-88900000D03*
X129540000Y-91440000D03*
X129540000Y-93980000D03*
X129540000Y-96520000D03*
X129540000Y-99060000D03*
X129540000Y-101600000D03*
X129540000Y-104140000D03*
X129540000Y-106680000D03*
X129540000Y-109220000D03*
X129540000Y-111760000D03*
X129540000Y-114300000D03*
X129540000Y-116840000D03*
X129540000Y-119380000D03*
X129540000Y-121920000D03*
X129540000Y-124460000D03*
X129540000Y-127000000D03*
X129540000Y-129540000D03*
X129540000Y-132080000D03*
X129540000Y-134620000D03*
X129540000Y-137160000D03*
X129540000Y-139700000D03*
X129540000Y-142240000D03*
%TD*%
D11*
%TO.C,J11*%
X134620000Y-134620000D03*
D12*
X137160000Y-134620000D03*
X139700000Y-134620000D03*
X142240000Y-134620000D03*
X144780000Y-134620000D03*
%TD*%
D11*
%TO.C,J4*%
X116840000Y-99060000D03*
D12*
X119380000Y-99060000D03*
X121920000Y-99060000D03*
X124460000Y-99060000D03*
X127000000Y-99060000D03*
%TD*%
D11*
%TO.C,J65*%
X149860000Y-66040000D03*
D12*
X149860000Y-68580000D03*
X149860000Y-71120000D03*
X149860000Y-73660000D03*
X149860000Y-76200000D03*
X149860000Y-78740000D03*
X149860000Y-81280000D03*
X149860000Y-83820000D03*
X149860000Y-86360000D03*
X149860000Y-88900000D03*
X149860000Y-91440000D03*
X149860000Y-93980000D03*
X149860000Y-96520000D03*
X149860000Y-99060000D03*
X149860000Y-101600000D03*
X149860000Y-104140000D03*
X149860000Y-106680000D03*
X149860000Y-109220000D03*
X149860000Y-111760000D03*
X149860000Y-114300000D03*
X149860000Y-116840000D03*
X149860000Y-119380000D03*
X149860000Y-121920000D03*
X149860000Y-124460000D03*
X149860000Y-127000000D03*
X149860000Y-129540000D03*
X149860000Y-132080000D03*
X149860000Y-134620000D03*
X149860000Y-137160000D03*
X149860000Y-139700000D03*
X149860000Y-142240000D03*
X149860000Y-144780000D03*
%TD*%
D11*
%TO.C,J14*%
X134620000Y-132080000D03*
D12*
X137160000Y-132080000D03*
X139700000Y-132080000D03*
X142240000Y-132080000D03*
X144780000Y-132080000D03*
%TD*%
D11*
%TO.C,J15*%
X134620000Y-139700000D03*
D12*
X137160000Y-139700000D03*
X139700000Y-139700000D03*
X142240000Y-139700000D03*
X144780000Y-139700000D03*
%TD*%
D11*
%TO.C,J54*%
X134620000Y-96520000D03*
D12*
X137160000Y-96520000D03*
X139700000Y-96520000D03*
X142240000Y-96520000D03*
X144780000Y-96520000D03*
%TD*%
D11*
%TO.C,J76*%
X115570000Y-58420000D03*
D12*
X115570000Y-55880000D03*
X118110000Y-58420000D03*
X118110000Y-55880000D03*
X120650000Y-58420000D03*
X120650000Y-55880000D03*
X123190000Y-58420000D03*
X123190000Y-55880000D03*
X125730000Y-58420000D03*
X125730000Y-55880000D03*
X128270000Y-58420000D03*
X128270000Y-55880000D03*
X130810000Y-58420000D03*
X130810000Y-55880000D03*
X133350000Y-58420000D03*
X133350000Y-55880000D03*
X135890000Y-58420000D03*
X135890000Y-55880000D03*
X138430000Y-58420000D03*
X138430000Y-55880000D03*
X140970000Y-58420000D03*
X140970000Y-55880000D03*
X143510000Y-58420000D03*
X143510000Y-55880000D03*
X146050000Y-58420000D03*
X146050000Y-55880000D03*
%TD*%
D11*
%TO.C,J22*%
X116840000Y-83820000D03*
D12*
X119380000Y-83820000D03*
X121920000Y-83820000D03*
X124460000Y-83820000D03*
X127000000Y-83820000D03*
%TD*%
D11*
%TO.C,J32*%
X134620000Y-106680000D03*
D12*
X137160000Y-106680000D03*
X139700000Y-106680000D03*
X142240000Y-106680000D03*
X144780000Y-106680000D03*
%TD*%
D11*
%TO.C,J26*%
X134620000Y-71120000D03*
D12*
X137160000Y-71120000D03*
X139700000Y-71120000D03*
X142240000Y-71120000D03*
X144780000Y-71120000D03*
%TD*%
D11*
%TO.C,J74*%
X114300000Y-144780000D03*
D12*
X116840000Y-144780000D03*
X119380000Y-144780000D03*
X121920000Y-144780000D03*
X124460000Y-144780000D03*
X127000000Y-144780000D03*
X129540000Y-144780000D03*
X132080000Y-144780000D03*
X134620000Y-144780000D03*
X137160000Y-144780000D03*
X139700000Y-144780000D03*
X142240000Y-144780000D03*
X144780000Y-144780000D03*
X147320000Y-144780000D03*
%TD*%
D11*
%TO.C,J45*%
X116840000Y-127000000D03*
D12*
X119380000Y-127000000D03*
X121920000Y-127000000D03*
X124460000Y-127000000D03*
X127000000Y-127000000D03*
%TD*%
M02*
