%TF.GenerationSoftware,KiCad,Pcbnew,(6.0.5)*%
%TF.CreationDate,2022-09-15T17:30:36-04:00*%
%TF.ProjectId,protoboard,70726f74-6f62-46f6-9172-642e6b696361,0.1*%
%TF.SameCoordinates,Original*%
%TF.FileFunction,Copper,L1,Top*%
%TF.FilePolarity,Positive*%
%FSLAX46Y46*%
G04 Gerber Fmt 4.6, Leading zero omitted, Abs format (unit mm)*
G04 Created by KiCad (PCBNEW (6.0.5)) date 2022-09-15 17:30:36*
%MOMM*%
%LPD*%
G01*
G04 APERTURE LIST*
%TA.AperFunction,ComponentPad*%
%ADD10C,1.700000*%
%TD*%
%TA.AperFunction,ComponentPad*%
%ADD11O,1.700000X1.700000*%
%TD*%
G04 APERTURE END LIST*
D10*
%TO.P,J42,1,Pin_1*%
%TO.N,Net-(J42-Pad1)*%
X116840000Y-111760000D03*
D11*
%TO.P,J42,2,Pin_2*%
X119380000Y-111760000D03*
%TO.P,J42,3,Pin_3*%
X121920000Y-111760000D03*
%TO.P,J42,4,Pin_4*%
X124460000Y-111760000D03*
%TO.P,J42,5,Pin_5*%
X127000000Y-111760000D03*
%TD*%
D10*
%TO.P,J5,1,Pin_1*%
%TO.N,Net-(J5-Pad1)*%
X116840000Y-114300000D03*
D11*
%TO.P,J5,2,Pin_2*%
X119380000Y-114300000D03*
%TO.P,J5,3,Pin_3*%
X121920000Y-114300000D03*
%TO.P,J5,4,Pin_4*%
X124460000Y-114300000D03*
%TO.P,J5,5,Pin_5*%
X127000000Y-114300000D03*
%TD*%
D10*
%TO.P,J27,1,Pin_1*%
%TO.N,Net-(J27-Pad1)*%
X134620000Y-142240000D03*
D11*
%TO.P,J27,2,Pin_2*%
X137160000Y-142240000D03*
%TO.P,J27,3,Pin_3*%
X139700000Y-142240000D03*
%TO.P,J27,4,Pin_4*%
X142240000Y-142240000D03*
%TO.P,J27,5,Pin_5*%
X144780000Y-142240000D03*
%TD*%
D10*
%TO.P,J9,1,Pin_1*%
%TO.N,Net-(J9-Pad1)*%
X134620000Y-124460000D03*
D11*
%TO.P,J9,2,Pin_2*%
X137160000Y-124460000D03*
%TO.P,J9,3,Pin_3*%
X139700000Y-124460000D03*
%TO.P,J9,4,Pin_4*%
X142240000Y-124460000D03*
%TO.P,J9,5,Pin_5*%
X144780000Y-124460000D03*
%TD*%
D10*
%TO.P,J60,1,Pin_1*%
%TO.N,Net-(J60-Pad1)*%
X134620000Y-121920000D03*
D11*
%TO.P,J60,2,Pin_2*%
X137160000Y-121920000D03*
%TO.P,J60,3,Pin_3*%
X139700000Y-121920000D03*
%TO.P,J60,4,Pin_4*%
X142240000Y-121920000D03*
%TO.P,J60,5,Pin_5*%
X144780000Y-121920000D03*
%TD*%
D10*
%TO.P,J47,1,Pin_1*%
%TO.N,Net-(J47-Pad1)*%
X134620000Y-78740000D03*
D11*
%TO.P,J47,2,Pin_2*%
X137160000Y-78740000D03*
%TO.P,J47,3,Pin_3*%
X139700000Y-78740000D03*
%TO.P,J47,4,Pin_4*%
X142240000Y-78740000D03*
%TO.P,J47,5,Pin_5*%
X144780000Y-78740000D03*
%TD*%
D10*
%TO.P,J34,1,Pin_1*%
%TO.N,Net-(J34-Pad1)*%
X134620000Y-104140000D03*
D11*
%TO.P,J34,2,Pin_2*%
X137160000Y-104140000D03*
%TO.P,J34,3,Pin_3*%
X139700000Y-104140000D03*
%TO.P,J34,4,Pin_4*%
X142240000Y-104140000D03*
%TO.P,J34,5,Pin_5*%
X144780000Y-104140000D03*
%TD*%
D10*
%TO.P,J23,1,Pin_1*%
%TO.N,Net-(J23-Pad1)*%
X116840000Y-101600000D03*
D11*
%TO.P,J23,2,Pin_2*%
X119380000Y-101600000D03*
%TO.P,J23,3,Pin_3*%
X121920000Y-101600000D03*
%TO.P,J23,4,Pin_4*%
X124460000Y-101600000D03*
%TO.P,J23,5,Pin_5*%
X127000000Y-101600000D03*
%TD*%
D10*
%TO.P,J53,1,Pin_1*%
%TO.N,Net-(J53-Pad1)*%
X116840000Y-132080000D03*
D11*
%TO.P,J53,2,Pin_2*%
X119380000Y-132080000D03*
%TO.P,J53,3,Pin_3*%
X121920000Y-132080000D03*
%TO.P,J53,4,Pin_4*%
X124460000Y-132080000D03*
%TO.P,J53,5,Pin_5*%
X127000000Y-132080000D03*
%TD*%
D10*
%TO.P,J68,1,Pin_1*%
%TO.N,Net-(J68-Pad1)*%
X109220000Y-63500000D03*
D11*
%TO.P,J68,2,Pin_2*%
X109220000Y-66040000D03*
%TO.P,J68,3,Pin_3*%
X109220000Y-68580000D03*
%TO.P,J68,4,Pin_4*%
X109220000Y-71120000D03*
%TO.P,J68,5,Pin_5*%
X109220000Y-73660000D03*
%TO.P,J68,6,Pin_6*%
X109220000Y-76200000D03*
%TO.P,J68,7,Pin_7*%
X109220000Y-78740000D03*
%TO.P,J68,8,Pin_8*%
X109220000Y-81280000D03*
%TO.P,J68,9,Pin_9*%
X109220000Y-83820000D03*
%TO.P,J68,10,Pin_10*%
X109220000Y-86360000D03*
%TO.P,J68,11,Pin_11*%
X109220000Y-88900000D03*
%TO.P,J68,12,Pin_12*%
X109220000Y-91440000D03*
%TO.P,J68,13,Pin_13*%
X109220000Y-93980000D03*
%TO.P,J68,14,Pin_14*%
X109220000Y-96520000D03*
%TO.P,J68,15,Pin_15*%
X109220000Y-99060000D03*
%TO.P,J68,16,Pin_16*%
X109220000Y-101600000D03*
%TO.P,J68,17,Pin_17*%
X109220000Y-104140000D03*
%TO.P,J68,18,Pin_18*%
X109220000Y-106680000D03*
%TO.P,J68,19,Pin_19*%
X109220000Y-109220000D03*
%TO.P,J68,20,Pin_20*%
X109220000Y-111760000D03*
%TO.P,J68,21,Pin_21*%
X109220000Y-114300000D03*
%TO.P,J68,22,Pin_22*%
X109220000Y-116840000D03*
%TO.P,J68,23,Pin_23*%
X109220000Y-119380000D03*
%TO.P,J68,24,Pin_24*%
X109220000Y-121920000D03*
%TO.P,J68,25,Pin_25*%
X109220000Y-124460000D03*
%TO.P,J68,26,Pin_26*%
X109220000Y-127000000D03*
%TO.P,J68,27,Pin_27*%
X109220000Y-129540000D03*
%TO.P,J68,28,Pin_28*%
X109220000Y-132080000D03*
%TO.P,J68,29,Pin_29*%
X109220000Y-134620000D03*
%TO.P,J68,30,Pin_30*%
X109220000Y-137160000D03*
%TO.P,J68,31,Pin_31*%
X109220000Y-139700000D03*
%TO.P,J68,32,Pin_32*%
X109220000Y-142240000D03*
%TO.P,J68,33,Pin_33*%
X109220000Y-144780000D03*
%TO.P,J68,34,Pin_34*%
X109220000Y-147320000D03*
%TD*%
D10*
%TO.P,J8,1,Pin_1*%
%TO.N,Net-(J8-Pad1)*%
X116840000Y-73660000D03*
D11*
%TO.P,J8,2,Pin_2*%
X119380000Y-73660000D03*
%TO.P,J8,3,Pin_3*%
X121920000Y-73660000D03*
%TO.P,J8,4,Pin_4*%
X124460000Y-73660000D03*
%TO.P,J8,5,Pin_5*%
X127000000Y-73660000D03*
%TD*%
D10*
%TO.P,J20,1,Pin_1*%
%TO.N,Net-(J20-Pad1)*%
X134620000Y-99060000D03*
D11*
%TO.P,J20,2,Pin_2*%
X137160000Y-99060000D03*
%TO.P,J20,3,Pin_3*%
X139700000Y-99060000D03*
%TO.P,J20,4,Pin_4*%
X142240000Y-99060000D03*
%TO.P,J20,5,Pin_5*%
X144780000Y-99060000D03*
%TD*%
D10*
%TO.P,J62,1,Pin_1*%
%TO.N,Net-(J62-Pad1)*%
X147320000Y-68580000D03*
D11*
%TO.P,J62,2,Pin_2*%
X147320000Y-71120000D03*
%TO.P,J62,3,Pin_3*%
X147320000Y-73660000D03*
%TO.P,J62,4,Pin_4*%
X147320000Y-76200000D03*
%TO.P,J62,5,Pin_5*%
X147320000Y-78740000D03*
%TO.P,J62,6,Pin_6*%
X147320000Y-81280000D03*
%TO.P,J62,7,Pin_7*%
X147320000Y-83820000D03*
%TO.P,J62,8,Pin_8*%
X147320000Y-86360000D03*
%TO.P,J62,9,Pin_9*%
X147320000Y-88900000D03*
%TO.P,J62,10,Pin_10*%
X147320000Y-91440000D03*
%TO.P,J62,11,Pin_11*%
X147320000Y-93980000D03*
%TO.P,J62,12,Pin_12*%
X147320000Y-96520000D03*
%TO.P,J62,13,Pin_13*%
X147320000Y-99060000D03*
%TO.P,J62,14,Pin_14*%
X147320000Y-101600000D03*
%TO.P,J62,15,Pin_15*%
X147320000Y-104140000D03*
%TO.P,J62,16,Pin_16*%
X147320000Y-106680000D03*
%TO.P,J62,17,Pin_17*%
X147320000Y-109220000D03*
%TO.P,J62,18,Pin_18*%
X147320000Y-111760000D03*
%TO.P,J62,19,Pin_19*%
X147320000Y-114300000D03*
%TO.P,J62,20,Pin_20*%
X147320000Y-116840000D03*
%TO.P,J62,21,Pin_21*%
X147320000Y-119380000D03*
%TO.P,J62,22,Pin_22*%
X147320000Y-121920000D03*
%TO.P,J62,23,Pin_23*%
X147320000Y-124460000D03*
%TO.P,J62,24,Pin_24*%
X147320000Y-127000000D03*
%TO.P,J62,25,Pin_25*%
X147320000Y-129540000D03*
%TO.P,J62,26,Pin_26*%
X147320000Y-132080000D03*
%TO.P,J62,27,Pin_27*%
X147320000Y-134620000D03*
%TO.P,J62,28,Pin_28*%
X147320000Y-137160000D03*
%TO.P,J62,29,Pin_29*%
X147320000Y-139700000D03*
%TO.P,J62,30,Pin_30*%
X147320000Y-142240000D03*
%TD*%
D10*
%TO.P,J49,1,Pin_1*%
%TO.N,Net-(J49-Pad1)*%
X116840000Y-119380000D03*
D11*
%TO.P,J49,2,Pin_2*%
X119380000Y-119380000D03*
%TO.P,J49,3,Pin_3*%
X121920000Y-119380000D03*
%TO.P,J49,4,Pin_4*%
X124460000Y-119380000D03*
%TO.P,J49,5,Pin_5*%
X127000000Y-119380000D03*
%TD*%
D10*
%TO.P,J48,1,Pin_1*%
%TO.N,Net-(J48-Pad1)*%
X116840000Y-91440000D03*
D11*
%TO.P,J48,2,Pin_2*%
X119380000Y-91440000D03*
%TO.P,J48,3,Pin_3*%
X121920000Y-91440000D03*
%TO.P,J48,4,Pin_4*%
X124460000Y-91440000D03*
%TO.P,J48,5,Pin_5*%
X127000000Y-91440000D03*
%TD*%
D10*
%TO.P,J64,1,Pin_1*%
%TO.N,Net-(J64-Pad1)*%
X132080000Y-68580000D03*
D11*
%TO.P,J64,2,Pin_2*%
X132080000Y-71120000D03*
%TO.P,J64,3,Pin_3*%
X132080000Y-73660000D03*
%TO.P,J64,4,Pin_4*%
X132080000Y-76200000D03*
%TO.P,J64,5,Pin_5*%
X132080000Y-78740000D03*
%TO.P,J64,6,Pin_6*%
X132080000Y-81280000D03*
%TO.P,J64,7,Pin_7*%
X132080000Y-83820000D03*
%TO.P,J64,8,Pin_8*%
X132080000Y-86360000D03*
%TO.P,J64,9,Pin_9*%
X132080000Y-88900000D03*
%TO.P,J64,10,Pin_10*%
X132080000Y-91440000D03*
%TO.P,J64,11,Pin_11*%
X132080000Y-93980000D03*
%TO.P,J64,12,Pin_12*%
X132080000Y-96520000D03*
%TO.P,J64,13,Pin_13*%
X132080000Y-99060000D03*
%TO.P,J64,14,Pin_14*%
X132080000Y-101600000D03*
%TO.P,J64,15,Pin_15*%
X132080000Y-104140000D03*
%TO.P,J64,16,Pin_16*%
X132080000Y-106680000D03*
%TO.P,J64,17,Pin_17*%
X132080000Y-109220000D03*
%TO.P,J64,18,Pin_18*%
X132080000Y-111760000D03*
%TO.P,J64,19,Pin_19*%
X132080000Y-114300000D03*
%TO.P,J64,20,Pin_20*%
X132080000Y-116840000D03*
%TO.P,J64,21,Pin_21*%
X132080000Y-119380000D03*
%TO.P,J64,22,Pin_22*%
X132080000Y-121920000D03*
%TO.P,J64,23,Pin_23*%
X132080000Y-124460000D03*
%TO.P,J64,24,Pin_24*%
X132080000Y-127000000D03*
%TO.P,J64,25,Pin_25*%
X132080000Y-129540000D03*
%TO.P,J64,26,Pin_26*%
X132080000Y-132080000D03*
%TO.P,J64,27,Pin_27*%
X132080000Y-134620000D03*
%TO.P,J64,28,Pin_28*%
X132080000Y-137160000D03*
%TO.P,J64,29,Pin_29*%
X132080000Y-139700000D03*
%TO.P,J64,30,Pin_30*%
X132080000Y-142240000D03*
%TD*%
D10*
%TO.P,J29,1,Pin_1*%
%TO.N,Net-(J29-Pad1)*%
X116840000Y-104140000D03*
D11*
%TO.P,J29,2,Pin_2*%
X119380000Y-104140000D03*
%TO.P,J29,3,Pin_3*%
X121920000Y-104140000D03*
%TO.P,J29,4,Pin_4*%
X124460000Y-104140000D03*
%TO.P,J29,5,Pin_5*%
X127000000Y-104140000D03*
%TD*%
D10*
%TO.P,J6,1,Pin_1*%
%TO.N,Net-(J6-Pad1)*%
X116840000Y-96520000D03*
D11*
%TO.P,J6,2,Pin_2*%
X119380000Y-96520000D03*
%TO.P,J6,3,Pin_3*%
X121920000Y-96520000D03*
%TO.P,J6,4,Pin_4*%
X124460000Y-96520000D03*
%TO.P,J6,5,Pin_5*%
X127000000Y-96520000D03*
%TD*%
D10*
%TO.P,J2,1,Pin_1*%
%TO.N,Net-(J2-Pad1)*%
X116840000Y-109220000D03*
D11*
%TO.P,J2,2,Pin_2*%
X119380000Y-109220000D03*
%TO.P,J2,3,Pin_3*%
X121920000Y-109220000D03*
%TO.P,J2,4,Pin_4*%
X124460000Y-109220000D03*
%TO.P,J2,5,Pin_5*%
X127000000Y-109220000D03*
%TD*%
D10*
%TO.P,J59,1,Pin_1*%
%TO.N,Net-(J59-Pad1)*%
X134620000Y-91440000D03*
D11*
%TO.P,J59,2,Pin_2*%
X137160000Y-91440000D03*
%TO.P,J59,3,Pin_3*%
X139700000Y-91440000D03*
%TO.P,J59,4,Pin_4*%
X142240000Y-91440000D03*
%TO.P,J59,5,Pin_5*%
X144780000Y-91440000D03*
%TD*%
D10*
%TO.P,J25,1,Pin_1*%
%TO.N,Net-(J25-Pad1)*%
X134620000Y-83820000D03*
D11*
%TO.P,J25,2,Pin_2*%
X137160000Y-83820000D03*
%TO.P,J25,3,Pin_3*%
X139700000Y-83820000D03*
%TO.P,J25,4,Pin_4*%
X142240000Y-83820000D03*
%TO.P,J25,5,Pin_5*%
X144780000Y-83820000D03*
%TD*%
D10*
%TO.P,J57,1,Pin_1*%
%TO.N,Net-(J57-Pad1)*%
X134620000Y-129540000D03*
D11*
%TO.P,J57,2,Pin_2*%
X137160000Y-129540000D03*
%TO.P,J57,3,Pin_3*%
X139700000Y-129540000D03*
%TO.P,J57,4,Pin_4*%
X142240000Y-129540000D03*
%TO.P,J57,5,Pin_5*%
X144780000Y-129540000D03*
%TD*%
D10*
%TO.P,J72,1,Pin_1*%
%TO.N,Net-(J72-Pad1)*%
X111760000Y-147320000D03*
D11*
%TO.P,J72,2,Pin_2*%
X114300000Y-147320000D03*
%TO.P,J72,3,Pin_3*%
X116840000Y-147320000D03*
%TO.P,J72,4,Pin_4*%
X119380000Y-147320000D03*
%TO.P,J72,5,Pin_5*%
X121920000Y-147320000D03*
%TO.P,J72,6,Pin_6*%
X124460000Y-147320000D03*
%TO.P,J72,7,Pin_7*%
X127000000Y-147320000D03*
%TO.P,J72,8,Pin_8*%
X129540000Y-147320000D03*
%TO.P,J72,9,Pin_9*%
X132080000Y-147320000D03*
%TO.P,J72,10,Pin_10*%
X134620000Y-147320000D03*
%TO.P,J72,11,Pin_11*%
X137160000Y-147320000D03*
%TO.P,J72,12,Pin_12*%
X139700000Y-147320000D03*
%TO.P,J72,13,Pin_13*%
X142240000Y-147320000D03*
%TO.P,J72,14,Pin_14*%
X144780000Y-147320000D03*
%TO.P,J72,15,Pin_15*%
X147320000Y-147320000D03*
%TO.P,J72,16,Pin_16*%
X149860000Y-147320000D03*
%TD*%
D10*
%TO.P,J50,1,Pin_1*%
%TO.N,Net-(J50-Pad1)*%
X116840000Y-78740000D03*
D11*
%TO.P,J50,2,Pin_2*%
X119380000Y-78740000D03*
%TO.P,J50,3,Pin_3*%
X121920000Y-78740000D03*
%TO.P,J50,4,Pin_4*%
X124460000Y-78740000D03*
%TO.P,J50,5,Pin_5*%
X127000000Y-78740000D03*
%TD*%
D10*
%TO.P,J16,1,Pin_1*%
%TO.N,Net-(J16-Pad1)*%
X134620000Y-111760000D03*
D11*
%TO.P,J16,2,Pin_2*%
X137160000Y-111760000D03*
%TO.P,J16,3,Pin_3*%
X139700000Y-111760000D03*
%TO.P,J16,4,Pin_4*%
X142240000Y-111760000D03*
%TO.P,J16,5,Pin_5*%
X144780000Y-111760000D03*
%TD*%
D10*
%TO.P,J69,1,Pin_1*%
%TO.N,Net-(J69-Pad1)*%
X109220000Y-60960000D03*
D11*
%TO.P,J69,2,Pin_2*%
X111760000Y-60960000D03*
%TO.P,J69,3,Pin_3*%
X114300000Y-60960000D03*
%TO.P,J69,4,Pin_4*%
X116840000Y-60960000D03*
%TO.P,J69,5,Pin_5*%
X119380000Y-60960000D03*
%TO.P,J69,6,Pin_6*%
X121920000Y-60960000D03*
%TO.P,J69,7,Pin_7*%
X124460000Y-60960000D03*
%TO.P,J69,8,Pin_8*%
X127000000Y-60960000D03*
%TO.P,J69,9,Pin_9*%
X129540000Y-60960000D03*
%TO.P,J69,10,Pin_10*%
X132080000Y-60960000D03*
%TO.P,J69,11,Pin_11*%
X134620000Y-60960000D03*
%TO.P,J69,12,Pin_12*%
X137160000Y-60960000D03*
%TO.P,J69,13,Pin_13*%
X139700000Y-60960000D03*
%TO.P,J69,14,Pin_14*%
X142240000Y-60960000D03*
%TO.P,J69,15,Pin_15*%
X144780000Y-60960000D03*
%TO.P,J69,16,Pin_16*%
X147320000Y-60960000D03*
%TO.P,J69,17,Pin_17*%
X149860000Y-60960000D03*
%TO.P,J69,18,Pin_18*%
X152400000Y-60960000D03*
%TD*%
D10*
%TO.P,J67,1,Pin_1*%
%TO.N,Net-(J67-Pad1)*%
X152400000Y-63500000D03*
D11*
%TO.P,J67,2,Pin_2*%
X152400000Y-66040000D03*
%TO.P,J67,3,Pin_3*%
X152400000Y-68580000D03*
%TO.P,J67,4,Pin_4*%
X152400000Y-71120000D03*
%TO.P,J67,5,Pin_5*%
X152400000Y-73660000D03*
%TO.P,J67,6,Pin_6*%
X152400000Y-76200000D03*
%TO.P,J67,7,Pin_7*%
X152400000Y-78740000D03*
%TO.P,J67,8,Pin_8*%
X152400000Y-81280000D03*
%TO.P,J67,9,Pin_9*%
X152400000Y-83820000D03*
%TO.P,J67,10,Pin_10*%
X152400000Y-86360000D03*
%TO.P,J67,11,Pin_11*%
X152400000Y-88900000D03*
%TO.P,J67,12,Pin_12*%
X152400000Y-91440000D03*
%TO.P,J67,13,Pin_13*%
X152400000Y-93980000D03*
%TO.P,J67,14,Pin_14*%
X152400000Y-96520000D03*
%TO.P,J67,15,Pin_15*%
X152400000Y-99060000D03*
%TO.P,J67,16,Pin_16*%
X152400000Y-101600000D03*
%TO.P,J67,17,Pin_17*%
X152400000Y-104140000D03*
%TO.P,J67,18,Pin_18*%
X152400000Y-106680000D03*
%TO.P,J67,19,Pin_19*%
X152400000Y-109220000D03*
%TO.P,J67,20,Pin_20*%
X152400000Y-111760000D03*
%TO.P,J67,21,Pin_21*%
X152400000Y-114300000D03*
%TO.P,J67,22,Pin_22*%
X152400000Y-116840000D03*
%TO.P,J67,23,Pin_23*%
X152400000Y-119380000D03*
%TO.P,J67,24,Pin_24*%
X152400000Y-121920000D03*
%TO.P,J67,25,Pin_25*%
X152400000Y-124460000D03*
%TO.P,J67,26,Pin_26*%
X152400000Y-127000000D03*
%TO.P,J67,27,Pin_27*%
X152400000Y-129540000D03*
%TO.P,J67,28,Pin_28*%
X152400000Y-132080000D03*
%TO.P,J67,29,Pin_29*%
X152400000Y-134620000D03*
%TO.P,J67,30,Pin_30*%
X152400000Y-137160000D03*
%TO.P,J67,31,Pin_31*%
X152400000Y-139700000D03*
%TO.P,J67,32,Pin_32*%
X152400000Y-142240000D03*
%TO.P,J67,33,Pin_33*%
X152400000Y-144780000D03*
%TO.P,J67,34,Pin_34*%
X152400000Y-147320000D03*
%TD*%
D10*
%TO.P,J71,1,Pin_1*%
%TO.N,Net-(J71-Pad1)*%
X111760000Y-63500000D03*
D11*
%TO.P,J71,2,Pin_2*%
X114300000Y-63500000D03*
%TO.P,J71,3,Pin_3*%
X116840000Y-63500000D03*
%TO.P,J71,4,Pin_4*%
X119380000Y-63500000D03*
%TO.P,J71,5,Pin_5*%
X121920000Y-63500000D03*
%TO.P,J71,6,Pin_6*%
X124460000Y-63500000D03*
%TO.P,J71,7,Pin_7*%
X127000000Y-63500000D03*
%TO.P,J71,8,Pin_8*%
X129540000Y-63500000D03*
%TO.P,J71,9,Pin_9*%
X132080000Y-63500000D03*
%TO.P,J71,10,Pin_10*%
X134620000Y-63500000D03*
%TO.P,J71,11,Pin_11*%
X137160000Y-63500000D03*
%TO.P,J71,12,Pin_12*%
X139700000Y-63500000D03*
%TO.P,J71,13,Pin_13*%
X142240000Y-63500000D03*
%TO.P,J71,14,Pin_14*%
X144780000Y-63500000D03*
%TO.P,J71,15,Pin_15*%
X147320000Y-63500000D03*
%TO.P,J71,16,Pin_16*%
X149860000Y-63500000D03*
%TD*%
D10*
%TO.P,J10,1,Pin_1*%
%TO.N,Net-(J10-Pad1)*%
X134620000Y-101600000D03*
D11*
%TO.P,J10,2,Pin_2*%
X137160000Y-101600000D03*
%TO.P,J10,3,Pin_3*%
X139700000Y-101600000D03*
%TO.P,J10,4,Pin_4*%
X142240000Y-101600000D03*
%TO.P,J10,5,Pin_5*%
X144780000Y-101600000D03*
%TD*%
D10*
%TO.P,J17,1,Pin_1*%
%TO.N,Net-(J17-Pad1)*%
X116840000Y-93980000D03*
D11*
%TO.P,J17,2,Pin_2*%
X119380000Y-93980000D03*
%TO.P,J17,3,Pin_3*%
X121920000Y-93980000D03*
%TO.P,J17,4,Pin_4*%
X124460000Y-93980000D03*
%TO.P,J17,5,Pin_5*%
X127000000Y-93980000D03*
%TD*%
D10*
%TO.P,J56,1,Pin_1*%
%TO.N,Net-(J56-Pad1)*%
X134620000Y-137160000D03*
D11*
%TO.P,J56,2,Pin_2*%
X137160000Y-137160000D03*
%TO.P,J56,3,Pin_3*%
X139700000Y-137160000D03*
%TO.P,J56,4,Pin_4*%
X142240000Y-137160000D03*
%TO.P,J56,5,Pin_5*%
X144780000Y-137160000D03*
%TD*%
D10*
%TO.P,J41,1,Pin_1*%
%TO.N,Net-(J41-Pad1)*%
X116840000Y-142240000D03*
D11*
%TO.P,J41,2,Pin_2*%
X119380000Y-142240000D03*
%TO.P,J41,3,Pin_3*%
X121920000Y-142240000D03*
%TO.P,J41,4,Pin_4*%
X124460000Y-142240000D03*
%TO.P,J41,5,Pin_5*%
X127000000Y-142240000D03*
%TD*%
D10*
%TO.P,J43,1,Pin_1*%
%TO.N,Net-(J43-Pad1)*%
X134620000Y-119380000D03*
D11*
%TO.P,J43,2,Pin_2*%
X137160000Y-119380000D03*
%TO.P,J43,3,Pin_3*%
X139700000Y-119380000D03*
%TO.P,J43,4,Pin_4*%
X142240000Y-119380000D03*
%TO.P,J43,5,Pin_5*%
X144780000Y-119380000D03*
%TD*%
D10*
%TO.P,J21,1,Pin_1*%
%TO.N,Net-(J21-Pad1)*%
X116840000Y-106680000D03*
D11*
%TO.P,J21,2,Pin_2*%
X119380000Y-106680000D03*
%TO.P,J21,3,Pin_3*%
X121920000Y-106680000D03*
%TO.P,J21,4,Pin_4*%
X124460000Y-106680000D03*
%TO.P,J21,5,Pin_5*%
X127000000Y-106680000D03*
%TD*%
D10*
%TO.P,J75,1,Pin_1*%
%TO.N,Net-(J75-Pad1)*%
X115570000Y-154940000D03*
D11*
%TO.P,J75,2,Pin_2*%
X115570000Y-152400000D03*
%TO.P,J75,3,Pin_3*%
%TO.N,Net-(J75-Pad3)*%
X118110000Y-154940000D03*
%TO.P,J75,4,Pin_4*%
X118110000Y-152400000D03*
%TO.P,J75,5,Pin_5*%
%TO.N,Net-(J75-Pad5)*%
X120650000Y-154940000D03*
%TO.P,J75,6,Pin_6*%
X120650000Y-152400000D03*
%TO.P,J75,7,Pin_7*%
%TO.N,Net-(J75-Pad7)*%
X123190000Y-154940000D03*
%TO.P,J75,8,Pin_8*%
X123190000Y-152400000D03*
%TO.P,J75,9,Pin_9*%
%TO.N,Net-(J75-Pad9)*%
X125730000Y-154940000D03*
%TO.P,J75,10,Pin_10*%
X125730000Y-152400000D03*
%TO.P,J75,11,Pin_11*%
%TO.N,Net-(J75-Pad11)*%
X128270000Y-154940000D03*
%TO.P,J75,12,Pin_12*%
X128270000Y-152400000D03*
%TO.P,J75,13,Pin_13*%
%TO.N,Net-(J75-Pad13)*%
X130810000Y-154940000D03*
%TO.P,J75,14,Pin_14*%
X130810000Y-152400000D03*
%TO.P,J75,15,Pin_15*%
%TO.N,Net-(J75-Pad15)*%
X133350000Y-154940000D03*
%TO.P,J75,16,Pin_16*%
X133350000Y-152400000D03*
%TO.P,J75,17,Pin_17*%
%TO.N,Net-(J75-Pad17)*%
X135890000Y-154940000D03*
%TO.P,J75,18,Pin_18*%
X135890000Y-152400000D03*
%TO.P,J75,19,Pin_19*%
%TO.N,Net-(J75-Pad19)*%
X138430000Y-154940000D03*
%TO.P,J75,20,Pin_20*%
X138430000Y-152400000D03*
%TO.P,J75,21,Pin_21*%
%TO.N,Net-(J75-Pad21)*%
X140970000Y-154940000D03*
%TO.P,J75,22,Pin_22*%
X140970000Y-152400000D03*
%TO.P,J75,23,Pin_23*%
%TO.N,Net-(J75-Pad23)*%
X143510000Y-154940000D03*
%TO.P,J75,24,Pin_24*%
X143510000Y-152400000D03*
%TO.P,J75,25,Pin_25*%
%TO.N,Net-(J75-Pad25)*%
X146050000Y-154940000D03*
%TO.P,J75,26,Pin_26*%
X146050000Y-152400000D03*
%TD*%
D10*
%TO.P,J39,1,Pin_1*%
%TO.N,Net-(J39-Pad1)*%
X116840000Y-81280000D03*
D11*
%TO.P,J39,2,Pin_2*%
X119380000Y-81280000D03*
%TO.P,J39,3,Pin_3*%
X121920000Y-81280000D03*
%TO.P,J39,4,Pin_4*%
X124460000Y-81280000D03*
%TO.P,J39,5,Pin_5*%
X127000000Y-81280000D03*
%TD*%
D10*
%TO.P,J44,1,Pin_1*%
%TO.N,Net-(J44-Pad1)*%
X116840000Y-139700000D03*
D11*
%TO.P,J44,2,Pin_2*%
X119380000Y-139700000D03*
%TO.P,J44,3,Pin_3*%
X121920000Y-139700000D03*
%TO.P,J44,4,Pin_4*%
X124460000Y-139700000D03*
%TO.P,J44,5,Pin_5*%
X127000000Y-139700000D03*
%TD*%
D10*
%TO.P,J19,1,Pin_1*%
%TO.N,Net-(J19-Pad1)*%
X116840000Y-134620000D03*
D11*
%TO.P,J19,2,Pin_2*%
X119380000Y-134620000D03*
%TO.P,J19,3,Pin_3*%
X121920000Y-134620000D03*
%TO.P,J19,4,Pin_4*%
X124460000Y-134620000D03*
%TO.P,J19,5,Pin_5*%
X127000000Y-134620000D03*
%TD*%
D10*
%TO.P,J40,1,Pin_1*%
%TO.N,Net-(J40-Pad1)*%
X134620000Y-88900000D03*
D11*
%TO.P,J40,2,Pin_2*%
X137160000Y-88900000D03*
%TO.P,J40,3,Pin_3*%
X139700000Y-88900000D03*
%TO.P,J40,4,Pin_4*%
X142240000Y-88900000D03*
%TO.P,J40,5,Pin_5*%
X144780000Y-88900000D03*
%TD*%
D10*
%TO.P,J1,1,Pin_1*%
%TO.N,Net-(J1-Pad1)*%
X116840000Y-116840000D03*
D11*
%TO.P,J1,2,Pin_2*%
X119380000Y-116840000D03*
%TO.P,J1,3,Pin_3*%
X121920000Y-116840000D03*
%TO.P,J1,4,Pin_4*%
X124460000Y-116840000D03*
%TO.P,J1,5,Pin_5*%
X127000000Y-116840000D03*
%TD*%
D10*
%TO.P,J70,1,Pin_1*%
%TO.N,Net-(J70-Pad1)*%
X109220000Y-149860000D03*
D11*
%TO.P,J70,2,Pin_2*%
X111760000Y-149860000D03*
%TO.P,J70,3,Pin_3*%
X114300000Y-149860000D03*
%TO.P,J70,4,Pin_4*%
X116840000Y-149860000D03*
%TO.P,J70,5,Pin_5*%
X119380000Y-149860000D03*
%TO.P,J70,6,Pin_6*%
X121920000Y-149860000D03*
%TO.P,J70,7,Pin_7*%
X124460000Y-149860000D03*
%TO.P,J70,8,Pin_8*%
X127000000Y-149860000D03*
%TO.P,J70,9,Pin_9*%
X129540000Y-149860000D03*
%TO.P,J70,10,Pin_10*%
X132080000Y-149860000D03*
%TO.P,J70,11,Pin_11*%
X134620000Y-149860000D03*
%TO.P,J70,12,Pin_12*%
X137160000Y-149860000D03*
%TO.P,J70,13,Pin_13*%
X139700000Y-149860000D03*
%TO.P,J70,14,Pin_14*%
X142240000Y-149860000D03*
%TO.P,J70,15,Pin_15*%
X144780000Y-149860000D03*
%TO.P,J70,16,Pin_16*%
X147320000Y-149860000D03*
%TO.P,J70,17,Pin_17*%
X149860000Y-149860000D03*
%TO.P,J70,18,Pin_18*%
X152400000Y-149860000D03*
%TD*%
D10*
%TO.P,J28,1,Pin_1*%
%TO.N,Net-(J28-Pad1)*%
X116840000Y-137160000D03*
D11*
%TO.P,J28,2,Pin_2*%
X119380000Y-137160000D03*
%TO.P,J28,3,Pin_3*%
X121920000Y-137160000D03*
%TO.P,J28,4,Pin_4*%
X124460000Y-137160000D03*
%TO.P,J28,5,Pin_5*%
X127000000Y-137160000D03*
%TD*%
D10*
%TO.P,J46,1,Pin_1*%
%TO.N,Net-(J46-Pad1)*%
X116840000Y-86360000D03*
D11*
%TO.P,J46,2,Pin_2*%
X119380000Y-86360000D03*
%TO.P,J46,3,Pin_3*%
X121920000Y-86360000D03*
%TO.P,J46,4,Pin_4*%
X124460000Y-86360000D03*
%TO.P,J46,5,Pin_5*%
X127000000Y-86360000D03*
%TD*%
D10*
%TO.P,J61,1,Pin_1*%
%TO.N,Net-(J61-Pad1)*%
X114300000Y-68580000D03*
D11*
%TO.P,J61,2,Pin_2*%
X114300000Y-71120000D03*
%TO.P,J61,3,Pin_3*%
X114300000Y-73660000D03*
%TO.P,J61,4,Pin_4*%
X114300000Y-76200000D03*
%TO.P,J61,5,Pin_5*%
X114300000Y-78740000D03*
%TO.P,J61,6,Pin_6*%
X114300000Y-81280000D03*
%TO.P,J61,7,Pin_7*%
X114300000Y-83820000D03*
%TO.P,J61,8,Pin_8*%
X114300000Y-86360000D03*
%TO.P,J61,9,Pin_9*%
X114300000Y-88900000D03*
%TO.P,J61,10,Pin_10*%
X114300000Y-91440000D03*
%TO.P,J61,11,Pin_11*%
X114300000Y-93980000D03*
%TO.P,J61,12,Pin_12*%
X114300000Y-96520000D03*
%TO.P,J61,13,Pin_13*%
X114300000Y-99060000D03*
%TO.P,J61,14,Pin_14*%
X114300000Y-101600000D03*
%TO.P,J61,15,Pin_15*%
X114300000Y-104140000D03*
%TO.P,J61,16,Pin_16*%
X114300000Y-106680000D03*
%TO.P,J61,17,Pin_17*%
X114300000Y-109220000D03*
%TO.P,J61,18,Pin_18*%
X114300000Y-111760000D03*
%TO.P,J61,19,Pin_19*%
X114300000Y-114300000D03*
%TO.P,J61,20,Pin_20*%
X114300000Y-116840000D03*
%TO.P,J61,21,Pin_21*%
X114300000Y-119380000D03*
%TO.P,J61,22,Pin_22*%
X114300000Y-121920000D03*
%TO.P,J61,23,Pin_23*%
X114300000Y-124460000D03*
%TO.P,J61,24,Pin_24*%
X114300000Y-127000000D03*
%TO.P,J61,25,Pin_25*%
X114300000Y-129540000D03*
%TO.P,J61,26,Pin_26*%
X114300000Y-132080000D03*
%TO.P,J61,27,Pin_27*%
X114300000Y-134620000D03*
%TO.P,J61,28,Pin_28*%
X114300000Y-137160000D03*
%TO.P,J61,29,Pin_29*%
X114300000Y-139700000D03*
%TO.P,J61,30,Pin_30*%
X114300000Y-142240000D03*
%TD*%
D10*
%TO.P,J3,1,Pin_1*%
%TO.N,Net-(J3-Pad1)*%
X134620000Y-93980000D03*
D11*
%TO.P,J3,2,Pin_2*%
X137160000Y-93980000D03*
%TO.P,J3,3,Pin_3*%
X139700000Y-93980000D03*
%TO.P,J3,4,Pin_4*%
X142240000Y-93980000D03*
%TO.P,J3,5,Pin_5*%
X144780000Y-93980000D03*
%TD*%
D10*
%TO.P,J36,1,Pin_1*%
%TO.N,Net-(J36-Pad1)*%
X116840000Y-71120000D03*
D11*
%TO.P,J36,2,Pin_2*%
X119380000Y-71120000D03*
%TO.P,J36,3,Pin_3*%
X121920000Y-71120000D03*
%TO.P,J36,4,Pin_4*%
X124460000Y-71120000D03*
%TO.P,J36,5,Pin_5*%
X127000000Y-71120000D03*
%TD*%
D10*
%TO.P,J58,1,Pin_1*%
%TO.N,Net-(J58-Pad1)*%
X116840000Y-88900000D03*
D11*
%TO.P,J58,2,Pin_2*%
X119380000Y-88900000D03*
%TO.P,J58,3,Pin_3*%
X121920000Y-88900000D03*
%TO.P,J58,4,Pin_4*%
X124460000Y-88900000D03*
%TO.P,J58,5,Pin_5*%
X127000000Y-88900000D03*
%TD*%
D10*
%TO.P,J30,1,Pin_1*%
%TO.N,Net-(J30-Pad1)*%
X134620000Y-76200000D03*
D11*
%TO.P,J30,2,Pin_2*%
X137160000Y-76200000D03*
%TO.P,J30,3,Pin_3*%
X139700000Y-76200000D03*
%TO.P,J30,4,Pin_4*%
X142240000Y-76200000D03*
%TO.P,J30,5,Pin_5*%
X144780000Y-76200000D03*
%TD*%
D10*
%TO.P,J73,1,Pin_1*%
%TO.N,Net-(J73-Pad1)*%
X114300000Y-66040000D03*
D11*
%TO.P,J73,2,Pin_2*%
X116840000Y-66040000D03*
%TO.P,J73,3,Pin_3*%
X119380000Y-66040000D03*
%TO.P,J73,4,Pin_4*%
X121920000Y-66040000D03*
%TO.P,J73,5,Pin_5*%
X124460000Y-66040000D03*
%TO.P,J73,6,Pin_6*%
X127000000Y-66040000D03*
%TO.P,J73,7,Pin_7*%
X129540000Y-66040000D03*
%TO.P,J73,8,Pin_8*%
X132080000Y-66040000D03*
%TO.P,J73,9,Pin_9*%
X134620000Y-66040000D03*
%TO.P,J73,10,Pin_10*%
X137160000Y-66040000D03*
%TO.P,J73,11,Pin_11*%
X139700000Y-66040000D03*
%TO.P,J73,12,Pin_12*%
X142240000Y-66040000D03*
%TO.P,J73,13,Pin_13*%
X144780000Y-66040000D03*
%TO.P,J73,14,Pin_14*%
X147320000Y-66040000D03*
%TD*%
D10*
%TO.P,J55,1,Pin_1*%
%TO.N,Net-(J55-Pad1)*%
X116840000Y-68580000D03*
D11*
%TO.P,J55,2,Pin_2*%
X119380000Y-68580000D03*
%TO.P,J55,3,Pin_3*%
X121920000Y-68580000D03*
%TO.P,J55,4,Pin_4*%
X124460000Y-68580000D03*
%TO.P,J55,5,Pin_5*%
X127000000Y-68580000D03*
%TD*%
D10*
%TO.P,J38,1,Pin_1*%
%TO.N,Net-(J38-Pad1)*%
X116840000Y-121920000D03*
D11*
%TO.P,J38,2,Pin_2*%
X119380000Y-121920000D03*
%TO.P,J38,3,Pin_3*%
X121920000Y-121920000D03*
%TO.P,J38,4,Pin_4*%
X124460000Y-121920000D03*
%TO.P,J38,5,Pin_5*%
X127000000Y-121920000D03*
%TD*%
D10*
%TO.P,J33,1,Pin_1*%
%TO.N,Net-(J33-Pad1)*%
X134620000Y-73660000D03*
D11*
%TO.P,J33,2,Pin_2*%
X137160000Y-73660000D03*
%TO.P,J33,3,Pin_3*%
X139700000Y-73660000D03*
%TO.P,J33,4,Pin_4*%
X142240000Y-73660000D03*
%TO.P,J33,5,Pin_5*%
X144780000Y-73660000D03*
%TD*%
D10*
%TO.P,J35,1,Pin_1*%
%TO.N,Net-(J35-Pad1)*%
X134620000Y-86360000D03*
D11*
%TO.P,J35,2,Pin_2*%
X137160000Y-86360000D03*
%TO.P,J35,3,Pin_3*%
X139700000Y-86360000D03*
%TO.P,J35,4,Pin_4*%
X142240000Y-86360000D03*
%TO.P,J35,5,Pin_5*%
X144780000Y-86360000D03*
%TD*%
D10*
%TO.P,J12,1,Pin_1*%
%TO.N,Net-(J12-Pad1)*%
X134620000Y-127000000D03*
D11*
%TO.P,J12,2,Pin_2*%
X137160000Y-127000000D03*
%TO.P,J12,3,Pin_3*%
X139700000Y-127000000D03*
%TO.P,J12,4,Pin_4*%
X142240000Y-127000000D03*
%TO.P,J12,5,Pin_5*%
X144780000Y-127000000D03*
%TD*%
D10*
%TO.P,J13,1,Pin_1*%
%TO.N,Net-(J13-Pad1)*%
X116840000Y-129540000D03*
D11*
%TO.P,J13,2,Pin_2*%
X119380000Y-129540000D03*
%TO.P,J13,3,Pin_3*%
X121920000Y-129540000D03*
%TO.P,J13,4,Pin_4*%
X124460000Y-129540000D03*
%TO.P,J13,5,Pin_5*%
X127000000Y-129540000D03*
%TD*%
D10*
%TO.P,J18,1,Pin_1*%
%TO.N,Net-(J18-Pad1)*%
X116840000Y-76200000D03*
D11*
%TO.P,J18,2,Pin_2*%
X119380000Y-76200000D03*
%TO.P,J18,3,Pin_3*%
X121920000Y-76200000D03*
%TO.P,J18,4,Pin_4*%
X124460000Y-76200000D03*
%TO.P,J18,5,Pin_5*%
X127000000Y-76200000D03*
%TD*%
D10*
%TO.P,J7,1,Pin_1*%
%TO.N,Net-(J7-Pad1)*%
X134620000Y-116840000D03*
D11*
%TO.P,J7,2,Pin_2*%
X137160000Y-116840000D03*
%TO.P,J7,3,Pin_3*%
X139700000Y-116840000D03*
%TO.P,J7,4,Pin_4*%
X142240000Y-116840000D03*
%TO.P,J7,5,Pin_5*%
X144780000Y-116840000D03*
%TD*%
D10*
%TO.P,J31,1,Pin_1*%
%TO.N,Net-(J31-Pad1)*%
X134620000Y-114300000D03*
D11*
%TO.P,J31,2,Pin_2*%
X137160000Y-114300000D03*
%TO.P,J31,3,Pin_3*%
X139700000Y-114300000D03*
%TO.P,J31,4,Pin_4*%
X142240000Y-114300000D03*
%TO.P,J31,5,Pin_5*%
X144780000Y-114300000D03*
%TD*%
D10*
%TO.P,J51,1,Pin_1*%
%TO.N,Net-(J51-Pad1)*%
X134620000Y-68580000D03*
D11*
%TO.P,J51,2,Pin_2*%
X137160000Y-68580000D03*
%TO.P,J51,3,Pin_3*%
X139700000Y-68580000D03*
%TO.P,J51,4,Pin_4*%
X142240000Y-68580000D03*
%TO.P,J51,5,Pin_5*%
X144780000Y-68580000D03*
%TD*%
D10*
%TO.P,J52,1,Pin_1*%
%TO.N,Net-(J52-Pad1)*%
X134620000Y-109220000D03*
D11*
%TO.P,J52,2,Pin_2*%
X137160000Y-109220000D03*
%TO.P,J52,3,Pin_3*%
X139700000Y-109220000D03*
%TO.P,J52,4,Pin_4*%
X142240000Y-109220000D03*
%TO.P,J52,5,Pin_5*%
X144780000Y-109220000D03*
%TD*%
D10*
%TO.P,J24,1,Pin_1*%
%TO.N,Net-(J24-Pad1)*%
X116840000Y-124460000D03*
D11*
%TO.P,J24,2,Pin_2*%
X119380000Y-124460000D03*
%TO.P,J24,3,Pin_3*%
X121920000Y-124460000D03*
%TO.P,J24,4,Pin_4*%
X124460000Y-124460000D03*
%TO.P,J24,5,Pin_5*%
X127000000Y-124460000D03*
%TD*%
D10*
%TO.P,J37,1,Pin_1*%
%TO.N,Net-(J37-Pad1)*%
X134620000Y-81280000D03*
D11*
%TO.P,J37,2,Pin_2*%
X137160000Y-81280000D03*
%TO.P,J37,3,Pin_3*%
X139700000Y-81280000D03*
%TO.P,J37,4,Pin_4*%
X142240000Y-81280000D03*
%TO.P,J37,5,Pin_5*%
X144780000Y-81280000D03*
%TD*%
D10*
%TO.P,J66,1,Pin_1*%
%TO.N,Net-(J66-Pad1)*%
X111760000Y-66040000D03*
D11*
%TO.P,J66,2,Pin_2*%
X111760000Y-68580000D03*
%TO.P,J66,3,Pin_3*%
X111760000Y-71120000D03*
%TO.P,J66,4,Pin_4*%
X111760000Y-73660000D03*
%TO.P,J66,5,Pin_5*%
X111760000Y-76200000D03*
%TO.P,J66,6,Pin_6*%
X111760000Y-78740000D03*
%TO.P,J66,7,Pin_7*%
X111760000Y-81280000D03*
%TO.P,J66,8,Pin_8*%
X111760000Y-83820000D03*
%TO.P,J66,9,Pin_9*%
X111760000Y-86360000D03*
%TO.P,J66,10,Pin_10*%
X111760000Y-88900000D03*
%TO.P,J66,11,Pin_11*%
X111760000Y-91440000D03*
%TO.P,J66,12,Pin_12*%
X111760000Y-93980000D03*
%TO.P,J66,13,Pin_13*%
X111760000Y-96520000D03*
%TO.P,J66,14,Pin_14*%
X111760000Y-99060000D03*
%TO.P,J66,15,Pin_15*%
X111760000Y-101600000D03*
%TO.P,J66,16,Pin_16*%
X111760000Y-104140000D03*
%TO.P,J66,17,Pin_17*%
X111760000Y-106680000D03*
%TO.P,J66,18,Pin_18*%
X111760000Y-109220000D03*
%TO.P,J66,19,Pin_19*%
X111760000Y-111760000D03*
%TO.P,J66,20,Pin_20*%
X111760000Y-114300000D03*
%TO.P,J66,21,Pin_21*%
X111760000Y-116840000D03*
%TO.P,J66,22,Pin_22*%
X111760000Y-119380000D03*
%TO.P,J66,23,Pin_23*%
X111760000Y-121920000D03*
%TO.P,J66,24,Pin_24*%
X111760000Y-124460000D03*
%TO.P,J66,25,Pin_25*%
X111760000Y-127000000D03*
%TO.P,J66,26,Pin_26*%
X111760000Y-129540000D03*
%TO.P,J66,27,Pin_27*%
X111760000Y-132080000D03*
%TO.P,J66,28,Pin_28*%
X111760000Y-134620000D03*
%TO.P,J66,29,Pin_29*%
X111760000Y-137160000D03*
%TO.P,J66,30,Pin_30*%
X111760000Y-139700000D03*
%TO.P,J66,31,Pin_31*%
X111760000Y-142240000D03*
%TO.P,J66,32,Pin_32*%
X111760000Y-144780000D03*
%TD*%
D10*
%TO.P,J63,1,Pin_1*%
%TO.N,Net-(J63-Pad1)*%
X129540000Y-68580000D03*
D11*
%TO.P,J63,2,Pin_2*%
X129540000Y-71120000D03*
%TO.P,J63,3,Pin_3*%
X129540000Y-73660000D03*
%TO.P,J63,4,Pin_4*%
X129540000Y-76200000D03*
%TO.P,J63,5,Pin_5*%
X129540000Y-78740000D03*
%TO.P,J63,6,Pin_6*%
X129540000Y-81280000D03*
%TO.P,J63,7,Pin_7*%
X129540000Y-83820000D03*
%TO.P,J63,8,Pin_8*%
X129540000Y-86360000D03*
%TO.P,J63,9,Pin_9*%
X129540000Y-88900000D03*
%TO.P,J63,10,Pin_10*%
X129540000Y-91440000D03*
%TO.P,J63,11,Pin_11*%
X129540000Y-93980000D03*
%TO.P,J63,12,Pin_12*%
X129540000Y-96520000D03*
%TO.P,J63,13,Pin_13*%
X129540000Y-99060000D03*
%TO.P,J63,14,Pin_14*%
X129540000Y-101600000D03*
%TO.P,J63,15,Pin_15*%
X129540000Y-104140000D03*
%TO.P,J63,16,Pin_16*%
X129540000Y-106680000D03*
%TO.P,J63,17,Pin_17*%
X129540000Y-109220000D03*
%TO.P,J63,18,Pin_18*%
X129540000Y-111760000D03*
%TO.P,J63,19,Pin_19*%
X129540000Y-114300000D03*
%TO.P,J63,20,Pin_20*%
X129540000Y-116840000D03*
%TO.P,J63,21,Pin_21*%
X129540000Y-119380000D03*
%TO.P,J63,22,Pin_22*%
X129540000Y-121920000D03*
%TO.P,J63,23,Pin_23*%
X129540000Y-124460000D03*
%TO.P,J63,24,Pin_24*%
X129540000Y-127000000D03*
%TO.P,J63,25,Pin_25*%
X129540000Y-129540000D03*
%TO.P,J63,26,Pin_26*%
X129540000Y-132080000D03*
%TO.P,J63,27,Pin_27*%
X129540000Y-134620000D03*
%TO.P,J63,28,Pin_28*%
X129540000Y-137160000D03*
%TO.P,J63,29,Pin_29*%
X129540000Y-139700000D03*
%TO.P,J63,30,Pin_30*%
X129540000Y-142240000D03*
%TD*%
D10*
%TO.P,J11,1,Pin_1*%
%TO.N,Net-(J11-Pad1)*%
X134620000Y-134620000D03*
D11*
%TO.P,J11,2,Pin_2*%
X137160000Y-134620000D03*
%TO.P,J11,3,Pin_3*%
X139700000Y-134620000D03*
%TO.P,J11,4,Pin_4*%
X142240000Y-134620000D03*
%TO.P,J11,5,Pin_5*%
X144780000Y-134620000D03*
%TD*%
D10*
%TO.P,J4,1,Pin_1*%
%TO.N,Net-(J4-Pad1)*%
X116840000Y-99060000D03*
D11*
%TO.P,J4,2,Pin_2*%
X119380000Y-99060000D03*
%TO.P,J4,3,Pin_3*%
X121920000Y-99060000D03*
%TO.P,J4,4,Pin_4*%
X124460000Y-99060000D03*
%TO.P,J4,5,Pin_5*%
X127000000Y-99060000D03*
%TD*%
D10*
%TO.P,J65,1,Pin_1*%
%TO.N,Net-(J65-Pad1)*%
X149860000Y-66040000D03*
D11*
%TO.P,J65,2,Pin_2*%
X149860000Y-68580000D03*
%TO.P,J65,3,Pin_3*%
X149860000Y-71120000D03*
%TO.P,J65,4,Pin_4*%
X149860000Y-73660000D03*
%TO.P,J65,5,Pin_5*%
X149860000Y-76200000D03*
%TO.P,J65,6,Pin_6*%
X149860000Y-78740000D03*
%TO.P,J65,7,Pin_7*%
X149860000Y-81280000D03*
%TO.P,J65,8,Pin_8*%
X149860000Y-83820000D03*
%TO.P,J65,9,Pin_9*%
X149860000Y-86360000D03*
%TO.P,J65,10,Pin_10*%
X149860000Y-88900000D03*
%TO.P,J65,11,Pin_11*%
X149860000Y-91440000D03*
%TO.P,J65,12,Pin_12*%
X149860000Y-93980000D03*
%TO.P,J65,13,Pin_13*%
X149860000Y-96520000D03*
%TO.P,J65,14,Pin_14*%
X149860000Y-99060000D03*
%TO.P,J65,15,Pin_15*%
X149860000Y-101600000D03*
%TO.P,J65,16,Pin_16*%
X149860000Y-104140000D03*
%TO.P,J65,17,Pin_17*%
X149860000Y-106680000D03*
%TO.P,J65,18,Pin_18*%
X149860000Y-109220000D03*
%TO.P,J65,19,Pin_19*%
X149860000Y-111760000D03*
%TO.P,J65,20,Pin_20*%
X149860000Y-114300000D03*
%TO.P,J65,21,Pin_21*%
X149860000Y-116840000D03*
%TO.P,J65,22,Pin_22*%
X149860000Y-119380000D03*
%TO.P,J65,23,Pin_23*%
X149860000Y-121920000D03*
%TO.P,J65,24,Pin_24*%
X149860000Y-124460000D03*
%TO.P,J65,25,Pin_25*%
X149860000Y-127000000D03*
%TO.P,J65,26,Pin_26*%
X149860000Y-129540000D03*
%TO.P,J65,27,Pin_27*%
X149860000Y-132080000D03*
%TO.P,J65,28,Pin_28*%
X149860000Y-134620000D03*
%TO.P,J65,29,Pin_29*%
X149860000Y-137160000D03*
%TO.P,J65,30,Pin_30*%
X149860000Y-139700000D03*
%TO.P,J65,31,Pin_31*%
X149860000Y-142240000D03*
%TO.P,J65,32,Pin_32*%
X149860000Y-144780000D03*
%TD*%
D10*
%TO.P,J14,1,Pin_1*%
%TO.N,Net-(J14-Pad1)*%
X134620000Y-132080000D03*
D11*
%TO.P,J14,2,Pin_2*%
X137160000Y-132080000D03*
%TO.P,J14,3,Pin_3*%
X139700000Y-132080000D03*
%TO.P,J14,4,Pin_4*%
X142240000Y-132080000D03*
%TO.P,J14,5,Pin_5*%
X144780000Y-132080000D03*
%TD*%
D10*
%TO.P,J15,1,Pin_1*%
%TO.N,Net-(J15-Pad1)*%
X134620000Y-139700000D03*
D11*
%TO.P,J15,2,Pin_2*%
X137160000Y-139700000D03*
%TO.P,J15,3,Pin_3*%
X139700000Y-139700000D03*
%TO.P,J15,4,Pin_4*%
X142240000Y-139700000D03*
%TO.P,J15,5,Pin_5*%
X144780000Y-139700000D03*
%TD*%
D10*
%TO.P,J54,1,Pin_1*%
%TO.N,Net-(J54-Pad1)*%
X134620000Y-96520000D03*
D11*
%TO.P,J54,2,Pin_2*%
X137160000Y-96520000D03*
%TO.P,J54,3,Pin_3*%
X139700000Y-96520000D03*
%TO.P,J54,4,Pin_4*%
X142240000Y-96520000D03*
%TO.P,J54,5,Pin_5*%
X144780000Y-96520000D03*
%TD*%
D10*
%TO.P,J76,1,Pin_1*%
%TO.N,Net-(J76-Pad1)*%
X115570000Y-58420000D03*
D11*
%TO.P,J76,2,Pin_2*%
X115570000Y-55880000D03*
%TO.P,J76,3,Pin_3*%
%TO.N,Net-(J76-Pad3)*%
X118110000Y-58420000D03*
%TO.P,J76,4,Pin_4*%
X118110000Y-55880000D03*
%TO.P,J76,5,Pin_5*%
%TO.N,Net-(J76-Pad5)*%
X120650000Y-58420000D03*
%TO.P,J76,6,Pin_6*%
X120650000Y-55880000D03*
%TO.P,J76,7,Pin_7*%
%TO.N,Net-(J76-Pad7)*%
X123190000Y-58420000D03*
%TO.P,J76,8,Pin_8*%
X123190000Y-55880000D03*
%TO.P,J76,9,Pin_9*%
%TO.N,Net-(J76-Pad10)*%
X125730000Y-58420000D03*
%TO.P,J76,10,Pin_10*%
X125730000Y-55880000D03*
%TO.P,J76,11,Pin_11*%
%TO.N,Net-(J76-Pad11)*%
X128270000Y-58420000D03*
%TO.P,J76,12,Pin_12*%
X128270000Y-55880000D03*
%TO.P,J76,13,Pin_13*%
%TO.N,Net-(J76-Pad13)*%
X130810000Y-58420000D03*
%TO.P,J76,14,Pin_14*%
X130810000Y-55880000D03*
%TO.P,J76,15,Pin_15*%
%TO.N,Net-(J76-Pad15)*%
X133350000Y-58420000D03*
%TO.P,J76,16,Pin_16*%
X133350000Y-55880000D03*
%TO.P,J76,17,Pin_17*%
%TO.N,Net-(J76-Pad17)*%
X135890000Y-58420000D03*
%TO.P,J76,18,Pin_18*%
X135890000Y-55880000D03*
%TO.P,J76,19,Pin_19*%
%TO.N,Net-(J76-Pad19)*%
X138430000Y-58420000D03*
%TO.P,J76,20,Pin_20*%
X138430000Y-55880000D03*
%TO.P,J76,21,Pin_21*%
%TO.N,Net-(J76-Pad21)*%
X140970000Y-58420000D03*
%TO.P,J76,22,Pin_22*%
X140970000Y-55880000D03*
%TO.P,J76,23,Pin_23*%
%TO.N,Net-(J76-Pad23)*%
X143510000Y-58420000D03*
%TO.P,J76,24,Pin_24*%
X143510000Y-55880000D03*
%TO.P,J76,25,Pin_25*%
%TO.N,Net-(J76-Pad25)*%
X146050000Y-58420000D03*
%TO.P,J76,26,Pin_26*%
X146050000Y-55880000D03*
%TD*%
D10*
%TO.P,J22,1,Pin_1*%
%TO.N,Net-(J22-Pad1)*%
X116840000Y-83820000D03*
D11*
%TO.P,J22,2,Pin_2*%
X119380000Y-83820000D03*
%TO.P,J22,3,Pin_3*%
X121920000Y-83820000D03*
%TO.P,J22,4,Pin_4*%
X124460000Y-83820000D03*
%TO.P,J22,5,Pin_5*%
X127000000Y-83820000D03*
%TD*%
D10*
%TO.P,J32,1,Pin_1*%
%TO.N,Net-(J32-Pad1)*%
X134620000Y-106680000D03*
D11*
%TO.P,J32,2,Pin_2*%
X137160000Y-106680000D03*
%TO.P,J32,3,Pin_3*%
X139700000Y-106680000D03*
%TO.P,J32,4,Pin_4*%
X142240000Y-106680000D03*
%TO.P,J32,5,Pin_5*%
X144780000Y-106680000D03*
%TD*%
D10*
%TO.P,J26,1,Pin_1*%
%TO.N,Net-(J26-Pad1)*%
X134620000Y-71120000D03*
D11*
%TO.P,J26,2,Pin_2*%
X137160000Y-71120000D03*
%TO.P,J26,3,Pin_3*%
X139700000Y-71120000D03*
%TO.P,J26,4,Pin_4*%
X142240000Y-71120000D03*
%TO.P,J26,5,Pin_5*%
X144780000Y-71120000D03*
%TD*%
D10*
%TO.P,J74,1,Pin_1*%
%TO.N,Net-(J74-Pad1)*%
X114300000Y-144780000D03*
D11*
%TO.P,J74,2,Pin_2*%
X116840000Y-144780000D03*
%TO.P,J74,3,Pin_3*%
X119380000Y-144780000D03*
%TO.P,J74,4,Pin_4*%
X121920000Y-144780000D03*
%TO.P,J74,5,Pin_5*%
X124460000Y-144780000D03*
%TO.P,J74,6,Pin_6*%
X127000000Y-144780000D03*
%TO.P,J74,7,Pin_7*%
X129540000Y-144780000D03*
%TO.P,J74,8,Pin_8*%
X132080000Y-144780000D03*
%TO.P,J74,9,Pin_9*%
X134620000Y-144780000D03*
%TO.P,J74,10,Pin_10*%
X137160000Y-144780000D03*
%TO.P,J74,11,Pin_11*%
X139700000Y-144780000D03*
%TO.P,J74,12,Pin_12*%
X142240000Y-144780000D03*
%TO.P,J74,13,Pin_13*%
X144780000Y-144780000D03*
%TO.P,J74,14,Pin_14*%
X147320000Y-144780000D03*
%TD*%
D10*
%TO.P,J45,1,Pin_1*%
%TO.N,Net-(J45-Pad1)*%
X116840000Y-127000000D03*
D11*
%TO.P,J45,2,Pin_2*%
X119380000Y-127000000D03*
%TO.P,J45,3,Pin_3*%
X121920000Y-127000000D03*
%TO.P,J45,4,Pin_4*%
X124460000Y-127000000D03*
%TO.P,J45,5,Pin_5*%
X127000000Y-127000000D03*
%TD*%
%TA.AperFunction,NonConductor*%
G36*
X151100018Y-52580000D02*
G01*
X151114851Y-52582310D01*
X151114855Y-52582310D01*
X151123724Y-52583691D01*
X151142436Y-52581244D01*
X151165366Y-52580353D01*
X151468503Y-52596240D01*
X151481617Y-52597618D01*
X151809898Y-52649613D01*
X151822798Y-52652355D01*
X152143846Y-52738379D01*
X152156382Y-52742453D01*
X152427468Y-52846513D01*
X152466672Y-52861562D01*
X152478720Y-52866926D01*
X152774867Y-53017820D01*
X152786288Y-53024414D01*
X153065040Y-53205437D01*
X153075710Y-53213190D01*
X153334004Y-53422352D01*
X153343805Y-53431177D01*
X153578823Y-53666195D01*
X153587648Y-53675996D01*
X153796810Y-53934290D01*
X153804563Y-53944960D01*
X153985586Y-54223712D01*
X153992180Y-54235133D01*
X154143074Y-54531280D01*
X154148438Y-54543328D01*
X154155632Y-54562069D01*
X154190313Y-54652414D01*
X154267545Y-54853610D01*
X154271620Y-54866152D01*
X154314559Y-55026403D01*
X154357645Y-55187202D01*
X154360387Y-55200102D01*
X154412382Y-55528383D01*
X154413760Y-55541500D01*
X154429262Y-55837298D01*
X154427935Y-55863273D01*
X154427691Y-55864843D01*
X154427691Y-55864849D01*
X154426309Y-55873724D01*
X154427473Y-55882626D01*
X154427473Y-55882628D01*
X154430436Y-55905283D01*
X154431500Y-55921621D01*
X154431500Y-154890633D01*
X154430000Y-154910018D01*
X154427690Y-154924851D01*
X154427690Y-154924855D01*
X154426309Y-154933724D01*
X154428136Y-154947693D01*
X154428756Y-154952433D01*
X154429647Y-154975366D01*
X154421558Y-155129715D01*
X154413760Y-155278501D01*
X154412382Y-155291617D01*
X154360387Y-155619898D01*
X154357645Y-155632798D01*
X154271621Y-155953846D01*
X154267547Y-155966382D01*
X154175223Y-156206895D01*
X154148438Y-156276672D01*
X154143074Y-156288720D01*
X153992180Y-156584867D01*
X153985586Y-156596288D01*
X153804563Y-156875040D01*
X153796810Y-156885710D01*
X153587648Y-157144004D01*
X153578823Y-157153805D01*
X153343805Y-157388823D01*
X153334004Y-157397648D01*
X153075710Y-157606810D01*
X153065040Y-157614563D01*
X152786288Y-157795586D01*
X152774867Y-157802180D01*
X152478720Y-157953074D01*
X152466671Y-157958438D01*
X152156382Y-158077547D01*
X152143846Y-158081621D01*
X151822798Y-158167645D01*
X151809898Y-158170387D01*
X151481617Y-158222382D01*
X151468501Y-158223760D01*
X151434848Y-158225524D01*
X151172702Y-158239262D01*
X151146727Y-158237935D01*
X151145157Y-158237691D01*
X151145151Y-158237691D01*
X151136276Y-158236309D01*
X151127374Y-158237473D01*
X151127372Y-158237473D01*
X151112323Y-158239441D01*
X151104714Y-158240436D01*
X151088379Y-158241500D01*
X110539367Y-158241500D01*
X110519982Y-158240000D01*
X110505149Y-158237690D01*
X110505145Y-158237690D01*
X110496276Y-158236309D01*
X110477564Y-158238756D01*
X110454634Y-158239647D01*
X110151497Y-158223760D01*
X110138383Y-158222382D01*
X109810102Y-158170387D01*
X109797202Y-158167645D01*
X109476154Y-158081621D01*
X109463618Y-158077547D01*
X109153329Y-157958438D01*
X109141280Y-157953074D01*
X108845133Y-157802180D01*
X108833712Y-157795586D01*
X108554960Y-157614563D01*
X108544290Y-157606810D01*
X108285996Y-157397648D01*
X108276195Y-157388823D01*
X108041177Y-157153805D01*
X108032352Y-157144004D01*
X107823190Y-156885710D01*
X107815437Y-156875040D01*
X107634414Y-156596288D01*
X107627820Y-156584867D01*
X107476926Y-156288720D01*
X107471562Y-156276672D01*
X107444777Y-156206895D01*
X107352453Y-155966382D01*
X107348379Y-155953846D01*
X107262355Y-155632798D01*
X107259613Y-155619898D01*
X107207618Y-155291617D01*
X107206240Y-155278501D01*
X107198442Y-155129715D01*
X107195454Y-155072703D01*
X108380743Y-155072703D01*
X108418268Y-155357734D01*
X108494129Y-155635036D01*
X108495813Y-155638984D01*
X108576068Y-155827137D01*
X108606923Y-155899476D01*
X108754561Y-156146161D01*
X108934313Y-156370528D01*
X109142851Y-156568423D01*
X109376317Y-156736186D01*
X109380112Y-156738195D01*
X109380113Y-156738196D01*
X109401869Y-156749715D01*
X109630392Y-156870712D01*
X109900373Y-156969511D01*
X110181264Y-157030755D01*
X110209841Y-157033004D01*
X110404282Y-157048307D01*
X110404291Y-157048307D01*
X110406739Y-157048500D01*
X110562271Y-157048500D01*
X110564407Y-157048354D01*
X110564418Y-157048354D01*
X110772548Y-157034165D01*
X110772554Y-157034164D01*
X110776825Y-157033873D01*
X110781020Y-157033004D01*
X110781022Y-157033004D01*
X110917584Y-157004723D01*
X111058342Y-156975574D01*
X111329343Y-156879607D01*
X111584812Y-156747750D01*
X111588313Y-156745289D01*
X111588317Y-156745287D01*
X111702417Y-156665096D01*
X111820023Y-156582441D01*
X112030622Y-156386740D01*
X112212713Y-156164268D01*
X112362927Y-155919142D01*
X112366927Y-155910031D01*
X112476757Y-155659830D01*
X112478483Y-155655898D01*
X112483742Y-155637438D01*
X112556068Y-155383534D01*
X112557244Y-155379406D01*
X112597751Y-155094784D01*
X112597845Y-155076951D01*
X112599235Y-154811583D01*
X112599235Y-154811576D01*
X112599257Y-154807297D01*
X112561732Y-154522266D01*
X112485871Y-154244964D01*
X112418242Y-154086411D01*
X112374763Y-153984476D01*
X112374761Y-153984472D01*
X112373077Y-153980524D01*
X112269704Y-153807800D01*
X112227643Y-153737521D01*
X112227640Y-153737517D01*
X112225439Y-153733839D01*
X112045687Y-153509472D01*
X111837149Y-153311577D01*
X111603683Y-153143814D01*
X111581843Y-153132250D01*
X111532788Y-153106277D01*
X111349608Y-153009288D01*
X111079627Y-152910489D01*
X110798736Y-152849245D01*
X110767685Y-152846801D01*
X110575718Y-152831693D01*
X110575709Y-152831693D01*
X110573261Y-152831500D01*
X110417729Y-152831500D01*
X110415593Y-152831646D01*
X110415582Y-152831646D01*
X110207452Y-152845835D01*
X110207446Y-152845836D01*
X110203175Y-152846127D01*
X110198980Y-152846996D01*
X110198978Y-152846996D01*
X110062417Y-152875276D01*
X109921658Y-152904426D01*
X109650657Y-153000393D01*
X109395188Y-153132250D01*
X109391687Y-153134711D01*
X109391683Y-153134713D01*
X109381594Y-153141804D01*
X109159977Y-153297559D01*
X109144892Y-153311577D01*
X109009352Y-153437529D01*
X108949378Y-153493260D01*
X108767287Y-153715732D01*
X108617073Y-153960858D01*
X108501517Y-154224102D01*
X108422756Y-154500594D01*
X108382249Y-154785216D01*
X108382227Y-154789505D01*
X108382226Y-154789512D01*
X108380765Y-155068417D01*
X108380743Y-155072703D01*
X107195454Y-155072703D01*
X107190932Y-154986413D01*
X107192506Y-154958910D01*
X107192770Y-154957341D01*
X107193576Y-154952552D01*
X107193729Y-154940000D01*
X107189773Y-154912376D01*
X107188500Y-154894514D01*
X107188500Y-149826695D01*
X107857251Y-149826695D01*
X107857548Y-149831848D01*
X107857548Y-149831851D01*
X107863011Y-149926590D01*
X107870110Y-150049715D01*
X107871247Y-150054761D01*
X107871248Y-150054767D01*
X107891119Y-150142939D01*
X107919222Y-150267639D01*
X108003266Y-150474616D01*
X108054019Y-150557438D01*
X108117291Y-150660688D01*
X108119987Y-150665088D01*
X108266250Y-150833938D01*
X108438126Y-150976632D01*
X108631000Y-151089338D01*
X108839692Y-151169030D01*
X108844760Y-151170061D01*
X108844763Y-151170062D01*
X108916687Y-151184695D01*
X109058597Y-151213567D01*
X109063772Y-151213757D01*
X109063774Y-151213757D01*
X109276673Y-151221564D01*
X109276677Y-151221564D01*
X109281837Y-151221753D01*
X109286957Y-151221097D01*
X109286959Y-151221097D01*
X109498288Y-151194025D01*
X109498289Y-151194025D01*
X109503416Y-151193368D01*
X109508366Y-151191883D01*
X109712429Y-151130661D01*
X109712434Y-151130659D01*
X109717384Y-151129174D01*
X109917994Y-151030896D01*
X110099860Y-150901173D01*
X110258096Y-150743489D01*
X110317594Y-150660689D01*
X110388453Y-150562077D01*
X110389776Y-150563028D01*
X110436645Y-150519857D01*
X110506580Y-150507625D01*
X110572026Y-150535144D01*
X110599875Y-150566994D01*
X110659987Y-150665088D01*
X110806250Y-150833938D01*
X110978126Y-150976632D01*
X111171000Y-151089338D01*
X111379692Y-151169030D01*
X111384760Y-151170061D01*
X111384763Y-151170062D01*
X111456687Y-151184695D01*
X111598597Y-151213567D01*
X111603772Y-151213757D01*
X111603774Y-151213757D01*
X111816673Y-151221564D01*
X111816677Y-151221564D01*
X111821837Y-151221753D01*
X111826957Y-151221097D01*
X111826959Y-151221097D01*
X112038288Y-151194025D01*
X112038289Y-151194025D01*
X112043416Y-151193368D01*
X112048366Y-151191883D01*
X112252429Y-151130661D01*
X112252434Y-151130659D01*
X112257384Y-151129174D01*
X112457994Y-151030896D01*
X112639860Y-150901173D01*
X112798096Y-150743489D01*
X112857594Y-150660689D01*
X112928453Y-150562077D01*
X112929776Y-150563028D01*
X112976645Y-150519857D01*
X113046580Y-150507625D01*
X113112026Y-150535144D01*
X113139875Y-150566994D01*
X113199987Y-150665088D01*
X113346250Y-150833938D01*
X113518126Y-150976632D01*
X113711000Y-151089338D01*
X113919692Y-151169030D01*
X113924760Y-151170061D01*
X113924763Y-151170062D01*
X113996687Y-151184695D01*
X114138597Y-151213567D01*
X114143772Y-151213757D01*
X114143774Y-151213757D01*
X114356673Y-151221564D01*
X114356677Y-151221564D01*
X114361837Y-151221753D01*
X114366957Y-151221097D01*
X114366959Y-151221097D01*
X114527331Y-151200553D01*
X114597441Y-151211738D01*
X114650375Y-151259051D01*
X114669326Y-151327471D01*
X114648278Y-151395276D01*
X114634436Y-151412581D01*
X114510629Y-151542138D01*
X114384743Y-151726680D01*
X114290688Y-151929305D01*
X114230989Y-152144570D01*
X114207251Y-152366695D01*
X114207548Y-152371848D01*
X114207548Y-152371851D01*
X114213011Y-152466590D01*
X114220110Y-152589715D01*
X114221247Y-152594761D01*
X114221248Y-152594767D01*
X114241119Y-152682939D01*
X114269222Y-152807639D01*
X114309346Y-152906453D01*
X114351103Y-153009288D01*
X114353266Y-153014616D01*
X114469987Y-153205088D01*
X114616250Y-153373938D01*
X114788126Y-153516632D01*
X114858595Y-153557811D01*
X114861445Y-153559476D01*
X114910169Y-153611114D01*
X114923240Y-153680897D01*
X114896509Y-153746669D01*
X114856055Y-153780027D01*
X114843607Y-153786507D01*
X114839474Y-153789610D01*
X114839471Y-153789612D01*
X114815247Y-153807800D01*
X114664965Y-153920635D01*
X114510629Y-154082138D01*
X114384743Y-154266680D01*
X114290688Y-154469305D01*
X114230989Y-154684570D01*
X114207251Y-154906695D01*
X114207548Y-154911848D01*
X114207548Y-154911851D01*
X114213011Y-155006590D01*
X114220110Y-155129715D01*
X114221247Y-155134761D01*
X114221248Y-155134767D01*
X114241119Y-155222939D01*
X114269222Y-155347639D01*
X114353266Y-155554616D01*
X114393271Y-155619898D01*
X114467291Y-155740688D01*
X114469987Y-155745088D01*
X114616250Y-155913938D01*
X114788126Y-156056632D01*
X114981000Y-156169338D01*
X115189692Y-156249030D01*
X115194760Y-156250061D01*
X115194763Y-156250062D01*
X115302017Y-156271883D01*
X115408597Y-156293567D01*
X115413772Y-156293757D01*
X115413774Y-156293757D01*
X115626673Y-156301564D01*
X115626677Y-156301564D01*
X115631837Y-156301753D01*
X115636957Y-156301097D01*
X115636959Y-156301097D01*
X115848288Y-156274025D01*
X115848289Y-156274025D01*
X115853416Y-156273368D01*
X115858366Y-156271883D01*
X116062429Y-156210661D01*
X116062434Y-156210659D01*
X116067384Y-156209174D01*
X116267994Y-156110896D01*
X116449860Y-155981173D01*
X116470887Y-155960220D01*
X116604435Y-155827137D01*
X116608096Y-155823489D01*
X116667594Y-155740689D01*
X116738453Y-155642077D01*
X116739776Y-155643028D01*
X116786645Y-155599857D01*
X116856580Y-155587625D01*
X116922026Y-155615144D01*
X116949875Y-155646994D01*
X117009987Y-155745088D01*
X117156250Y-155913938D01*
X117328126Y-156056632D01*
X117521000Y-156169338D01*
X117729692Y-156249030D01*
X117734760Y-156250061D01*
X117734763Y-156250062D01*
X117842017Y-156271883D01*
X117948597Y-156293567D01*
X117953772Y-156293757D01*
X117953774Y-156293757D01*
X118166673Y-156301564D01*
X118166677Y-156301564D01*
X118171837Y-156301753D01*
X118176957Y-156301097D01*
X118176959Y-156301097D01*
X118388288Y-156274025D01*
X118388289Y-156274025D01*
X118393416Y-156273368D01*
X118398366Y-156271883D01*
X118602429Y-156210661D01*
X118602434Y-156210659D01*
X118607384Y-156209174D01*
X118807994Y-156110896D01*
X118989860Y-155981173D01*
X119010887Y-155960220D01*
X119144435Y-155827137D01*
X119148096Y-155823489D01*
X119207594Y-155740689D01*
X119278453Y-155642077D01*
X119279776Y-155643028D01*
X119326645Y-155599857D01*
X119396580Y-155587625D01*
X119462026Y-155615144D01*
X119489875Y-155646994D01*
X119549987Y-155745088D01*
X119696250Y-155913938D01*
X119868126Y-156056632D01*
X120061000Y-156169338D01*
X120269692Y-156249030D01*
X120274760Y-156250061D01*
X120274763Y-156250062D01*
X120382017Y-156271883D01*
X120488597Y-156293567D01*
X120493772Y-156293757D01*
X120493774Y-156293757D01*
X120706673Y-156301564D01*
X120706677Y-156301564D01*
X120711837Y-156301753D01*
X120716957Y-156301097D01*
X120716959Y-156301097D01*
X120928288Y-156274025D01*
X120928289Y-156274025D01*
X120933416Y-156273368D01*
X120938366Y-156271883D01*
X121142429Y-156210661D01*
X121142434Y-156210659D01*
X121147384Y-156209174D01*
X121347994Y-156110896D01*
X121529860Y-155981173D01*
X121550887Y-155960220D01*
X121684435Y-155827137D01*
X121688096Y-155823489D01*
X121747594Y-155740689D01*
X121818453Y-155642077D01*
X121819776Y-155643028D01*
X121866645Y-155599857D01*
X121936580Y-155587625D01*
X122002026Y-155615144D01*
X122029875Y-155646994D01*
X122089987Y-155745088D01*
X122236250Y-155913938D01*
X122408126Y-156056632D01*
X122601000Y-156169338D01*
X122809692Y-156249030D01*
X122814760Y-156250061D01*
X122814763Y-156250062D01*
X122922017Y-156271883D01*
X123028597Y-156293567D01*
X123033772Y-156293757D01*
X123033774Y-156293757D01*
X123246673Y-156301564D01*
X123246677Y-156301564D01*
X123251837Y-156301753D01*
X123256957Y-156301097D01*
X123256959Y-156301097D01*
X123468288Y-156274025D01*
X123468289Y-156274025D01*
X123473416Y-156273368D01*
X123478366Y-156271883D01*
X123682429Y-156210661D01*
X123682434Y-156210659D01*
X123687384Y-156209174D01*
X123887994Y-156110896D01*
X124069860Y-155981173D01*
X124090887Y-155960220D01*
X124224435Y-155827137D01*
X124228096Y-155823489D01*
X124287594Y-155740689D01*
X124358453Y-155642077D01*
X124359776Y-155643028D01*
X124406645Y-155599857D01*
X124476580Y-155587625D01*
X124542026Y-155615144D01*
X124569875Y-155646994D01*
X124629987Y-155745088D01*
X124776250Y-155913938D01*
X124948126Y-156056632D01*
X125141000Y-156169338D01*
X125349692Y-156249030D01*
X125354760Y-156250061D01*
X125354763Y-156250062D01*
X125462017Y-156271883D01*
X125568597Y-156293567D01*
X125573772Y-156293757D01*
X125573774Y-156293757D01*
X125786673Y-156301564D01*
X125786677Y-156301564D01*
X125791837Y-156301753D01*
X125796957Y-156301097D01*
X125796959Y-156301097D01*
X126008288Y-156274025D01*
X126008289Y-156274025D01*
X126013416Y-156273368D01*
X126018366Y-156271883D01*
X126222429Y-156210661D01*
X126222434Y-156210659D01*
X126227384Y-156209174D01*
X126427994Y-156110896D01*
X126609860Y-155981173D01*
X126630887Y-155960220D01*
X126764435Y-155827137D01*
X126768096Y-155823489D01*
X126827594Y-155740689D01*
X126898453Y-155642077D01*
X126899776Y-155643028D01*
X126946645Y-155599857D01*
X127016580Y-155587625D01*
X127082026Y-155615144D01*
X127109875Y-155646994D01*
X127169987Y-155745088D01*
X127316250Y-155913938D01*
X127488126Y-156056632D01*
X127681000Y-156169338D01*
X127889692Y-156249030D01*
X127894760Y-156250061D01*
X127894763Y-156250062D01*
X128002017Y-156271883D01*
X128108597Y-156293567D01*
X128113772Y-156293757D01*
X128113774Y-156293757D01*
X128326673Y-156301564D01*
X128326677Y-156301564D01*
X128331837Y-156301753D01*
X128336957Y-156301097D01*
X128336959Y-156301097D01*
X128548288Y-156274025D01*
X128548289Y-156274025D01*
X128553416Y-156273368D01*
X128558366Y-156271883D01*
X128762429Y-156210661D01*
X128762434Y-156210659D01*
X128767384Y-156209174D01*
X128967994Y-156110896D01*
X129149860Y-155981173D01*
X129170887Y-155960220D01*
X129304435Y-155827137D01*
X129308096Y-155823489D01*
X129367594Y-155740689D01*
X129438453Y-155642077D01*
X129439776Y-155643028D01*
X129486645Y-155599857D01*
X129556580Y-155587625D01*
X129622026Y-155615144D01*
X129649875Y-155646994D01*
X129709987Y-155745088D01*
X129856250Y-155913938D01*
X130028126Y-156056632D01*
X130221000Y-156169338D01*
X130429692Y-156249030D01*
X130434760Y-156250061D01*
X130434763Y-156250062D01*
X130542017Y-156271883D01*
X130648597Y-156293567D01*
X130653772Y-156293757D01*
X130653774Y-156293757D01*
X130866673Y-156301564D01*
X130866677Y-156301564D01*
X130871837Y-156301753D01*
X130876957Y-156301097D01*
X130876959Y-156301097D01*
X131088288Y-156274025D01*
X131088289Y-156274025D01*
X131093416Y-156273368D01*
X131098366Y-156271883D01*
X131302429Y-156210661D01*
X131302434Y-156210659D01*
X131307384Y-156209174D01*
X131507994Y-156110896D01*
X131689860Y-155981173D01*
X131710887Y-155960220D01*
X131844435Y-155827137D01*
X131848096Y-155823489D01*
X131907594Y-155740689D01*
X131978453Y-155642077D01*
X131979776Y-155643028D01*
X132026645Y-155599857D01*
X132096580Y-155587625D01*
X132162026Y-155615144D01*
X132189875Y-155646994D01*
X132249987Y-155745088D01*
X132396250Y-155913938D01*
X132568126Y-156056632D01*
X132761000Y-156169338D01*
X132969692Y-156249030D01*
X132974760Y-156250061D01*
X132974763Y-156250062D01*
X133082017Y-156271883D01*
X133188597Y-156293567D01*
X133193772Y-156293757D01*
X133193774Y-156293757D01*
X133406673Y-156301564D01*
X133406677Y-156301564D01*
X133411837Y-156301753D01*
X133416957Y-156301097D01*
X133416959Y-156301097D01*
X133628288Y-156274025D01*
X133628289Y-156274025D01*
X133633416Y-156273368D01*
X133638366Y-156271883D01*
X133842429Y-156210661D01*
X133842434Y-156210659D01*
X133847384Y-156209174D01*
X134047994Y-156110896D01*
X134229860Y-155981173D01*
X134250887Y-155960220D01*
X134384435Y-155827137D01*
X134388096Y-155823489D01*
X134447594Y-155740689D01*
X134518453Y-155642077D01*
X134519776Y-155643028D01*
X134566645Y-155599857D01*
X134636580Y-155587625D01*
X134702026Y-155615144D01*
X134729875Y-155646994D01*
X134789987Y-155745088D01*
X134936250Y-155913938D01*
X135108126Y-156056632D01*
X135301000Y-156169338D01*
X135509692Y-156249030D01*
X135514760Y-156250061D01*
X135514763Y-156250062D01*
X135622017Y-156271883D01*
X135728597Y-156293567D01*
X135733772Y-156293757D01*
X135733774Y-156293757D01*
X135946673Y-156301564D01*
X135946677Y-156301564D01*
X135951837Y-156301753D01*
X135956957Y-156301097D01*
X135956959Y-156301097D01*
X136168288Y-156274025D01*
X136168289Y-156274025D01*
X136173416Y-156273368D01*
X136178366Y-156271883D01*
X136382429Y-156210661D01*
X136382434Y-156210659D01*
X136387384Y-156209174D01*
X136587994Y-156110896D01*
X136769860Y-155981173D01*
X136790887Y-155960220D01*
X136924435Y-155827137D01*
X136928096Y-155823489D01*
X136987594Y-155740689D01*
X137058453Y-155642077D01*
X137059776Y-155643028D01*
X137106645Y-155599857D01*
X137176580Y-155587625D01*
X137242026Y-155615144D01*
X137269875Y-155646994D01*
X137329987Y-155745088D01*
X137476250Y-155913938D01*
X137648126Y-156056632D01*
X137841000Y-156169338D01*
X138049692Y-156249030D01*
X138054760Y-156250061D01*
X138054763Y-156250062D01*
X138162017Y-156271883D01*
X138268597Y-156293567D01*
X138273772Y-156293757D01*
X138273774Y-156293757D01*
X138486673Y-156301564D01*
X138486677Y-156301564D01*
X138491837Y-156301753D01*
X138496957Y-156301097D01*
X138496959Y-156301097D01*
X138708288Y-156274025D01*
X138708289Y-156274025D01*
X138713416Y-156273368D01*
X138718366Y-156271883D01*
X138922429Y-156210661D01*
X138922434Y-156210659D01*
X138927384Y-156209174D01*
X139127994Y-156110896D01*
X139309860Y-155981173D01*
X139330887Y-155960220D01*
X139464435Y-155827137D01*
X139468096Y-155823489D01*
X139527594Y-155740689D01*
X139598453Y-155642077D01*
X139599776Y-155643028D01*
X139646645Y-155599857D01*
X139716580Y-155587625D01*
X139782026Y-155615144D01*
X139809875Y-155646994D01*
X139869987Y-155745088D01*
X140016250Y-155913938D01*
X140188126Y-156056632D01*
X140381000Y-156169338D01*
X140589692Y-156249030D01*
X140594760Y-156250061D01*
X140594763Y-156250062D01*
X140702017Y-156271883D01*
X140808597Y-156293567D01*
X140813772Y-156293757D01*
X140813774Y-156293757D01*
X141026673Y-156301564D01*
X141026677Y-156301564D01*
X141031837Y-156301753D01*
X141036957Y-156301097D01*
X141036959Y-156301097D01*
X141248288Y-156274025D01*
X141248289Y-156274025D01*
X141253416Y-156273368D01*
X141258366Y-156271883D01*
X141462429Y-156210661D01*
X141462434Y-156210659D01*
X141467384Y-156209174D01*
X141667994Y-156110896D01*
X141849860Y-155981173D01*
X141870887Y-155960220D01*
X142004435Y-155827137D01*
X142008096Y-155823489D01*
X142067594Y-155740689D01*
X142138453Y-155642077D01*
X142139776Y-155643028D01*
X142186645Y-155599857D01*
X142256580Y-155587625D01*
X142322026Y-155615144D01*
X142349875Y-155646994D01*
X142409987Y-155745088D01*
X142556250Y-155913938D01*
X142728126Y-156056632D01*
X142921000Y-156169338D01*
X143129692Y-156249030D01*
X143134760Y-156250061D01*
X143134763Y-156250062D01*
X143242017Y-156271883D01*
X143348597Y-156293567D01*
X143353772Y-156293757D01*
X143353774Y-156293757D01*
X143566673Y-156301564D01*
X143566677Y-156301564D01*
X143571837Y-156301753D01*
X143576957Y-156301097D01*
X143576959Y-156301097D01*
X143788288Y-156274025D01*
X143788289Y-156274025D01*
X143793416Y-156273368D01*
X143798366Y-156271883D01*
X144002429Y-156210661D01*
X144002434Y-156210659D01*
X144007384Y-156209174D01*
X144207994Y-156110896D01*
X144389860Y-155981173D01*
X144410887Y-155960220D01*
X144544435Y-155827137D01*
X144548096Y-155823489D01*
X144607594Y-155740689D01*
X144678453Y-155642077D01*
X144679776Y-155643028D01*
X144726645Y-155599857D01*
X144796580Y-155587625D01*
X144862026Y-155615144D01*
X144889875Y-155646994D01*
X144949987Y-155745088D01*
X145096250Y-155913938D01*
X145268126Y-156056632D01*
X145461000Y-156169338D01*
X145669692Y-156249030D01*
X145674760Y-156250061D01*
X145674763Y-156250062D01*
X145782017Y-156271883D01*
X145888597Y-156293567D01*
X145893772Y-156293757D01*
X145893774Y-156293757D01*
X146106673Y-156301564D01*
X146106677Y-156301564D01*
X146111837Y-156301753D01*
X146116957Y-156301097D01*
X146116959Y-156301097D01*
X146328288Y-156274025D01*
X146328289Y-156274025D01*
X146333416Y-156273368D01*
X146338366Y-156271883D01*
X146542429Y-156210661D01*
X146542434Y-156210659D01*
X146547384Y-156209174D01*
X146747994Y-156110896D01*
X146929860Y-155981173D01*
X146950887Y-155960220D01*
X147084435Y-155827137D01*
X147088096Y-155823489D01*
X147147594Y-155740689D01*
X147215435Y-155646277D01*
X147218453Y-155642077D01*
X147223979Y-155630897D01*
X147315136Y-155446453D01*
X147315137Y-155446451D01*
X147317430Y-155441811D01*
X147382370Y-155228069D01*
X147402825Y-155072703D01*
X149020743Y-155072703D01*
X149058268Y-155357734D01*
X149134129Y-155635036D01*
X149135813Y-155638984D01*
X149216068Y-155827137D01*
X149246923Y-155899476D01*
X149394561Y-156146161D01*
X149574313Y-156370528D01*
X149782851Y-156568423D01*
X150016317Y-156736186D01*
X150020112Y-156738195D01*
X150020113Y-156738196D01*
X150041869Y-156749715D01*
X150270392Y-156870712D01*
X150540373Y-156969511D01*
X150821264Y-157030755D01*
X150849841Y-157033004D01*
X151044282Y-157048307D01*
X151044291Y-157048307D01*
X151046739Y-157048500D01*
X151202271Y-157048500D01*
X151204407Y-157048354D01*
X151204418Y-157048354D01*
X151412548Y-157034165D01*
X151412554Y-157034164D01*
X151416825Y-157033873D01*
X151421020Y-157033004D01*
X151421022Y-157033004D01*
X151557584Y-157004723D01*
X151698342Y-156975574D01*
X151969343Y-156879607D01*
X152224812Y-156747750D01*
X152228313Y-156745289D01*
X152228317Y-156745287D01*
X152342417Y-156665096D01*
X152460023Y-156582441D01*
X152670622Y-156386740D01*
X152852713Y-156164268D01*
X153002927Y-155919142D01*
X153006927Y-155910031D01*
X153116757Y-155659830D01*
X153118483Y-155655898D01*
X153123742Y-155637438D01*
X153196068Y-155383534D01*
X153197244Y-155379406D01*
X153237751Y-155094784D01*
X153237845Y-155076951D01*
X153239235Y-154811583D01*
X153239235Y-154811576D01*
X153239257Y-154807297D01*
X153201732Y-154522266D01*
X153125871Y-154244964D01*
X153058242Y-154086411D01*
X153014763Y-153984476D01*
X153014761Y-153984472D01*
X153013077Y-153980524D01*
X152909704Y-153807800D01*
X152867643Y-153737521D01*
X152867640Y-153737517D01*
X152865439Y-153733839D01*
X152685687Y-153509472D01*
X152477149Y-153311577D01*
X152243683Y-153143814D01*
X152221843Y-153132250D01*
X152172788Y-153106277D01*
X151989608Y-153009288D01*
X151719627Y-152910489D01*
X151438736Y-152849245D01*
X151407685Y-152846801D01*
X151215718Y-152831693D01*
X151215709Y-152831693D01*
X151213261Y-152831500D01*
X151057729Y-152831500D01*
X151055593Y-152831646D01*
X151055582Y-152831646D01*
X150847452Y-152845835D01*
X150847446Y-152845836D01*
X150843175Y-152846127D01*
X150838980Y-152846996D01*
X150838978Y-152846996D01*
X150702417Y-152875276D01*
X150561658Y-152904426D01*
X150290657Y-153000393D01*
X150035188Y-153132250D01*
X150031687Y-153134711D01*
X150031683Y-153134713D01*
X150021594Y-153141804D01*
X149799977Y-153297559D01*
X149784892Y-153311577D01*
X149649352Y-153437529D01*
X149589378Y-153493260D01*
X149407287Y-153715732D01*
X149257073Y-153960858D01*
X149141517Y-154224102D01*
X149062756Y-154500594D01*
X149022249Y-154785216D01*
X149022227Y-154789505D01*
X149022226Y-154789512D01*
X149020765Y-155068417D01*
X149020743Y-155072703D01*
X147402825Y-155072703D01*
X147411529Y-155006590D01*
X147412573Y-154963859D01*
X147413074Y-154943365D01*
X147413074Y-154943361D01*
X147413156Y-154940000D01*
X147394852Y-154717361D01*
X147340431Y-154500702D01*
X147251354Y-154295840D01*
X147130014Y-154108277D01*
X146979670Y-153943051D01*
X146975619Y-153939852D01*
X146975615Y-153939848D01*
X146808414Y-153807800D01*
X146808410Y-153807798D01*
X146804359Y-153804598D01*
X146763053Y-153781796D01*
X146713084Y-153731364D01*
X146698312Y-153661921D01*
X146723428Y-153595516D01*
X146750780Y-153568909D01*
X146794603Y-153537650D01*
X146929860Y-153441173D01*
X147088096Y-153283489D01*
X147147594Y-153200689D01*
X147215435Y-153106277D01*
X147218453Y-153102077D01*
X147267737Y-153002359D01*
X147315136Y-152906453D01*
X147315137Y-152906451D01*
X147317430Y-152901811D01*
X147382370Y-152688069D01*
X147411529Y-152466590D01*
X147413156Y-152400000D01*
X147394852Y-152177361D01*
X147340431Y-151960702D01*
X147251354Y-151755840D01*
X147130014Y-151568277D01*
X147126540Y-151564459D01*
X147126533Y-151564450D01*
X146986878Y-151410972D01*
X146955826Y-151347126D01*
X146964221Y-151276627D01*
X147009397Y-151221859D01*
X147077012Y-151200209D01*
X147105188Y-151202701D01*
X147158597Y-151213567D01*
X147163772Y-151213757D01*
X147163774Y-151213757D01*
X147376673Y-151221564D01*
X147376677Y-151221564D01*
X147381837Y-151221753D01*
X147386957Y-151221097D01*
X147386959Y-151221097D01*
X147598288Y-151194025D01*
X147598289Y-151194025D01*
X147603416Y-151193368D01*
X147608366Y-151191883D01*
X147812429Y-151130661D01*
X147812434Y-151130659D01*
X147817384Y-151129174D01*
X148017994Y-151030896D01*
X148199860Y-150901173D01*
X148358096Y-150743489D01*
X148417594Y-150660689D01*
X148488453Y-150562077D01*
X148489776Y-150563028D01*
X148536645Y-150519857D01*
X148606580Y-150507625D01*
X148672026Y-150535144D01*
X148699875Y-150566994D01*
X148759987Y-150665088D01*
X148906250Y-150833938D01*
X149078126Y-150976632D01*
X149271000Y-151089338D01*
X149479692Y-151169030D01*
X149484760Y-151170061D01*
X149484763Y-151170062D01*
X149556687Y-151184695D01*
X149698597Y-151213567D01*
X149703772Y-151213757D01*
X149703774Y-151213757D01*
X149916673Y-151221564D01*
X149916677Y-151221564D01*
X149921837Y-151221753D01*
X149926957Y-151221097D01*
X149926959Y-151221097D01*
X150138288Y-151194025D01*
X150138289Y-151194025D01*
X150143416Y-151193368D01*
X150148366Y-151191883D01*
X150352429Y-151130661D01*
X150352434Y-151130659D01*
X150357384Y-151129174D01*
X150557994Y-151030896D01*
X150739860Y-150901173D01*
X150898096Y-150743489D01*
X150957594Y-150660689D01*
X151028453Y-150562077D01*
X151029776Y-150563028D01*
X151076645Y-150519857D01*
X151146580Y-150507625D01*
X151212026Y-150535144D01*
X151239875Y-150566994D01*
X151299987Y-150665088D01*
X151446250Y-150833938D01*
X151618126Y-150976632D01*
X151811000Y-151089338D01*
X152019692Y-151169030D01*
X152024760Y-151170061D01*
X152024763Y-151170062D01*
X152096687Y-151184695D01*
X152238597Y-151213567D01*
X152243772Y-151213757D01*
X152243774Y-151213757D01*
X152456673Y-151221564D01*
X152456677Y-151221564D01*
X152461837Y-151221753D01*
X152466957Y-151221097D01*
X152466959Y-151221097D01*
X152678288Y-151194025D01*
X152678289Y-151194025D01*
X152683416Y-151193368D01*
X152688366Y-151191883D01*
X152892429Y-151130661D01*
X152892434Y-151130659D01*
X152897384Y-151129174D01*
X153097994Y-151030896D01*
X153279860Y-150901173D01*
X153438096Y-150743489D01*
X153497594Y-150660689D01*
X153565435Y-150566277D01*
X153568453Y-150562077D01*
X153589320Y-150519857D01*
X153665136Y-150366453D01*
X153665137Y-150366451D01*
X153667430Y-150361811D01*
X153732370Y-150148069D01*
X153761529Y-149926590D01*
X153763156Y-149860000D01*
X153744852Y-149637361D01*
X153690431Y-149420702D01*
X153601354Y-149215840D01*
X153480014Y-149028277D01*
X153329670Y-148863051D01*
X153325619Y-148859852D01*
X153325615Y-148859848D01*
X153158414Y-148727800D01*
X153158410Y-148727798D01*
X153154359Y-148724598D01*
X153113053Y-148701796D01*
X153063084Y-148651364D01*
X153048312Y-148581921D01*
X153073428Y-148515516D01*
X153100780Y-148488909D01*
X153144603Y-148457650D01*
X153279860Y-148361173D01*
X153438096Y-148203489D01*
X153497594Y-148120689D01*
X153565435Y-148026277D01*
X153568453Y-148022077D01*
X153667430Y-147821811D01*
X153732370Y-147608069D01*
X153761529Y-147386590D01*
X153763156Y-147320000D01*
X153744852Y-147097361D01*
X153690431Y-146880702D01*
X153601354Y-146675840D01*
X153480014Y-146488277D01*
X153329670Y-146323051D01*
X153325619Y-146319852D01*
X153325615Y-146319848D01*
X153158414Y-146187800D01*
X153158410Y-146187798D01*
X153154359Y-146184598D01*
X153113053Y-146161796D01*
X153063084Y-146111364D01*
X153048312Y-146041921D01*
X153073428Y-145975516D01*
X153100780Y-145948909D01*
X153144603Y-145917650D01*
X153279860Y-145821173D01*
X153438096Y-145663489D01*
X153497594Y-145580689D01*
X153565435Y-145486277D01*
X153568453Y-145482077D01*
X153667430Y-145281811D01*
X153732370Y-145068069D01*
X153761529Y-144846590D01*
X153763156Y-144780000D01*
X153744852Y-144557361D01*
X153690431Y-144340702D01*
X153601354Y-144135840D01*
X153480014Y-143948277D01*
X153329670Y-143783051D01*
X153325619Y-143779852D01*
X153325615Y-143779848D01*
X153158414Y-143647800D01*
X153158410Y-143647798D01*
X153154359Y-143644598D01*
X153113053Y-143621796D01*
X153063084Y-143571364D01*
X153048312Y-143501921D01*
X153073428Y-143435516D01*
X153100780Y-143408909D01*
X153144603Y-143377650D01*
X153279860Y-143281173D01*
X153438096Y-143123489D01*
X153497594Y-143040689D01*
X153565435Y-142946277D01*
X153568453Y-142942077D01*
X153667430Y-142741811D01*
X153732370Y-142528069D01*
X153761529Y-142306590D01*
X153763156Y-142240000D01*
X153744852Y-142017361D01*
X153690431Y-141800702D01*
X153601354Y-141595840D01*
X153480014Y-141408277D01*
X153329670Y-141243051D01*
X153325619Y-141239852D01*
X153325615Y-141239848D01*
X153158414Y-141107800D01*
X153158410Y-141107798D01*
X153154359Y-141104598D01*
X153113053Y-141081796D01*
X153063084Y-141031364D01*
X153048312Y-140961921D01*
X153073428Y-140895516D01*
X153100780Y-140868909D01*
X153144603Y-140837650D01*
X153279860Y-140741173D01*
X153438096Y-140583489D01*
X153497594Y-140500689D01*
X153565435Y-140406277D01*
X153568453Y-140402077D01*
X153667430Y-140201811D01*
X153732370Y-139988069D01*
X153761529Y-139766590D01*
X153763156Y-139700000D01*
X153744852Y-139477361D01*
X153690431Y-139260702D01*
X153601354Y-139055840D01*
X153480014Y-138868277D01*
X153329670Y-138703051D01*
X153325619Y-138699852D01*
X153325615Y-138699848D01*
X153158414Y-138567800D01*
X153158410Y-138567798D01*
X153154359Y-138564598D01*
X153113053Y-138541796D01*
X153063084Y-138491364D01*
X153048312Y-138421921D01*
X153073428Y-138355516D01*
X153100780Y-138328909D01*
X153144603Y-138297650D01*
X153279860Y-138201173D01*
X153438096Y-138043489D01*
X153497594Y-137960689D01*
X153565435Y-137866277D01*
X153568453Y-137862077D01*
X153667430Y-137661811D01*
X153732370Y-137448069D01*
X153761529Y-137226590D01*
X153763156Y-137160000D01*
X153744852Y-136937361D01*
X153690431Y-136720702D01*
X153601354Y-136515840D01*
X153480014Y-136328277D01*
X153329670Y-136163051D01*
X153325619Y-136159852D01*
X153325615Y-136159848D01*
X153158414Y-136027800D01*
X153158410Y-136027798D01*
X153154359Y-136024598D01*
X153113053Y-136001796D01*
X153063084Y-135951364D01*
X153048312Y-135881921D01*
X153073428Y-135815516D01*
X153100780Y-135788909D01*
X153144603Y-135757650D01*
X153279860Y-135661173D01*
X153438096Y-135503489D01*
X153497594Y-135420689D01*
X153565435Y-135326277D01*
X153568453Y-135322077D01*
X153667430Y-135121811D01*
X153732370Y-134908069D01*
X153761529Y-134686590D01*
X153763156Y-134620000D01*
X153744852Y-134397361D01*
X153690431Y-134180702D01*
X153601354Y-133975840D01*
X153480014Y-133788277D01*
X153329670Y-133623051D01*
X153325619Y-133619852D01*
X153325615Y-133619848D01*
X153158414Y-133487800D01*
X153158410Y-133487798D01*
X153154359Y-133484598D01*
X153113053Y-133461796D01*
X153063084Y-133411364D01*
X153048312Y-133341921D01*
X153073428Y-133275516D01*
X153100780Y-133248909D01*
X153144603Y-133217650D01*
X153279860Y-133121173D01*
X153438096Y-132963489D01*
X153497594Y-132880689D01*
X153565435Y-132786277D01*
X153568453Y-132782077D01*
X153667430Y-132581811D01*
X153732370Y-132368069D01*
X153761529Y-132146590D01*
X153763156Y-132080000D01*
X153744852Y-131857361D01*
X153690431Y-131640702D01*
X153601354Y-131435840D01*
X153480014Y-131248277D01*
X153329670Y-131083051D01*
X153325619Y-131079852D01*
X153325615Y-131079848D01*
X153158414Y-130947800D01*
X153158410Y-130947798D01*
X153154359Y-130944598D01*
X153113053Y-130921796D01*
X153063084Y-130871364D01*
X153048312Y-130801921D01*
X153073428Y-130735516D01*
X153100780Y-130708909D01*
X153144603Y-130677650D01*
X153279860Y-130581173D01*
X153438096Y-130423489D01*
X153497594Y-130340689D01*
X153565435Y-130246277D01*
X153568453Y-130242077D01*
X153667430Y-130041811D01*
X153732370Y-129828069D01*
X153761529Y-129606590D01*
X153763156Y-129540000D01*
X153744852Y-129317361D01*
X153690431Y-129100702D01*
X153601354Y-128895840D01*
X153480014Y-128708277D01*
X153329670Y-128543051D01*
X153325619Y-128539852D01*
X153325615Y-128539848D01*
X153158414Y-128407800D01*
X153158410Y-128407798D01*
X153154359Y-128404598D01*
X153113053Y-128381796D01*
X153063084Y-128331364D01*
X153048312Y-128261921D01*
X153073428Y-128195516D01*
X153100780Y-128168909D01*
X153144603Y-128137650D01*
X153279860Y-128041173D01*
X153438096Y-127883489D01*
X153497594Y-127800689D01*
X153565435Y-127706277D01*
X153568453Y-127702077D01*
X153667430Y-127501811D01*
X153732370Y-127288069D01*
X153761529Y-127066590D01*
X153763156Y-127000000D01*
X153744852Y-126777361D01*
X153690431Y-126560702D01*
X153601354Y-126355840D01*
X153480014Y-126168277D01*
X153329670Y-126003051D01*
X153325619Y-125999852D01*
X153325615Y-125999848D01*
X153158414Y-125867800D01*
X153158410Y-125867798D01*
X153154359Y-125864598D01*
X153113053Y-125841796D01*
X153063084Y-125791364D01*
X153048312Y-125721921D01*
X153073428Y-125655516D01*
X153100780Y-125628909D01*
X153144603Y-125597650D01*
X153279860Y-125501173D01*
X153438096Y-125343489D01*
X153497594Y-125260689D01*
X153565435Y-125166277D01*
X153568453Y-125162077D01*
X153667430Y-124961811D01*
X153732370Y-124748069D01*
X153761529Y-124526590D01*
X153763156Y-124460000D01*
X153744852Y-124237361D01*
X153690431Y-124020702D01*
X153601354Y-123815840D01*
X153480014Y-123628277D01*
X153329670Y-123463051D01*
X153325619Y-123459852D01*
X153325615Y-123459848D01*
X153158414Y-123327800D01*
X153158410Y-123327798D01*
X153154359Y-123324598D01*
X153113053Y-123301796D01*
X153063084Y-123251364D01*
X153048312Y-123181921D01*
X153073428Y-123115516D01*
X153100780Y-123088909D01*
X153144603Y-123057650D01*
X153279860Y-122961173D01*
X153438096Y-122803489D01*
X153497594Y-122720689D01*
X153565435Y-122626277D01*
X153568453Y-122622077D01*
X153667430Y-122421811D01*
X153732370Y-122208069D01*
X153761529Y-121986590D01*
X153763156Y-121920000D01*
X153744852Y-121697361D01*
X153690431Y-121480702D01*
X153601354Y-121275840D01*
X153480014Y-121088277D01*
X153329670Y-120923051D01*
X153325619Y-120919852D01*
X153325615Y-120919848D01*
X153158414Y-120787800D01*
X153158410Y-120787798D01*
X153154359Y-120784598D01*
X153113053Y-120761796D01*
X153063084Y-120711364D01*
X153048312Y-120641921D01*
X153073428Y-120575516D01*
X153100780Y-120548909D01*
X153144603Y-120517650D01*
X153279860Y-120421173D01*
X153438096Y-120263489D01*
X153497594Y-120180689D01*
X153565435Y-120086277D01*
X153568453Y-120082077D01*
X153667430Y-119881811D01*
X153732370Y-119668069D01*
X153761529Y-119446590D01*
X153763156Y-119380000D01*
X153744852Y-119157361D01*
X153690431Y-118940702D01*
X153601354Y-118735840D01*
X153480014Y-118548277D01*
X153329670Y-118383051D01*
X153325619Y-118379852D01*
X153325615Y-118379848D01*
X153158414Y-118247800D01*
X153158410Y-118247798D01*
X153154359Y-118244598D01*
X153113053Y-118221796D01*
X153063084Y-118171364D01*
X153048312Y-118101921D01*
X153073428Y-118035516D01*
X153100780Y-118008909D01*
X153144603Y-117977650D01*
X153279860Y-117881173D01*
X153438096Y-117723489D01*
X153497594Y-117640689D01*
X153565435Y-117546277D01*
X153568453Y-117542077D01*
X153667430Y-117341811D01*
X153732370Y-117128069D01*
X153761529Y-116906590D01*
X153763156Y-116840000D01*
X153744852Y-116617361D01*
X153690431Y-116400702D01*
X153601354Y-116195840D01*
X153480014Y-116008277D01*
X153329670Y-115843051D01*
X153325619Y-115839852D01*
X153325615Y-115839848D01*
X153158414Y-115707800D01*
X153158410Y-115707798D01*
X153154359Y-115704598D01*
X153113053Y-115681796D01*
X153063084Y-115631364D01*
X153048312Y-115561921D01*
X153073428Y-115495516D01*
X153100780Y-115468909D01*
X153144603Y-115437650D01*
X153279860Y-115341173D01*
X153438096Y-115183489D01*
X153497594Y-115100689D01*
X153565435Y-115006277D01*
X153568453Y-115002077D01*
X153667430Y-114801811D01*
X153732370Y-114588069D01*
X153761529Y-114366590D01*
X153763156Y-114300000D01*
X153744852Y-114077361D01*
X153690431Y-113860702D01*
X153601354Y-113655840D01*
X153480014Y-113468277D01*
X153329670Y-113303051D01*
X153325619Y-113299852D01*
X153325615Y-113299848D01*
X153158414Y-113167800D01*
X153158410Y-113167798D01*
X153154359Y-113164598D01*
X153113053Y-113141796D01*
X153063084Y-113091364D01*
X153048312Y-113021921D01*
X153073428Y-112955516D01*
X153100780Y-112928909D01*
X153144603Y-112897650D01*
X153279860Y-112801173D01*
X153438096Y-112643489D01*
X153497594Y-112560689D01*
X153565435Y-112466277D01*
X153568453Y-112462077D01*
X153667430Y-112261811D01*
X153732370Y-112048069D01*
X153761529Y-111826590D01*
X153763156Y-111760000D01*
X153744852Y-111537361D01*
X153690431Y-111320702D01*
X153601354Y-111115840D01*
X153480014Y-110928277D01*
X153329670Y-110763051D01*
X153325619Y-110759852D01*
X153325615Y-110759848D01*
X153158414Y-110627800D01*
X153158410Y-110627798D01*
X153154359Y-110624598D01*
X153113053Y-110601796D01*
X153063084Y-110551364D01*
X153048312Y-110481921D01*
X153073428Y-110415516D01*
X153100780Y-110388909D01*
X153144603Y-110357650D01*
X153279860Y-110261173D01*
X153438096Y-110103489D01*
X153497594Y-110020689D01*
X153565435Y-109926277D01*
X153568453Y-109922077D01*
X153667430Y-109721811D01*
X153732370Y-109508069D01*
X153761529Y-109286590D01*
X153763156Y-109220000D01*
X153744852Y-108997361D01*
X153690431Y-108780702D01*
X153601354Y-108575840D01*
X153480014Y-108388277D01*
X153329670Y-108223051D01*
X153325619Y-108219852D01*
X153325615Y-108219848D01*
X153158414Y-108087800D01*
X153158410Y-108087798D01*
X153154359Y-108084598D01*
X153113053Y-108061796D01*
X153063084Y-108011364D01*
X153048312Y-107941921D01*
X153073428Y-107875516D01*
X153100780Y-107848909D01*
X153144603Y-107817650D01*
X153279860Y-107721173D01*
X153438096Y-107563489D01*
X153497594Y-107480689D01*
X153565435Y-107386277D01*
X153568453Y-107382077D01*
X153667430Y-107181811D01*
X153732370Y-106968069D01*
X153761529Y-106746590D01*
X153763156Y-106680000D01*
X153744852Y-106457361D01*
X153690431Y-106240702D01*
X153601354Y-106035840D01*
X153480014Y-105848277D01*
X153329670Y-105683051D01*
X153325619Y-105679852D01*
X153325615Y-105679848D01*
X153158414Y-105547800D01*
X153158410Y-105547798D01*
X153154359Y-105544598D01*
X153113053Y-105521796D01*
X153063084Y-105471364D01*
X153048312Y-105401921D01*
X153073428Y-105335516D01*
X153100780Y-105308909D01*
X153144603Y-105277650D01*
X153279860Y-105181173D01*
X153438096Y-105023489D01*
X153497594Y-104940689D01*
X153565435Y-104846277D01*
X153568453Y-104842077D01*
X153667430Y-104641811D01*
X153732370Y-104428069D01*
X153761529Y-104206590D01*
X153763156Y-104140000D01*
X153744852Y-103917361D01*
X153690431Y-103700702D01*
X153601354Y-103495840D01*
X153480014Y-103308277D01*
X153329670Y-103143051D01*
X153325619Y-103139852D01*
X153325615Y-103139848D01*
X153158414Y-103007800D01*
X153158410Y-103007798D01*
X153154359Y-103004598D01*
X153113053Y-102981796D01*
X153063084Y-102931364D01*
X153048312Y-102861921D01*
X153073428Y-102795516D01*
X153100780Y-102768909D01*
X153144603Y-102737650D01*
X153279860Y-102641173D01*
X153438096Y-102483489D01*
X153497594Y-102400689D01*
X153565435Y-102306277D01*
X153568453Y-102302077D01*
X153667430Y-102101811D01*
X153732370Y-101888069D01*
X153761529Y-101666590D01*
X153763156Y-101600000D01*
X153744852Y-101377361D01*
X153690431Y-101160702D01*
X153601354Y-100955840D01*
X153480014Y-100768277D01*
X153329670Y-100603051D01*
X153325619Y-100599852D01*
X153325615Y-100599848D01*
X153158414Y-100467800D01*
X153158410Y-100467798D01*
X153154359Y-100464598D01*
X153113053Y-100441796D01*
X153063084Y-100391364D01*
X153048312Y-100321921D01*
X153073428Y-100255516D01*
X153100780Y-100228909D01*
X153144603Y-100197650D01*
X153279860Y-100101173D01*
X153438096Y-99943489D01*
X153497594Y-99860689D01*
X153565435Y-99766277D01*
X153568453Y-99762077D01*
X153667430Y-99561811D01*
X153732370Y-99348069D01*
X153761529Y-99126590D01*
X153763156Y-99060000D01*
X153744852Y-98837361D01*
X153690431Y-98620702D01*
X153601354Y-98415840D01*
X153480014Y-98228277D01*
X153329670Y-98063051D01*
X153325619Y-98059852D01*
X153325615Y-98059848D01*
X153158414Y-97927800D01*
X153158410Y-97927798D01*
X153154359Y-97924598D01*
X153113053Y-97901796D01*
X153063084Y-97851364D01*
X153048312Y-97781921D01*
X153073428Y-97715516D01*
X153100780Y-97688909D01*
X153144603Y-97657650D01*
X153279860Y-97561173D01*
X153438096Y-97403489D01*
X153497594Y-97320689D01*
X153565435Y-97226277D01*
X153568453Y-97222077D01*
X153667430Y-97021811D01*
X153732370Y-96808069D01*
X153761529Y-96586590D01*
X153763156Y-96520000D01*
X153744852Y-96297361D01*
X153690431Y-96080702D01*
X153601354Y-95875840D01*
X153480014Y-95688277D01*
X153329670Y-95523051D01*
X153325619Y-95519852D01*
X153325615Y-95519848D01*
X153158414Y-95387800D01*
X153158410Y-95387798D01*
X153154359Y-95384598D01*
X153113053Y-95361796D01*
X153063084Y-95311364D01*
X153048312Y-95241921D01*
X153073428Y-95175516D01*
X153100780Y-95148909D01*
X153144603Y-95117650D01*
X153279860Y-95021173D01*
X153438096Y-94863489D01*
X153497594Y-94780689D01*
X153565435Y-94686277D01*
X153568453Y-94682077D01*
X153667430Y-94481811D01*
X153732370Y-94268069D01*
X153761529Y-94046590D01*
X153763156Y-93980000D01*
X153744852Y-93757361D01*
X153690431Y-93540702D01*
X153601354Y-93335840D01*
X153480014Y-93148277D01*
X153329670Y-92983051D01*
X153325619Y-92979852D01*
X153325615Y-92979848D01*
X153158414Y-92847800D01*
X153158410Y-92847798D01*
X153154359Y-92844598D01*
X153113053Y-92821796D01*
X153063084Y-92771364D01*
X153048312Y-92701921D01*
X153073428Y-92635516D01*
X153100780Y-92608909D01*
X153144603Y-92577650D01*
X153279860Y-92481173D01*
X153438096Y-92323489D01*
X153497594Y-92240689D01*
X153565435Y-92146277D01*
X153568453Y-92142077D01*
X153667430Y-91941811D01*
X153732370Y-91728069D01*
X153761529Y-91506590D01*
X153763156Y-91440000D01*
X153744852Y-91217361D01*
X153690431Y-91000702D01*
X153601354Y-90795840D01*
X153480014Y-90608277D01*
X153329670Y-90443051D01*
X153325619Y-90439852D01*
X153325615Y-90439848D01*
X153158414Y-90307800D01*
X153158410Y-90307798D01*
X153154359Y-90304598D01*
X153113053Y-90281796D01*
X153063084Y-90231364D01*
X153048312Y-90161921D01*
X153073428Y-90095516D01*
X153100780Y-90068909D01*
X153144603Y-90037650D01*
X153279860Y-89941173D01*
X153438096Y-89783489D01*
X153497594Y-89700689D01*
X153565435Y-89606277D01*
X153568453Y-89602077D01*
X153667430Y-89401811D01*
X153732370Y-89188069D01*
X153761529Y-88966590D01*
X153763156Y-88900000D01*
X153744852Y-88677361D01*
X153690431Y-88460702D01*
X153601354Y-88255840D01*
X153480014Y-88068277D01*
X153329670Y-87903051D01*
X153325619Y-87899852D01*
X153325615Y-87899848D01*
X153158414Y-87767800D01*
X153158410Y-87767798D01*
X153154359Y-87764598D01*
X153113053Y-87741796D01*
X153063084Y-87691364D01*
X153048312Y-87621921D01*
X153073428Y-87555516D01*
X153100780Y-87528909D01*
X153144603Y-87497650D01*
X153279860Y-87401173D01*
X153438096Y-87243489D01*
X153497594Y-87160689D01*
X153565435Y-87066277D01*
X153568453Y-87062077D01*
X153667430Y-86861811D01*
X153732370Y-86648069D01*
X153761529Y-86426590D01*
X153763156Y-86360000D01*
X153744852Y-86137361D01*
X153690431Y-85920702D01*
X153601354Y-85715840D01*
X153480014Y-85528277D01*
X153329670Y-85363051D01*
X153325619Y-85359852D01*
X153325615Y-85359848D01*
X153158414Y-85227800D01*
X153158410Y-85227798D01*
X153154359Y-85224598D01*
X153113053Y-85201796D01*
X153063084Y-85151364D01*
X153048312Y-85081921D01*
X153073428Y-85015516D01*
X153100780Y-84988909D01*
X153144603Y-84957650D01*
X153279860Y-84861173D01*
X153438096Y-84703489D01*
X153497594Y-84620689D01*
X153565435Y-84526277D01*
X153568453Y-84522077D01*
X153667430Y-84321811D01*
X153732370Y-84108069D01*
X153761529Y-83886590D01*
X153763156Y-83820000D01*
X153744852Y-83597361D01*
X153690431Y-83380702D01*
X153601354Y-83175840D01*
X153480014Y-82988277D01*
X153329670Y-82823051D01*
X153325619Y-82819852D01*
X153325615Y-82819848D01*
X153158414Y-82687800D01*
X153158410Y-82687798D01*
X153154359Y-82684598D01*
X153113053Y-82661796D01*
X153063084Y-82611364D01*
X153048312Y-82541921D01*
X153073428Y-82475516D01*
X153100780Y-82448909D01*
X153144603Y-82417650D01*
X153279860Y-82321173D01*
X153438096Y-82163489D01*
X153497594Y-82080689D01*
X153565435Y-81986277D01*
X153568453Y-81982077D01*
X153667430Y-81781811D01*
X153732370Y-81568069D01*
X153761529Y-81346590D01*
X153763156Y-81280000D01*
X153744852Y-81057361D01*
X153690431Y-80840702D01*
X153601354Y-80635840D01*
X153480014Y-80448277D01*
X153329670Y-80283051D01*
X153325619Y-80279852D01*
X153325615Y-80279848D01*
X153158414Y-80147800D01*
X153158410Y-80147798D01*
X153154359Y-80144598D01*
X153113053Y-80121796D01*
X153063084Y-80071364D01*
X153048312Y-80001921D01*
X153073428Y-79935516D01*
X153100780Y-79908909D01*
X153144603Y-79877650D01*
X153279860Y-79781173D01*
X153438096Y-79623489D01*
X153497594Y-79540689D01*
X153565435Y-79446277D01*
X153568453Y-79442077D01*
X153667430Y-79241811D01*
X153732370Y-79028069D01*
X153761529Y-78806590D01*
X153763156Y-78740000D01*
X153744852Y-78517361D01*
X153690431Y-78300702D01*
X153601354Y-78095840D01*
X153480014Y-77908277D01*
X153329670Y-77743051D01*
X153325619Y-77739852D01*
X153325615Y-77739848D01*
X153158414Y-77607800D01*
X153158410Y-77607798D01*
X153154359Y-77604598D01*
X153113053Y-77581796D01*
X153063084Y-77531364D01*
X153048312Y-77461921D01*
X153073428Y-77395516D01*
X153100780Y-77368909D01*
X153144603Y-77337650D01*
X153279860Y-77241173D01*
X153438096Y-77083489D01*
X153497594Y-77000689D01*
X153565435Y-76906277D01*
X153568453Y-76902077D01*
X153667430Y-76701811D01*
X153732370Y-76488069D01*
X153761529Y-76266590D01*
X153763156Y-76200000D01*
X153744852Y-75977361D01*
X153690431Y-75760702D01*
X153601354Y-75555840D01*
X153480014Y-75368277D01*
X153329670Y-75203051D01*
X153325619Y-75199852D01*
X153325615Y-75199848D01*
X153158414Y-75067800D01*
X153158410Y-75067798D01*
X153154359Y-75064598D01*
X153113053Y-75041796D01*
X153063084Y-74991364D01*
X153048312Y-74921921D01*
X153073428Y-74855516D01*
X153100780Y-74828909D01*
X153144603Y-74797650D01*
X153279860Y-74701173D01*
X153438096Y-74543489D01*
X153497594Y-74460689D01*
X153565435Y-74366277D01*
X153568453Y-74362077D01*
X153667430Y-74161811D01*
X153732370Y-73948069D01*
X153761529Y-73726590D01*
X153763156Y-73660000D01*
X153744852Y-73437361D01*
X153690431Y-73220702D01*
X153601354Y-73015840D01*
X153480014Y-72828277D01*
X153329670Y-72663051D01*
X153325619Y-72659852D01*
X153325615Y-72659848D01*
X153158414Y-72527800D01*
X153158410Y-72527798D01*
X153154359Y-72524598D01*
X153113053Y-72501796D01*
X153063084Y-72451364D01*
X153048312Y-72381921D01*
X153073428Y-72315516D01*
X153100780Y-72288909D01*
X153144603Y-72257650D01*
X153279860Y-72161173D01*
X153438096Y-72003489D01*
X153497594Y-71920689D01*
X153565435Y-71826277D01*
X153568453Y-71822077D01*
X153667430Y-71621811D01*
X153732370Y-71408069D01*
X153761529Y-71186590D01*
X153763156Y-71120000D01*
X153744852Y-70897361D01*
X153690431Y-70680702D01*
X153601354Y-70475840D01*
X153480014Y-70288277D01*
X153329670Y-70123051D01*
X153325619Y-70119852D01*
X153325615Y-70119848D01*
X153158414Y-69987800D01*
X153158410Y-69987798D01*
X153154359Y-69984598D01*
X153113053Y-69961796D01*
X153063084Y-69911364D01*
X153048312Y-69841921D01*
X153073428Y-69775516D01*
X153100780Y-69748909D01*
X153144603Y-69717650D01*
X153279860Y-69621173D01*
X153438096Y-69463489D01*
X153497594Y-69380689D01*
X153565435Y-69286277D01*
X153568453Y-69282077D01*
X153667430Y-69081811D01*
X153732370Y-68868069D01*
X153761529Y-68646590D01*
X153763156Y-68580000D01*
X153744852Y-68357361D01*
X153690431Y-68140702D01*
X153601354Y-67935840D01*
X153480014Y-67748277D01*
X153329670Y-67583051D01*
X153325619Y-67579852D01*
X153325615Y-67579848D01*
X153158414Y-67447800D01*
X153158410Y-67447798D01*
X153154359Y-67444598D01*
X153113053Y-67421796D01*
X153063084Y-67371364D01*
X153048312Y-67301921D01*
X153073428Y-67235516D01*
X153100780Y-67208909D01*
X153144603Y-67177650D01*
X153279860Y-67081173D01*
X153438096Y-66923489D01*
X153497594Y-66840689D01*
X153565435Y-66746277D01*
X153568453Y-66742077D01*
X153667430Y-66541811D01*
X153732370Y-66328069D01*
X153761529Y-66106590D01*
X153763156Y-66040000D01*
X153744852Y-65817361D01*
X153690431Y-65600702D01*
X153601354Y-65395840D01*
X153480014Y-65208277D01*
X153329670Y-65043051D01*
X153325619Y-65039852D01*
X153325615Y-65039848D01*
X153158414Y-64907800D01*
X153158410Y-64907798D01*
X153154359Y-64904598D01*
X153113053Y-64881796D01*
X153063084Y-64831364D01*
X153048312Y-64761921D01*
X153073428Y-64695516D01*
X153100780Y-64668909D01*
X153144603Y-64637650D01*
X153279860Y-64541173D01*
X153438096Y-64383489D01*
X153497594Y-64300689D01*
X153565435Y-64206277D01*
X153568453Y-64202077D01*
X153667430Y-64001811D01*
X153732370Y-63788069D01*
X153761529Y-63566590D01*
X153763156Y-63500000D01*
X153744852Y-63277361D01*
X153690431Y-63060702D01*
X153601354Y-62855840D01*
X153480014Y-62668277D01*
X153329670Y-62503051D01*
X153325619Y-62499852D01*
X153325615Y-62499848D01*
X153158414Y-62367800D01*
X153158410Y-62367798D01*
X153154359Y-62364598D01*
X153113053Y-62341796D01*
X153063084Y-62291364D01*
X153048312Y-62221921D01*
X153073428Y-62155516D01*
X153100780Y-62128909D01*
X153144603Y-62097650D01*
X153279860Y-62001173D01*
X153438096Y-61843489D01*
X153497594Y-61760689D01*
X153565435Y-61666277D01*
X153568453Y-61662077D01*
X153667430Y-61461811D01*
X153732370Y-61248069D01*
X153761529Y-61026590D01*
X153763156Y-60960000D01*
X153744852Y-60737361D01*
X153690431Y-60520702D01*
X153601354Y-60315840D01*
X153480014Y-60128277D01*
X153329670Y-59963051D01*
X153325619Y-59959852D01*
X153325615Y-59959848D01*
X153158414Y-59827800D01*
X153158410Y-59827798D01*
X153154359Y-59824598D01*
X152958789Y-59716638D01*
X152953920Y-59714914D01*
X152953916Y-59714912D01*
X152753087Y-59643795D01*
X152753083Y-59643794D01*
X152748212Y-59642069D01*
X152743119Y-59641162D01*
X152743116Y-59641161D01*
X152533373Y-59603800D01*
X152533367Y-59603799D01*
X152528284Y-59602894D01*
X152454452Y-59601992D01*
X152310081Y-59600228D01*
X152310079Y-59600228D01*
X152304911Y-59600165D01*
X152084091Y-59633955D01*
X151871756Y-59703357D01*
X151673607Y-59806507D01*
X151669474Y-59809610D01*
X151669471Y-59809612D01*
X151645247Y-59827800D01*
X151494965Y-59940635D01*
X151340629Y-60102138D01*
X151233201Y-60259621D01*
X151178293Y-60304621D01*
X151107768Y-60312792D01*
X151044021Y-60281538D01*
X151023324Y-60257054D01*
X150942822Y-60132617D01*
X150942820Y-60132614D01*
X150940014Y-60128277D01*
X150789670Y-59963051D01*
X150785619Y-59959852D01*
X150785615Y-59959848D01*
X150618414Y-59827800D01*
X150618410Y-59827798D01*
X150614359Y-59824598D01*
X150418789Y-59716638D01*
X150413920Y-59714914D01*
X150413916Y-59714912D01*
X150213087Y-59643795D01*
X150213083Y-59643794D01*
X150208212Y-59642069D01*
X150203119Y-59641162D01*
X150203116Y-59641161D01*
X149993373Y-59603800D01*
X149993367Y-59603799D01*
X149988284Y-59602894D01*
X149914452Y-59601992D01*
X149770081Y-59600228D01*
X149770079Y-59600228D01*
X149764911Y-59600165D01*
X149544091Y-59633955D01*
X149331756Y-59703357D01*
X149133607Y-59806507D01*
X149129474Y-59809610D01*
X149129471Y-59809612D01*
X149105247Y-59827800D01*
X148954965Y-59940635D01*
X148800629Y-60102138D01*
X148693201Y-60259621D01*
X148638293Y-60304621D01*
X148567768Y-60312792D01*
X148504021Y-60281538D01*
X148483324Y-60257054D01*
X148402822Y-60132617D01*
X148402820Y-60132614D01*
X148400014Y-60128277D01*
X148249670Y-59963051D01*
X148245619Y-59959852D01*
X148245615Y-59959848D01*
X148078414Y-59827800D01*
X148078410Y-59827798D01*
X148074359Y-59824598D01*
X147878789Y-59716638D01*
X147873920Y-59714914D01*
X147873916Y-59714912D01*
X147673087Y-59643795D01*
X147673083Y-59643794D01*
X147668212Y-59642069D01*
X147663119Y-59641162D01*
X147663116Y-59641161D01*
X147453373Y-59603800D01*
X147453367Y-59603799D01*
X147448284Y-59602894D01*
X147374452Y-59601992D01*
X147230081Y-59600228D01*
X147230079Y-59600228D01*
X147224911Y-59600165D01*
X147092615Y-59620409D01*
X147022252Y-59610941D01*
X146968178Y-59564935D01*
X146947561Y-59496998D01*
X146966946Y-59428700D01*
X146984616Y-59406608D01*
X147084435Y-59307137D01*
X147088096Y-59303489D01*
X147147594Y-59220689D01*
X147215435Y-59126277D01*
X147218453Y-59122077D01*
X147317430Y-58921811D01*
X147382370Y-58708069D01*
X147411529Y-58486590D01*
X147413156Y-58420000D01*
X147394852Y-58197361D01*
X147340431Y-57980702D01*
X147251354Y-57775840D01*
X147130014Y-57588277D01*
X146979670Y-57423051D01*
X146975619Y-57419852D01*
X146975615Y-57419848D01*
X146808414Y-57287800D01*
X146808410Y-57287798D01*
X146804359Y-57284598D01*
X146763053Y-57261796D01*
X146713084Y-57211364D01*
X146698312Y-57141921D01*
X146723428Y-57075516D01*
X146750780Y-57048909D01*
X146794603Y-57017650D01*
X146929860Y-56921173D01*
X147088096Y-56763489D01*
X147147594Y-56680689D01*
X147215435Y-56586277D01*
X147218453Y-56582077D01*
X147223979Y-56570897D01*
X147315136Y-56386453D01*
X147315137Y-56386451D01*
X147317430Y-56381811D01*
X147382370Y-56168069D01*
X147402825Y-56012703D01*
X149020743Y-56012703D01*
X149058268Y-56297734D01*
X149134129Y-56575036D01*
X149135813Y-56578984D01*
X149216068Y-56767137D01*
X149246923Y-56839476D01*
X149257555Y-56857240D01*
X149366621Y-57039476D01*
X149394561Y-57086161D01*
X149574313Y-57310528D01*
X149782851Y-57508423D01*
X150016317Y-57676186D01*
X150020112Y-57678195D01*
X150020113Y-57678196D01*
X150041869Y-57689715D01*
X150270392Y-57810712D01*
X150540373Y-57909511D01*
X150821264Y-57970755D01*
X150849841Y-57973004D01*
X151044282Y-57988307D01*
X151044291Y-57988307D01*
X151046739Y-57988500D01*
X151202271Y-57988500D01*
X151204407Y-57988354D01*
X151204418Y-57988354D01*
X151412548Y-57974165D01*
X151412554Y-57974164D01*
X151416825Y-57973873D01*
X151421020Y-57973004D01*
X151421022Y-57973004D01*
X151558132Y-57944610D01*
X151698342Y-57915574D01*
X151969343Y-57819607D01*
X152224812Y-57687750D01*
X152228313Y-57685289D01*
X152228317Y-57685287D01*
X152408857Y-57558401D01*
X152460023Y-57522441D01*
X152538403Y-57449606D01*
X152667479Y-57329661D01*
X152667481Y-57329658D01*
X152670622Y-57326740D01*
X152852713Y-57104268D01*
X153002927Y-56859142D01*
X153006927Y-56850031D01*
X153116757Y-56599830D01*
X153118483Y-56595898D01*
X153123742Y-56577438D01*
X153196068Y-56323534D01*
X153197244Y-56319406D01*
X153237751Y-56034784D01*
X153237845Y-56016951D01*
X153239235Y-55751583D01*
X153239235Y-55751576D01*
X153239257Y-55747297D01*
X153201732Y-55462266D01*
X153125871Y-55184964D01*
X153058239Y-55026403D01*
X153014763Y-54924476D01*
X153014761Y-54924472D01*
X153013077Y-54920524D01*
X152909704Y-54747800D01*
X152867643Y-54677521D01*
X152867640Y-54677517D01*
X152865439Y-54673839D01*
X152685687Y-54449472D01*
X152477149Y-54251577D01*
X152243683Y-54083814D01*
X152221843Y-54072250D01*
X152198654Y-54059972D01*
X151989608Y-53949288D01*
X151719627Y-53850489D01*
X151438736Y-53789245D01*
X151407685Y-53786801D01*
X151215718Y-53771693D01*
X151215709Y-53771693D01*
X151213261Y-53771500D01*
X151057729Y-53771500D01*
X151055593Y-53771646D01*
X151055582Y-53771646D01*
X150847452Y-53785835D01*
X150847446Y-53785836D01*
X150843175Y-53786127D01*
X150838980Y-53786996D01*
X150838978Y-53786996D01*
X150702417Y-53815276D01*
X150561658Y-53844426D01*
X150290657Y-53940393D01*
X150035188Y-54072250D01*
X150031687Y-54074711D01*
X150031683Y-54074713D01*
X150021594Y-54081804D01*
X149799977Y-54237559D01*
X149589378Y-54433260D01*
X149407287Y-54655732D01*
X149257073Y-54900858D01*
X149141517Y-55164102D01*
X149140342Y-55168229D01*
X149140341Y-55168230D01*
X149137097Y-55179618D01*
X149062756Y-55440594D01*
X149022249Y-55725216D01*
X149022227Y-55729505D01*
X149022226Y-55729512D01*
X149020765Y-56008417D01*
X149020743Y-56012703D01*
X147402825Y-56012703D01*
X147411529Y-55946590D01*
X147412139Y-55921621D01*
X147413074Y-55883365D01*
X147413074Y-55883361D01*
X147413156Y-55880000D01*
X147394852Y-55657361D01*
X147340431Y-55440702D01*
X147251354Y-55235840D01*
X147130014Y-55048277D01*
X146979670Y-54883051D01*
X146975619Y-54879852D01*
X146975615Y-54879848D01*
X146808414Y-54747800D01*
X146808410Y-54747798D01*
X146804359Y-54744598D01*
X146608789Y-54636638D01*
X146603920Y-54634914D01*
X146603916Y-54634912D01*
X146403087Y-54563795D01*
X146403083Y-54563794D01*
X146398212Y-54562069D01*
X146393119Y-54561162D01*
X146393116Y-54561161D01*
X146183373Y-54523800D01*
X146183367Y-54523799D01*
X146178284Y-54522894D01*
X146104452Y-54521992D01*
X145960081Y-54520228D01*
X145960079Y-54520228D01*
X145954911Y-54520165D01*
X145734091Y-54553955D01*
X145521756Y-54623357D01*
X145323607Y-54726507D01*
X145319474Y-54729610D01*
X145319471Y-54729612D01*
X145295247Y-54747800D01*
X145144965Y-54860635D01*
X144990629Y-55022138D01*
X144883201Y-55179621D01*
X144828293Y-55224621D01*
X144757768Y-55232792D01*
X144694021Y-55201538D01*
X144673324Y-55177054D01*
X144592822Y-55052617D01*
X144592820Y-55052614D01*
X144590014Y-55048277D01*
X144439670Y-54883051D01*
X144435619Y-54879852D01*
X144435615Y-54879848D01*
X144268414Y-54747800D01*
X144268410Y-54747798D01*
X144264359Y-54744598D01*
X144068789Y-54636638D01*
X144063920Y-54634914D01*
X144063916Y-54634912D01*
X143863087Y-54563795D01*
X143863083Y-54563794D01*
X143858212Y-54562069D01*
X143853119Y-54561162D01*
X143853116Y-54561161D01*
X143643373Y-54523800D01*
X143643367Y-54523799D01*
X143638284Y-54522894D01*
X143564452Y-54521992D01*
X143420081Y-54520228D01*
X143420079Y-54520228D01*
X143414911Y-54520165D01*
X143194091Y-54553955D01*
X142981756Y-54623357D01*
X142783607Y-54726507D01*
X142779474Y-54729610D01*
X142779471Y-54729612D01*
X142755247Y-54747800D01*
X142604965Y-54860635D01*
X142450629Y-55022138D01*
X142343201Y-55179621D01*
X142288293Y-55224621D01*
X142217768Y-55232792D01*
X142154021Y-55201538D01*
X142133324Y-55177054D01*
X142052822Y-55052617D01*
X142052820Y-55052614D01*
X142050014Y-55048277D01*
X141899670Y-54883051D01*
X141895619Y-54879852D01*
X141895615Y-54879848D01*
X141728414Y-54747800D01*
X141728410Y-54747798D01*
X141724359Y-54744598D01*
X141528789Y-54636638D01*
X141523920Y-54634914D01*
X141523916Y-54634912D01*
X141323087Y-54563795D01*
X141323083Y-54563794D01*
X141318212Y-54562069D01*
X141313119Y-54561162D01*
X141313116Y-54561161D01*
X141103373Y-54523800D01*
X141103367Y-54523799D01*
X141098284Y-54522894D01*
X141024452Y-54521992D01*
X140880081Y-54520228D01*
X140880079Y-54520228D01*
X140874911Y-54520165D01*
X140654091Y-54553955D01*
X140441756Y-54623357D01*
X140243607Y-54726507D01*
X140239474Y-54729610D01*
X140239471Y-54729612D01*
X140215247Y-54747800D01*
X140064965Y-54860635D01*
X139910629Y-55022138D01*
X139803201Y-55179621D01*
X139748293Y-55224621D01*
X139677768Y-55232792D01*
X139614021Y-55201538D01*
X139593324Y-55177054D01*
X139512822Y-55052617D01*
X139512820Y-55052614D01*
X139510014Y-55048277D01*
X139359670Y-54883051D01*
X139355619Y-54879852D01*
X139355615Y-54879848D01*
X139188414Y-54747800D01*
X139188410Y-54747798D01*
X139184359Y-54744598D01*
X138988789Y-54636638D01*
X138983920Y-54634914D01*
X138983916Y-54634912D01*
X138783087Y-54563795D01*
X138783083Y-54563794D01*
X138778212Y-54562069D01*
X138773119Y-54561162D01*
X138773116Y-54561161D01*
X138563373Y-54523800D01*
X138563367Y-54523799D01*
X138558284Y-54522894D01*
X138484452Y-54521992D01*
X138340081Y-54520228D01*
X138340079Y-54520228D01*
X138334911Y-54520165D01*
X138114091Y-54553955D01*
X137901756Y-54623357D01*
X137703607Y-54726507D01*
X137699474Y-54729610D01*
X137699471Y-54729612D01*
X137675247Y-54747800D01*
X137524965Y-54860635D01*
X137370629Y-55022138D01*
X137263201Y-55179621D01*
X137208293Y-55224621D01*
X137137768Y-55232792D01*
X137074021Y-55201538D01*
X137053324Y-55177054D01*
X136972822Y-55052617D01*
X136972820Y-55052614D01*
X136970014Y-55048277D01*
X136819670Y-54883051D01*
X136815619Y-54879852D01*
X136815615Y-54879848D01*
X136648414Y-54747800D01*
X136648410Y-54747798D01*
X136644359Y-54744598D01*
X136448789Y-54636638D01*
X136443920Y-54634914D01*
X136443916Y-54634912D01*
X136243087Y-54563795D01*
X136243083Y-54563794D01*
X136238212Y-54562069D01*
X136233119Y-54561162D01*
X136233116Y-54561161D01*
X136023373Y-54523800D01*
X136023367Y-54523799D01*
X136018284Y-54522894D01*
X135944452Y-54521992D01*
X135800081Y-54520228D01*
X135800079Y-54520228D01*
X135794911Y-54520165D01*
X135574091Y-54553955D01*
X135361756Y-54623357D01*
X135163607Y-54726507D01*
X135159474Y-54729610D01*
X135159471Y-54729612D01*
X135135247Y-54747800D01*
X134984965Y-54860635D01*
X134830629Y-55022138D01*
X134723201Y-55179621D01*
X134668293Y-55224621D01*
X134597768Y-55232792D01*
X134534021Y-55201538D01*
X134513324Y-55177054D01*
X134432822Y-55052617D01*
X134432820Y-55052614D01*
X134430014Y-55048277D01*
X134279670Y-54883051D01*
X134275619Y-54879852D01*
X134275615Y-54879848D01*
X134108414Y-54747800D01*
X134108410Y-54747798D01*
X134104359Y-54744598D01*
X133908789Y-54636638D01*
X133903920Y-54634914D01*
X133903916Y-54634912D01*
X133703087Y-54563795D01*
X133703083Y-54563794D01*
X133698212Y-54562069D01*
X133693119Y-54561162D01*
X133693116Y-54561161D01*
X133483373Y-54523800D01*
X133483367Y-54523799D01*
X133478284Y-54522894D01*
X133404452Y-54521992D01*
X133260081Y-54520228D01*
X133260079Y-54520228D01*
X133254911Y-54520165D01*
X133034091Y-54553955D01*
X132821756Y-54623357D01*
X132623607Y-54726507D01*
X132619474Y-54729610D01*
X132619471Y-54729612D01*
X132595247Y-54747800D01*
X132444965Y-54860635D01*
X132290629Y-55022138D01*
X132183201Y-55179621D01*
X132128293Y-55224621D01*
X132057768Y-55232792D01*
X131994021Y-55201538D01*
X131973324Y-55177054D01*
X131892822Y-55052617D01*
X131892820Y-55052614D01*
X131890014Y-55048277D01*
X131739670Y-54883051D01*
X131735619Y-54879852D01*
X131735615Y-54879848D01*
X131568414Y-54747800D01*
X131568410Y-54747798D01*
X131564359Y-54744598D01*
X131368789Y-54636638D01*
X131363920Y-54634914D01*
X131363916Y-54634912D01*
X131163087Y-54563795D01*
X131163083Y-54563794D01*
X131158212Y-54562069D01*
X131153119Y-54561162D01*
X131153116Y-54561161D01*
X130943373Y-54523800D01*
X130943367Y-54523799D01*
X130938284Y-54522894D01*
X130864452Y-54521992D01*
X130720081Y-54520228D01*
X130720079Y-54520228D01*
X130714911Y-54520165D01*
X130494091Y-54553955D01*
X130281756Y-54623357D01*
X130083607Y-54726507D01*
X130079474Y-54729610D01*
X130079471Y-54729612D01*
X130055247Y-54747800D01*
X129904965Y-54860635D01*
X129750629Y-55022138D01*
X129643201Y-55179621D01*
X129588293Y-55224621D01*
X129517768Y-55232792D01*
X129454021Y-55201538D01*
X129433324Y-55177054D01*
X129352822Y-55052617D01*
X129352820Y-55052614D01*
X129350014Y-55048277D01*
X129199670Y-54883051D01*
X129195619Y-54879852D01*
X129195615Y-54879848D01*
X129028414Y-54747800D01*
X129028410Y-54747798D01*
X129024359Y-54744598D01*
X128828789Y-54636638D01*
X128823920Y-54634914D01*
X128823916Y-54634912D01*
X128623087Y-54563795D01*
X128623083Y-54563794D01*
X128618212Y-54562069D01*
X128613119Y-54561162D01*
X128613116Y-54561161D01*
X128403373Y-54523800D01*
X128403367Y-54523799D01*
X128398284Y-54522894D01*
X128324452Y-54521992D01*
X128180081Y-54520228D01*
X128180079Y-54520228D01*
X128174911Y-54520165D01*
X127954091Y-54553955D01*
X127741756Y-54623357D01*
X127543607Y-54726507D01*
X127539474Y-54729610D01*
X127539471Y-54729612D01*
X127515247Y-54747800D01*
X127364965Y-54860635D01*
X127210629Y-55022138D01*
X127103201Y-55179621D01*
X127048293Y-55224621D01*
X126977768Y-55232792D01*
X126914021Y-55201538D01*
X126893324Y-55177054D01*
X126812822Y-55052617D01*
X126812820Y-55052614D01*
X126810014Y-55048277D01*
X126659670Y-54883051D01*
X126655619Y-54879852D01*
X126655615Y-54879848D01*
X126488414Y-54747800D01*
X126488410Y-54747798D01*
X126484359Y-54744598D01*
X126288789Y-54636638D01*
X126283920Y-54634914D01*
X126283916Y-54634912D01*
X126083087Y-54563795D01*
X126083083Y-54563794D01*
X126078212Y-54562069D01*
X126073119Y-54561162D01*
X126073116Y-54561161D01*
X125863373Y-54523800D01*
X125863367Y-54523799D01*
X125858284Y-54522894D01*
X125784452Y-54521992D01*
X125640081Y-54520228D01*
X125640079Y-54520228D01*
X125634911Y-54520165D01*
X125414091Y-54553955D01*
X125201756Y-54623357D01*
X125003607Y-54726507D01*
X124999474Y-54729610D01*
X124999471Y-54729612D01*
X124975247Y-54747800D01*
X124824965Y-54860635D01*
X124670629Y-55022138D01*
X124563201Y-55179621D01*
X124508293Y-55224621D01*
X124437768Y-55232792D01*
X124374021Y-55201538D01*
X124353324Y-55177054D01*
X124272822Y-55052617D01*
X124272820Y-55052614D01*
X124270014Y-55048277D01*
X124119670Y-54883051D01*
X124115619Y-54879852D01*
X124115615Y-54879848D01*
X123948414Y-54747800D01*
X123948410Y-54747798D01*
X123944359Y-54744598D01*
X123748789Y-54636638D01*
X123743920Y-54634914D01*
X123743916Y-54634912D01*
X123543087Y-54563795D01*
X123543083Y-54563794D01*
X123538212Y-54562069D01*
X123533119Y-54561162D01*
X123533116Y-54561161D01*
X123323373Y-54523800D01*
X123323367Y-54523799D01*
X123318284Y-54522894D01*
X123244452Y-54521992D01*
X123100081Y-54520228D01*
X123100079Y-54520228D01*
X123094911Y-54520165D01*
X122874091Y-54553955D01*
X122661756Y-54623357D01*
X122463607Y-54726507D01*
X122459474Y-54729610D01*
X122459471Y-54729612D01*
X122435247Y-54747800D01*
X122284965Y-54860635D01*
X122130629Y-55022138D01*
X122023201Y-55179621D01*
X121968293Y-55224621D01*
X121897768Y-55232792D01*
X121834021Y-55201538D01*
X121813324Y-55177054D01*
X121732822Y-55052617D01*
X121732820Y-55052614D01*
X121730014Y-55048277D01*
X121579670Y-54883051D01*
X121575619Y-54879852D01*
X121575615Y-54879848D01*
X121408414Y-54747800D01*
X121408410Y-54747798D01*
X121404359Y-54744598D01*
X121208789Y-54636638D01*
X121203920Y-54634914D01*
X121203916Y-54634912D01*
X121003087Y-54563795D01*
X121003083Y-54563794D01*
X120998212Y-54562069D01*
X120993119Y-54561162D01*
X120993116Y-54561161D01*
X120783373Y-54523800D01*
X120783367Y-54523799D01*
X120778284Y-54522894D01*
X120704452Y-54521992D01*
X120560081Y-54520228D01*
X120560079Y-54520228D01*
X120554911Y-54520165D01*
X120334091Y-54553955D01*
X120121756Y-54623357D01*
X119923607Y-54726507D01*
X119919474Y-54729610D01*
X119919471Y-54729612D01*
X119895247Y-54747800D01*
X119744965Y-54860635D01*
X119590629Y-55022138D01*
X119483201Y-55179621D01*
X119428293Y-55224621D01*
X119357768Y-55232792D01*
X119294021Y-55201538D01*
X119273324Y-55177054D01*
X119192822Y-55052617D01*
X119192820Y-55052614D01*
X119190014Y-55048277D01*
X119039670Y-54883051D01*
X119035619Y-54879852D01*
X119035615Y-54879848D01*
X118868414Y-54747800D01*
X118868410Y-54747798D01*
X118864359Y-54744598D01*
X118668789Y-54636638D01*
X118663920Y-54634914D01*
X118663916Y-54634912D01*
X118463087Y-54563795D01*
X118463083Y-54563794D01*
X118458212Y-54562069D01*
X118453119Y-54561162D01*
X118453116Y-54561161D01*
X118243373Y-54523800D01*
X118243367Y-54523799D01*
X118238284Y-54522894D01*
X118164452Y-54521992D01*
X118020081Y-54520228D01*
X118020079Y-54520228D01*
X118014911Y-54520165D01*
X117794091Y-54553955D01*
X117581756Y-54623357D01*
X117383607Y-54726507D01*
X117379474Y-54729610D01*
X117379471Y-54729612D01*
X117355247Y-54747800D01*
X117204965Y-54860635D01*
X117050629Y-55022138D01*
X116943201Y-55179621D01*
X116888293Y-55224621D01*
X116817768Y-55232792D01*
X116754021Y-55201538D01*
X116733324Y-55177054D01*
X116652822Y-55052617D01*
X116652820Y-55052614D01*
X116650014Y-55048277D01*
X116499670Y-54883051D01*
X116495619Y-54879852D01*
X116495615Y-54879848D01*
X116328414Y-54747800D01*
X116328410Y-54747798D01*
X116324359Y-54744598D01*
X116128789Y-54636638D01*
X116123920Y-54634914D01*
X116123916Y-54634912D01*
X115923087Y-54563795D01*
X115923083Y-54563794D01*
X115918212Y-54562069D01*
X115913119Y-54561162D01*
X115913116Y-54561161D01*
X115703373Y-54523800D01*
X115703367Y-54523799D01*
X115698284Y-54522894D01*
X115624452Y-54521992D01*
X115480081Y-54520228D01*
X115480079Y-54520228D01*
X115474911Y-54520165D01*
X115254091Y-54553955D01*
X115041756Y-54623357D01*
X114843607Y-54726507D01*
X114839474Y-54729610D01*
X114839471Y-54729612D01*
X114815247Y-54747800D01*
X114664965Y-54860635D01*
X114510629Y-55022138D01*
X114384743Y-55206680D01*
X114290688Y-55409305D01*
X114230989Y-55624570D01*
X114207251Y-55846695D01*
X114207548Y-55851848D01*
X114207548Y-55851851D01*
X114213011Y-55946590D01*
X114220110Y-56069715D01*
X114221247Y-56074761D01*
X114221248Y-56074767D01*
X114241119Y-56162939D01*
X114269222Y-56287639D01*
X114353266Y-56494616D01*
X114469987Y-56685088D01*
X114616250Y-56853938D01*
X114788126Y-56996632D01*
X114858595Y-57037811D01*
X114861445Y-57039476D01*
X114910169Y-57091114D01*
X114923240Y-57160897D01*
X114896509Y-57226669D01*
X114856055Y-57260027D01*
X114843607Y-57266507D01*
X114839474Y-57269610D01*
X114839471Y-57269612D01*
X114669100Y-57397530D01*
X114664965Y-57400635D01*
X114510629Y-57562138D01*
X114384743Y-57746680D01*
X114354336Y-57812187D01*
X114309160Y-57909511D01*
X114290688Y-57949305D01*
X114230989Y-58164570D01*
X114207251Y-58386695D01*
X114207548Y-58391848D01*
X114207548Y-58391851D01*
X114213011Y-58486590D01*
X114220110Y-58609715D01*
X114221247Y-58614761D01*
X114221248Y-58614767D01*
X114241119Y-58702939D01*
X114269222Y-58827639D01*
X114353266Y-59034616D01*
X114469987Y-59225088D01*
X114616250Y-59393938D01*
X114621113Y-59397975D01*
X114621373Y-59398362D01*
X114623922Y-59400858D01*
X114623407Y-59401384D01*
X114660751Y-59456874D01*
X114662253Y-59527855D01*
X114625142Y-59588380D01*
X114561200Y-59619233D01*
X114518540Y-59618971D01*
X114428284Y-59602894D01*
X114354452Y-59601992D01*
X114210081Y-59600228D01*
X114210079Y-59600228D01*
X114204911Y-59600165D01*
X113984091Y-59633955D01*
X113771756Y-59703357D01*
X113573607Y-59806507D01*
X113569474Y-59809610D01*
X113569471Y-59809612D01*
X113545247Y-59827800D01*
X113394965Y-59940635D01*
X113240629Y-60102138D01*
X113133201Y-60259621D01*
X113078293Y-60304621D01*
X113007768Y-60312792D01*
X112944021Y-60281538D01*
X112923324Y-60257054D01*
X112842822Y-60132617D01*
X112842820Y-60132614D01*
X112840014Y-60128277D01*
X112689670Y-59963051D01*
X112685619Y-59959852D01*
X112685615Y-59959848D01*
X112518414Y-59827800D01*
X112518410Y-59827798D01*
X112514359Y-59824598D01*
X112318789Y-59716638D01*
X112313920Y-59714914D01*
X112313916Y-59714912D01*
X112113087Y-59643795D01*
X112113083Y-59643794D01*
X112108212Y-59642069D01*
X112103119Y-59641162D01*
X112103116Y-59641161D01*
X111893373Y-59603800D01*
X111893367Y-59603799D01*
X111888284Y-59602894D01*
X111814452Y-59601992D01*
X111670081Y-59600228D01*
X111670079Y-59600228D01*
X111664911Y-59600165D01*
X111444091Y-59633955D01*
X111231756Y-59703357D01*
X111033607Y-59806507D01*
X111029474Y-59809610D01*
X111029471Y-59809612D01*
X111005247Y-59827800D01*
X110854965Y-59940635D01*
X110700629Y-60102138D01*
X110593201Y-60259621D01*
X110538293Y-60304621D01*
X110467768Y-60312792D01*
X110404021Y-60281538D01*
X110383324Y-60257054D01*
X110302822Y-60132617D01*
X110302820Y-60132614D01*
X110300014Y-60128277D01*
X110149670Y-59963051D01*
X110145619Y-59959852D01*
X110145615Y-59959848D01*
X109978414Y-59827800D01*
X109978410Y-59827798D01*
X109974359Y-59824598D01*
X109778789Y-59716638D01*
X109773920Y-59714914D01*
X109773916Y-59714912D01*
X109573087Y-59643795D01*
X109573083Y-59643794D01*
X109568212Y-59642069D01*
X109563119Y-59641162D01*
X109563116Y-59641161D01*
X109353373Y-59603800D01*
X109353367Y-59603799D01*
X109348284Y-59602894D01*
X109274452Y-59601992D01*
X109130081Y-59600228D01*
X109130079Y-59600228D01*
X109124911Y-59600165D01*
X108904091Y-59633955D01*
X108691756Y-59703357D01*
X108493607Y-59806507D01*
X108489474Y-59809610D01*
X108489471Y-59809612D01*
X108465247Y-59827800D01*
X108314965Y-59940635D01*
X108160629Y-60102138D01*
X108034743Y-60286680D01*
X107940688Y-60489305D01*
X107880989Y-60704570D01*
X107857251Y-60926695D01*
X107857548Y-60931848D01*
X107857548Y-60931851D01*
X107863011Y-61026590D01*
X107870110Y-61149715D01*
X107871247Y-61154761D01*
X107871248Y-61154767D01*
X107891119Y-61242939D01*
X107919222Y-61367639D01*
X108003266Y-61574616D01*
X108119987Y-61765088D01*
X108266250Y-61933938D01*
X108438126Y-62076632D01*
X108508595Y-62117811D01*
X108511445Y-62119476D01*
X108560169Y-62171114D01*
X108573240Y-62240897D01*
X108546509Y-62306669D01*
X108506055Y-62340027D01*
X108493607Y-62346507D01*
X108489474Y-62349610D01*
X108489471Y-62349612D01*
X108465247Y-62367800D01*
X108314965Y-62480635D01*
X108160629Y-62642138D01*
X108034743Y-62826680D01*
X107940688Y-63029305D01*
X107880989Y-63244570D01*
X107857251Y-63466695D01*
X107857548Y-63471848D01*
X107857548Y-63471851D01*
X107863011Y-63566590D01*
X107870110Y-63689715D01*
X107871247Y-63694761D01*
X107871248Y-63694767D01*
X107891119Y-63782939D01*
X107919222Y-63907639D01*
X108003266Y-64114616D01*
X108119987Y-64305088D01*
X108266250Y-64473938D01*
X108438126Y-64616632D01*
X108508595Y-64657811D01*
X108511445Y-64659476D01*
X108560169Y-64711114D01*
X108573240Y-64780897D01*
X108546509Y-64846669D01*
X108506055Y-64880027D01*
X108493607Y-64886507D01*
X108489474Y-64889610D01*
X108489471Y-64889612D01*
X108465247Y-64907800D01*
X108314965Y-65020635D01*
X108160629Y-65182138D01*
X108034743Y-65366680D01*
X107940688Y-65569305D01*
X107880989Y-65784570D01*
X107857251Y-66006695D01*
X107857548Y-66011848D01*
X107857548Y-66011851D01*
X107863011Y-66106590D01*
X107870110Y-66229715D01*
X107871247Y-66234761D01*
X107871248Y-66234767D01*
X107891119Y-66322939D01*
X107919222Y-66447639D01*
X108003266Y-66654616D01*
X108119987Y-66845088D01*
X108266250Y-67013938D01*
X108438126Y-67156632D01*
X108508595Y-67197811D01*
X108511445Y-67199476D01*
X108560169Y-67251114D01*
X108573240Y-67320897D01*
X108546509Y-67386669D01*
X108506055Y-67420027D01*
X108493607Y-67426507D01*
X108489474Y-67429610D01*
X108489471Y-67429612D01*
X108465247Y-67447800D01*
X108314965Y-67560635D01*
X108160629Y-67722138D01*
X108034743Y-67906680D01*
X107940688Y-68109305D01*
X107880989Y-68324570D01*
X107857251Y-68546695D01*
X107857548Y-68551848D01*
X107857548Y-68551851D01*
X107863011Y-68646590D01*
X107870110Y-68769715D01*
X107871247Y-68774761D01*
X107871248Y-68774767D01*
X107891119Y-68862939D01*
X107919222Y-68987639D01*
X108003266Y-69194616D01*
X108119987Y-69385088D01*
X108266250Y-69553938D01*
X108438126Y-69696632D01*
X108508595Y-69737811D01*
X108511445Y-69739476D01*
X108560169Y-69791114D01*
X108573240Y-69860897D01*
X108546509Y-69926669D01*
X108506055Y-69960027D01*
X108493607Y-69966507D01*
X108489474Y-69969610D01*
X108489471Y-69969612D01*
X108465247Y-69987800D01*
X108314965Y-70100635D01*
X108160629Y-70262138D01*
X108034743Y-70446680D01*
X107940688Y-70649305D01*
X107880989Y-70864570D01*
X107857251Y-71086695D01*
X107857548Y-71091848D01*
X107857548Y-71091851D01*
X107863011Y-71186590D01*
X107870110Y-71309715D01*
X107871247Y-71314761D01*
X107871248Y-71314767D01*
X107891119Y-71402939D01*
X107919222Y-71527639D01*
X108003266Y-71734616D01*
X108119987Y-71925088D01*
X108266250Y-72093938D01*
X108438126Y-72236632D01*
X108508595Y-72277811D01*
X108511445Y-72279476D01*
X108560169Y-72331114D01*
X108573240Y-72400897D01*
X108546509Y-72466669D01*
X108506055Y-72500027D01*
X108493607Y-72506507D01*
X108489474Y-72509610D01*
X108489471Y-72509612D01*
X108465247Y-72527800D01*
X108314965Y-72640635D01*
X108160629Y-72802138D01*
X108034743Y-72986680D01*
X107940688Y-73189305D01*
X107880989Y-73404570D01*
X107857251Y-73626695D01*
X107857548Y-73631848D01*
X107857548Y-73631851D01*
X107863011Y-73726590D01*
X107870110Y-73849715D01*
X107871247Y-73854761D01*
X107871248Y-73854767D01*
X107891119Y-73942939D01*
X107919222Y-74067639D01*
X108003266Y-74274616D01*
X108119987Y-74465088D01*
X108266250Y-74633938D01*
X108438126Y-74776632D01*
X108508595Y-74817811D01*
X108511445Y-74819476D01*
X108560169Y-74871114D01*
X108573240Y-74940897D01*
X108546509Y-75006669D01*
X108506055Y-75040027D01*
X108493607Y-75046507D01*
X108489474Y-75049610D01*
X108489471Y-75049612D01*
X108465247Y-75067800D01*
X108314965Y-75180635D01*
X108160629Y-75342138D01*
X108034743Y-75526680D01*
X107940688Y-75729305D01*
X107880989Y-75944570D01*
X107857251Y-76166695D01*
X107857548Y-76171848D01*
X107857548Y-76171851D01*
X107863011Y-76266590D01*
X107870110Y-76389715D01*
X107871247Y-76394761D01*
X107871248Y-76394767D01*
X107891119Y-76482939D01*
X107919222Y-76607639D01*
X108003266Y-76814616D01*
X108119987Y-77005088D01*
X108266250Y-77173938D01*
X108438126Y-77316632D01*
X108508595Y-77357811D01*
X108511445Y-77359476D01*
X108560169Y-77411114D01*
X108573240Y-77480897D01*
X108546509Y-77546669D01*
X108506055Y-77580027D01*
X108493607Y-77586507D01*
X108489474Y-77589610D01*
X108489471Y-77589612D01*
X108465247Y-77607800D01*
X108314965Y-77720635D01*
X108160629Y-77882138D01*
X108034743Y-78066680D01*
X107940688Y-78269305D01*
X107880989Y-78484570D01*
X107857251Y-78706695D01*
X107857548Y-78711848D01*
X107857548Y-78711851D01*
X107863011Y-78806590D01*
X107870110Y-78929715D01*
X107871247Y-78934761D01*
X107871248Y-78934767D01*
X107891119Y-79022939D01*
X107919222Y-79147639D01*
X108003266Y-79354616D01*
X108119987Y-79545088D01*
X108266250Y-79713938D01*
X108438126Y-79856632D01*
X108508595Y-79897811D01*
X108511445Y-79899476D01*
X108560169Y-79951114D01*
X108573240Y-80020897D01*
X108546509Y-80086669D01*
X108506055Y-80120027D01*
X108493607Y-80126507D01*
X108489474Y-80129610D01*
X108489471Y-80129612D01*
X108465247Y-80147800D01*
X108314965Y-80260635D01*
X108160629Y-80422138D01*
X108034743Y-80606680D01*
X107940688Y-80809305D01*
X107880989Y-81024570D01*
X107857251Y-81246695D01*
X107857548Y-81251848D01*
X107857548Y-81251851D01*
X107863011Y-81346590D01*
X107870110Y-81469715D01*
X107871247Y-81474761D01*
X107871248Y-81474767D01*
X107891119Y-81562939D01*
X107919222Y-81687639D01*
X108003266Y-81894616D01*
X108119987Y-82085088D01*
X108266250Y-82253938D01*
X108438126Y-82396632D01*
X108508595Y-82437811D01*
X108511445Y-82439476D01*
X108560169Y-82491114D01*
X108573240Y-82560897D01*
X108546509Y-82626669D01*
X108506055Y-82660027D01*
X108493607Y-82666507D01*
X108489474Y-82669610D01*
X108489471Y-82669612D01*
X108465247Y-82687800D01*
X108314965Y-82800635D01*
X108160629Y-82962138D01*
X108034743Y-83146680D01*
X107940688Y-83349305D01*
X107880989Y-83564570D01*
X107857251Y-83786695D01*
X107857548Y-83791848D01*
X107857548Y-83791851D01*
X107863011Y-83886590D01*
X107870110Y-84009715D01*
X107871247Y-84014761D01*
X107871248Y-84014767D01*
X107891119Y-84102939D01*
X107919222Y-84227639D01*
X108003266Y-84434616D01*
X108119987Y-84625088D01*
X108266250Y-84793938D01*
X108438126Y-84936632D01*
X108508595Y-84977811D01*
X108511445Y-84979476D01*
X108560169Y-85031114D01*
X108573240Y-85100897D01*
X108546509Y-85166669D01*
X108506055Y-85200027D01*
X108493607Y-85206507D01*
X108489474Y-85209610D01*
X108489471Y-85209612D01*
X108465247Y-85227800D01*
X108314965Y-85340635D01*
X108160629Y-85502138D01*
X108034743Y-85686680D01*
X107940688Y-85889305D01*
X107880989Y-86104570D01*
X107857251Y-86326695D01*
X107857548Y-86331848D01*
X107857548Y-86331851D01*
X107863011Y-86426590D01*
X107870110Y-86549715D01*
X107871247Y-86554761D01*
X107871248Y-86554767D01*
X107891119Y-86642939D01*
X107919222Y-86767639D01*
X108003266Y-86974616D01*
X108119987Y-87165088D01*
X108266250Y-87333938D01*
X108438126Y-87476632D01*
X108508595Y-87517811D01*
X108511445Y-87519476D01*
X108560169Y-87571114D01*
X108573240Y-87640897D01*
X108546509Y-87706669D01*
X108506055Y-87740027D01*
X108493607Y-87746507D01*
X108489474Y-87749610D01*
X108489471Y-87749612D01*
X108465247Y-87767800D01*
X108314965Y-87880635D01*
X108160629Y-88042138D01*
X108034743Y-88226680D01*
X107940688Y-88429305D01*
X107880989Y-88644570D01*
X107857251Y-88866695D01*
X107857548Y-88871848D01*
X107857548Y-88871851D01*
X107863011Y-88966590D01*
X107870110Y-89089715D01*
X107871247Y-89094761D01*
X107871248Y-89094767D01*
X107891119Y-89182939D01*
X107919222Y-89307639D01*
X108003266Y-89514616D01*
X108119987Y-89705088D01*
X108266250Y-89873938D01*
X108438126Y-90016632D01*
X108508595Y-90057811D01*
X108511445Y-90059476D01*
X108560169Y-90111114D01*
X108573240Y-90180897D01*
X108546509Y-90246669D01*
X108506055Y-90280027D01*
X108493607Y-90286507D01*
X108489474Y-90289610D01*
X108489471Y-90289612D01*
X108465247Y-90307800D01*
X108314965Y-90420635D01*
X108160629Y-90582138D01*
X108034743Y-90766680D01*
X107940688Y-90969305D01*
X107880989Y-91184570D01*
X107857251Y-91406695D01*
X107857548Y-91411848D01*
X107857548Y-91411851D01*
X107863011Y-91506590D01*
X107870110Y-91629715D01*
X107871247Y-91634761D01*
X107871248Y-91634767D01*
X107891119Y-91722939D01*
X107919222Y-91847639D01*
X108003266Y-92054616D01*
X108119987Y-92245088D01*
X108266250Y-92413938D01*
X108438126Y-92556632D01*
X108508595Y-92597811D01*
X108511445Y-92599476D01*
X108560169Y-92651114D01*
X108573240Y-92720897D01*
X108546509Y-92786669D01*
X108506055Y-92820027D01*
X108493607Y-92826507D01*
X108489474Y-92829610D01*
X108489471Y-92829612D01*
X108465247Y-92847800D01*
X108314965Y-92960635D01*
X108160629Y-93122138D01*
X108034743Y-93306680D01*
X107940688Y-93509305D01*
X107880989Y-93724570D01*
X107857251Y-93946695D01*
X107857548Y-93951848D01*
X107857548Y-93951851D01*
X107863011Y-94046590D01*
X107870110Y-94169715D01*
X107871247Y-94174761D01*
X107871248Y-94174767D01*
X107891119Y-94262939D01*
X107919222Y-94387639D01*
X108003266Y-94594616D01*
X108119987Y-94785088D01*
X108266250Y-94953938D01*
X108438126Y-95096632D01*
X108508595Y-95137811D01*
X108511445Y-95139476D01*
X108560169Y-95191114D01*
X108573240Y-95260897D01*
X108546509Y-95326669D01*
X108506055Y-95360027D01*
X108493607Y-95366507D01*
X108489474Y-95369610D01*
X108489471Y-95369612D01*
X108465247Y-95387800D01*
X108314965Y-95500635D01*
X108160629Y-95662138D01*
X108034743Y-95846680D01*
X107940688Y-96049305D01*
X107880989Y-96264570D01*
X107857251Y-96486695D01*
X107857548Y-96491848D01*
X107857548Y-96491851D01*
X107863011Y-96586590D01*
X107870110Y-96709715D01*
X107871247Y-96714761D01*
X107871248Y-96714767D01*
X107891119Y-96802939D01*
X107919222Y-96927639D01*
X108003266Y-97134616D01*
X108119987Y-97325088D01*
X108266250Y-97493938D01*
X108438126Y-97636632D01*
X108508595Y-97677811D01*
X108511445Y-97679476D01*
X108560169Y-97731114D01*
X108573240Y-97800897D01*
X108546509Y-97866669D01*
X108506055Y-97900027D01*
X108493607Y-97906507D01*
X108489474Y-97909610D01*
X108489471Y-97909612D01*
X108465247Y-97927800D01*
X108314965Y-98040635D01*
X108160629Y-98202138D01*
X108034743Y-98386680D01*
X107940688Y-98589305D01*
X107880989Y-98804570D01*
X107857251Y-99026695D01*
X107857548Y-99031848D01*
X107857548Y-99031851D01*
X107863011Y-99126590D01*
X107870110Y-99249715D01*
X107871247Y-99254761D01*
X107871248Y-99254767D01*
X107891119Y-99342939D01*
X107919222Y-99467639D01*
X108003266Y-99674616D01*
X108119987Y-99865088D01*
X108266250Y-100033938D01*
X108438126Y-100176632D01*
X108508595Y-100217811D01*
X108511445Y-100219476D01*
X108560169Y-100271114D01*
X108573240Y-100340897D01*
X108546509Y-100406669D01*
X108506055Y-100440027D01*
X108493607Y-100446507D01*
X108489474Y-100449610D01*
X108489471Y-100449612D01*
X108465247Y-100467800D01*
X108314965Y-100580635D01*
X108160629Y-100742138D01*
X108034743Y-100926680D01*
X107940688Y-101129305D01*
X107880989Y-101344570D01*
X107857251Y-101566695D01*
X107857548Y-101571848D01*
X107857548Y-101571851D01*
X107863011Y-101666590D01*
X107870110Y-101789715D01*
X107871247Y-101794761D01*
X107871248Y-101794767D01*
X107891119Y-101882939D01*
X107919222Y-102007639D01*
X108003266Y-102214616D01*
X108119987Y-102405088D01*
X108266250Y-102573938D01*
X108438126Y-102716632D01*
X108508595Y-102757811D01*
X108511445Y-102759476D01*
X108560169Y-102811114D01*
X108573240Y-102880897D01*
X108546509Y-102946669D01*
X108506055Y-102980027D01*
X108493607Y-102986507D01*
X108489474Y-102989610D01*
X108489471Y-102989612D01*
X108465247Y-103007800D01*
X108314965Y-103120635D01*
X108160629Y-103282138D01*
X108034743Y-103466680D01*
X107940688Y-103669305D01*
X107880989Y-103884570D01*
X107857251Y-104106695D01*
X107857548Y-104111848D01*
X107857548Y-104111851D01*
X107863011Y-104206590D01*
X107870110Y-104329715D01*
X107871247Y-104334761D01*
X107871248Y-104334767D01*
X107891119Y-104422939D01*
X107919222Y-104547639D01*
X108003266Y-104754616D01*
X108119987Y-104945088D01*
X108266250Y-105113938D01*
X108438126Y-105256632D01*
X108508595Y-105297811D01*
X108511445Y-105299476D01*
X108560169Y-105351114D01*
X108573240Y-105420897D01*
X108546509Y-105486669D01*
X108506055Y-105520027D01*
X108493607Y-105526507D01*
X108489474Y-105529610D01*
X108489471Y-105529612D01*
X108465247Y-105547800D01*
X108314965Y-105660635D01*
X108160629Y-105822138D01*
X108034743Y-106006680D01*
X107940688Y-106209305D01*
X107880989Y-106424570D01*
X107857251Y-106646695D01*
X107857548Y-106651848D01*
X107857548Y-106651851D01*
X107863011Y-106746590D01*
X107870110Y-106869715D01*
X107871247Y-106874761D01*
X107871248Y-106874767D01*
X107891119Y-106962939D01*
X107919222Y-107087639D01*
X108003266Y-107294616D01*
X108119987Y-107485088D01*
X108266250Y-107653938D01*
X108438126Y-107796632D01*
X108508595Y-107837811D01*
X108511445Y-107839476D01*
X108560169Y-107891114D01*
X108573240Y-107960897D01*
X108546509Y-108026669D01*
X108506055Y-108060027D01*
X108493607Y-108066507D01*
X108489474Y-108069610D01*
X108489471Y-108069612D01*
X108465247Y-108087800D01*
X108314965Y-108200635D01*
X108160629Y-108362138D01*
X108034743Y-108546680D01*
X107940688Y-108749305D01*
X107880989Y-108964570D01*
X107857251Y-109186695D01*
X107857548Y-109191848D01*
X107857548Y-109191851D01*
X107863011Y-109286590D01*
X107870110Y-109409715D01*
X107871247Y-109414761D01*
X107871248Y-109414767D01*
X107891119Y-109502939D01*
X107919222Y-109627639D01*
X108003266Y-109834616D01*
X108119987Y-110025088D01*
X108266250Y-110193938D01*
X108438126Y-110336632D01*
X108508595Y-110377811D01*
X108511445Y-110379476D01*
X108560169Y-110431114D01*
X108573240Y-110500897D01*
X108546509Y-110566669D01*
X108506055Y-110600027D01*
X108493607Y-110606507D01*
X108489474Y-110609610D01*
X108489471Y-110609612D01*
X108465247Y-110627800D01*
X108314965Y-110740635D01*
X108160629Y-110902138D01*
X108034743Y-111086680D01*
X107940688Y-111289305D01*
X107880989Y-111504570D01*
X107857251Y-111726695D01*
X107857548Y-111731848D01*
X107857548Y-111731851D01*
X107863011Y-111826590D01*
X107870110Y-111949715D01*
X107871247Y-111954761D01*
X107871248Y-111954767D01*
X107891119Y-112042939D01*
X107919222Y-112167639D01*
X108003266Y-112374616D01*
X108119987Y-112565088D01*
X108266250Y-112733938D01*
X108438126Y-112876632D01*
X108508595Y-112917811D01*
X108511445Y-112919476D01*
X108560169Y-112971114D01*
X108573240Y-113040897D01*
X108546509Y-113106669D01*
X108506055Y-113140027D01*
X108493607Y-113146507D01*
X108489474Y-113149610D01*
X108489471Y-113149612D01*
X108465247Y-113167800D01*
X108314965Y-113280635D01*
X108160629Y-113442138D01*
X108034743Y-113626680D01*
X107940688Y-113829305D01*
X107880989Y-114044570D01*
X107857251Y-114266695D01*
X107857548Y-114271848D01*
X107857548Y-114271851D01*
X107863011Y-114366590D01*
X107870110Y-114489715D01*
X107871247Y-114494761D01*
X107871248Y-114494767D01*
X107891119Y-114582939D01*
X107919222Y-114707639D01*
X108003266Y-114914616D01*
X108119987Y-115105088D01*
X108266250Y-115273938D01*
X108438126Y-115416632D01*
X108508595Y-115457811D01*
X108511445Y-115459476D01*
X108560169Y-115511114D01*
X108573240Y-115580897D01*
X108546509Y-115646669D01*
X108506055Y-115680027D01*
X108493607Y-115686507D01*
X108489474Y-115689610D01*
X108489471Y-115689612D01*
X108465247Y-115707800D01*
X108314965Y-115820635D01*
X108160629Y-115982138D01*
X108034743Y-116166680D01*
X107940688Y-116369305D01*
X107880989Y-116584570D01*
X107857251Y-116806695D01*
X107857548Y-116811848D01*
X107857548Y-116811851D01*
X107863011Y-116906590D01*
X107870110Y-117029715D01*
X107871247Y-117034761D01*
X107871248Y-117034767D01*
X107891119Y-117122939D01*
X107919222Y-117247639D01*
X108003266Y-117454616D01*
X108119987Y-117645088D01*
X108266250Y-117813938D01*
X108438126Y-117956632D01*
X108508595Y-117997811D01*
X108511445Y-117999476D01*
X108560169Y-118051114D01*
X108573240Y-118120897D01*
X108546509Y-118186669D01*
X108506055Y-118220027D01*
X108493607Y-118226507D01*
X108489474Y-118229610D01*
X108489471Y-118229612D01*
X108465247Y-118247800D01*
X108314965Y-118360635D01*
X108160629Y-118522138D01*
X108034743Y-118706680D01*
X107940688Y-118909305D01*
X107880989Y-119124570D01*
X107857251Y-119346695D01*
X107857548Y-119351848D01*
X107857548Y-119351851D01*
X107863011Y-119446590D01*
X107870110Y-119569715D01*
X107871247Y-119574761D01*
X107871248Y-119574767D01*
X107891119Y-119662939D01*
X107919222Y-119787639D01*
X108003266Y-119994616D01*
X108119987Y-120185088D01*
X108266250Y-120353938D01*
X108438126Y-120496632D01*
X108508595Y-120537811D01*
X108511445Y-120539476D01*
X108560169Y-120591114D01*
X108573240Y-120660897D01*
X108546509Y-120726669D01*
X108506055Y-120760027D01*
X108493607Y-120766507D01*
X108489474Y-120769610D01*
X108489471Y-120769612D01*
X108465247Y-120787800D01*
X108314965Y-120900635D01*
X108160629Y-121062138D01*
X108034743Y-121246680D01*
X107940688Y-121449305D01*
X107880989Y-121664570D01*
X107857251Y-121886695D01*
X107857548Y-121891848D01*
X107857548Y-121891851D01*
X107863011Y-121986590D01*
X107870110Y-122109715D01*
X107871247Y-122114761D01*
X107871248Y-122114767D01*
X107891119Y-122202939D01*
X107919222Y-122327639D01*
X108003266Y-122534616D01*
X108119987Y-122725088D01*
X108266250Y-122893938D01*
X108438126Y-123036632D01*
X108508595Y-123077811D01*
X108511445Y-123079476D01*
X108560169Y-123131114D01*
X108573240Y-123200897D01*
X108546509Y-123266669D01*
X108506055Y-123300027D01*
X108493607Y-123306507D01*
X108489474Y-123309610D01*
X108489471Y-123309612D01*
X108465247Y-123327800D01*
X108314965Y-123440635D01*
X108160629Y-123602138D01*
X108034743Y-123786680D01*
X107940688Y-123989305D01*
X107880989Y-124204570D01*
X107857251Y-124426695D01*
X107857548Y-124431848D01*
X107857548Y-124431851D01*
X107863011Y-124526590D01*
X107870110Y-124649715D01*
X107871247Y-124654761D01*
X107871248Y-124654767D01*
X107891119Y-124742939D01*
X107919222Y-124867639D01*
X108003266Y-125074616D01*
X108119987Y-125265088D01*
X108266250Y-125433938D01*
X108438126Y-125576632D01*
X108508595Y-125617811D01*
X108511445Y-125619476D01*
X108560169Y-125671114D01*
X108573240Y-125740897D01*
X108546509Y-125806669D01*
X108506055Y-125840027D01*
X108493607Y-125846507D01*
X108489474Y-125849610D01*
X108489471Y-125849612D01*
X108465247Y-125867800D01*
X108314965Y-125980635D01*
X108160629Y-126142138D01*
X108034743Y-126326680D01*
X107940688Y-126529305D01*
X107880989Y-126744570D01*
X107857251Y-126966695D01*
X107857548Y-126971848D01*
X107857548Y-126971851D01*
X107863011Y-127066590D01*
X107870110Y-127189715D01*
X107871247Y-127194761D01*
X107871248Y-127194767D01*
X107891119Y-127282939D01*
X107919222Y-127407639D01*
X108003266Y-127614616D01*
X108119987Y-127805088D01*
X108266250Y-127973938D01*
X108438126Y-128116632D01*
X108508595Y-128157811D01*
X108511445Y-128159476D01*
X108560169Y-128211114D01*
X108573240Y-128280897D01*
X108546509Y-128346669D01*
X108506055Y-128380027D01*
X108493607Y-128386507D01*
X108489474Y-128389610D01*
X108489471Y-128389612D01*
X108465247Y-128407800D01*
X108314965Y-128520635D01*
X108160629Y-128682138D01*
X108034743Y-128866680D01*
X107940688Y-129069305D01*
X107880989Y-129284570D01*
X107857251Y-129506695D01*
X107857548Y-129511848D01*
X107857548Y-129511851D01*
X107863011Y-129606590D01*
X107870110Y-129729715D01*
X107871247Y-129734761D01*
X107871248Y-129734767D01*
X107891119Y-129822939D01*
X107919222Y-129947639D01*
X108003266Y-130154616D01*
X108119987Y-130345088D01*
X108266250Y-130513938D01*
X108438126Y-130656632D01*
X108508595Y-130697811D01*
X108511445Y-130699476D01*
X108560169Y-130751114D01*
X108573240Y-130820897D01*
X108546509Y-130886669D01*
X108506055Y-130920027D01*
X108493607Y-130926507D01*
X108489474Y-130929610D01*
X108489471Y-130929612D01*
X108465247Y-130947800D01*
X108314965Y-131060635D01*
X108160629Y-131222138D01*
X108034743Y-131406680D01*
X107940688Y-131609305D01*
X107880989Y-131824570D01*
X107857251Y-132046695D01*
X107857548Y-132051848D01*
X107857548Y-132051851D01*
X107863011Y-132146590D01*
X107870110Y-132269715D01*
X107871247Y-132274761D01*
X107871248Y-132274767D01*
X107891119Y-132362939D01*
X107919222Y-132487639D01*
X108003266Y-132694616D01*
X108119987Y-132885088D01*
X108266250Y-133053938D01*
X108438126Y-133196632D01*
X108508595Y-133237811D01*
X108511445Y-133239476D01*
X108560169Y-133291114D01*
X108573240Y-133360897D01*
X108546509Y-133426669D01*
X108506055Y-133460027D01*
X108493607Y-133466507D01*
X108489474Y-133469610D01*
X108489471Y-133469612D01*
X108465247Y-133487800D01*
X108314965Y-133600635D01*
X108160629Y-133762138D01*
X108034743Y-133946680D01*
X107940688Y-134149305D01*
X107880989Y-134364570D01*
X107857251Y-134586695D01*
X107857548Y-134591848D01*
X107857548Y-134591851D01*
X107863011Y-134686590D01*
X107870110Y-134809715D01*
X107871247Y-134814761D01*
X107871248Y-134814767D01*
X107891119Y-134902939D01*
X107919222Y-135027639D01*
X108003266Y-135234616D01*
X108119987Y-135425088D01*
X108266250Y-135593938D01*
X108438126Y-135736632D01*
X108508595Y-135777811D01*
X108511445Y-135779476D01*
X108560169Y-135831114D01*
X108573240Y-135900897D01*
X108546509Y-135966669D01*
X108506055Y-136000027D01*
X108493607Y-136006507D01*
X108489474Y-136009610D01*
X108489471Y-136009612D01*
X108465247Y-136027800D01*
X108314965Y-136140635D01*
X108160629Y-136302138D01*
X108034743Y-136486680D01*
X107940688Y-136689305D01*
X107880989Y-136904570D01*
X107857251Y-137126695D01*
X107857548Y-137131848D01*
X107857548Y-137131851D01*
X107863011Y-137226590D01*
X107870110Y-137349715D01*
X107871247Y-137354761D01*
X107871248Y-137354767D01*
X107891119Y-137442939D01*
X107919222Y-137567639D01*
X108003266Y-137774616D01*
X108119987Y-137965088D01*
X108266250Y-138133938D01*
X108438126Y-138276632D01*
X108508595Y-138317811D01*
X108511445Y-138319476D01*
X108560169Y-138371114D01*
X108573240Y-138440897D01*
X108546509Y-138506669D01*
X108506055Y-138540027D01*
X108493607Y-138546507D01*
X108489474Y-138549610D01*
X108489471Y-138549612D01*
X108465247Y-138567800D01*
X108314965Y-138680635D01*
X108160629Y-138842138D01*
X108034743Y-139026680D01*
X107940688Y-139229305D01*
X107880989Y-139444570D01*
X107857251Y-139666695D01*
X107857548Y-139671848D01*
X107857548Y-139671851D01*
X107863011Y-139766590D01*
X107870110Y-139889715D01*
X107871247Y-139894761D01*
X107871248Y-139894767D01*
X107891119Y-139982939D01*
X107919222Y-140107639D01*
X108003266Y-140314616D01*
X108119987Y-140505088D01*
X108266250Y-140673938D01*
X108438126Y-140816632D01*
X108508595Y-140857811D01*
X108511445Y-140859476D01*
X108560169Y-140911114D01*
X108573240Y-140980897D01*
X108546509Y-141046669D01*
X108506055Y-141080027D01*
X108493607Y-141086507D01*
X108489474Y-141089610D01*
X108489471Y-141089612D01*
X108465247Y-141107800D01*
X108314965Y-141220635D01*
X108160629Y-141382138D01*
X108034743Y-141566680D01*
X107940688Y-141769305D01*
X107880989Y-141984570D01*
X107857251Y-142206695D01*
X107857548Y-142211848D01*
X107857548Y-142211851D01*
X107863011Y-142306590D01*
X107870110Y-142429715D01*
X107871247Y-142434761D01*
X107871248Y-142434767D01*
X107891119Y-142522939D01*
X107919222Y-142647639D01*
X108003266Y-142854616D01*
X108119987Y-143045088D01*
X108266250Y-143213938D01*
X108438126Y-143356632D01*
X108508595Y-143397811D01*
X108511445Y-143399476D01*
X108560169Y-143451114D01*
X108573240Y-143520897D01*
X108546509Y-143586669D01*
X108506055Y-143620027D01*
X108493607Y-143626507D01*
X108489474Y-143629610D01*
X108489471Y-143629612D01*
X108465247Y-143647800D01*
X108314965Y-143760635D01*
X108160629Y-143922138D01*
X108034743Y-144106680D01*
X107940688Y-144309305D01*
X107880989Y-144524570D01*
X107857251Y-144746695D01*
X107857548Y-144751848D01*
X107857548Y-144751851D01*
X107863011Y-144846590D01*
X107870110Y-144969715D01*
X107871247Y-144974761D01*
X107871248Y-144974767D01*
X107891119Y-145062939D01*
X107919222Y-145187639D01*
X108003266Y-145394616D01*
X108119987Y-145585088D01*
X108266250Y-145753938D01*
X108438126Y-145896632D01*
X108508595Y-145937811D01*
X108511445Y-145939476D01*
X108560169Y-145991114D01*
X108573240Y-146060897D01*
X108546509Y-146126669D01*
X108506055Y-146160027D01*
X108493607Y-146166507D01*
X108489474Y-146169610D01*
X108489471Y-146169612D01*
X108465247Y-146187800D01*
X108314965Y-146300635D01*
X108160629Y-146462138D01*
X108034743Y-146646680D01*
X107940688Y-146849305D01*
X107880989Y-147064570D01*
X107857251Y-147286695D01*
X107857548Y-147291848D01*
X107857548Y-147291851D01*
X107863011Y-147386590D01*
X107870110Y-147509715D01*
X107871247Y-147514761D01*
X107871248Y-147514767D01*
X107891119Y-147602939D01*
X107919222Y-147727639D01*
X108003266Y-147934616D01*
X108119987Y-148125088D01*
X108266250Y-148293938D01*
X108438126Y-148436632D01*
X108508595Y-148477811D01*
X108511445Y-148479476D01*
X108560169Y-148531114D01*
X108573240Y-148600897D01*
X108546509Y-148666669D01*
X108506055Y-148700027D01*
X108493607Y-148706507D01*
X108489474Y-148709610D01*
X108489471Y-148709612D01*
X108465247Y-148727800D01*
X108314965Y-148840635D01*
X108160629Y-149002138D01*
X108034743Y-149186680D01*
X107940688Y-149389305D01*
X107880989Y-149604570D01*
X107857251Y-149826695D01*
X107188500Y-149826695D01*
X107188500Y-56012703D01*
X108380743Y-56012703D01*
X108418268Y-56297734D01*
X108494129Y-56575036D01*
X108495813Y-56578984D01*
X108576068Y-56767137D01*
X108606923Y-56839476D01*
X108617555Y-56857240D01*
X108726621Y-57039476D01*
X108754561Y-57086161D01*
X108934313Y-57310528D01*
X109142851Y-57508423D01*
X109376317Y-57676186D01*
X109380112Y-57678195D01*
X109380113Y-57678196D01*
X109401869Y-57689715D01*
X109630392Y-57810712D01*
X109900373Y-57909511D01*
X110181264Y-57970755D01*
X110209841Y-57973004D01*
X110404282Y-57988307D01*
X110404291Y-57988307D01*
X110406739Y-57988500D01*
X110562271Y-57988500D01*
X110564407Y-57988354D01*
X110564418Y-57988354D01*
X110772548Y-57974165D01*
X110772554Y-57974164D01*
X110776825Y-57973873D01*
X110781020Y-57973004D01*
X110781022Y-57973004D01*
X110918132Y-57944610D01*
X111058342Y-57915574D01*
X111329343Y-57819607D01*
X111584812Y-57687750D01*
X111588313Y-57685289D01*
X111588317Y-57685287D01*
X111768857Y-57558401D01*
X111820023Y-57522441D01*
X111898403Y-57449606D01*
X112027479Y-57329661D01*
X112027481Y-57329658D01*
X112030622Y-57326740D01*
X112212713Y-57104268D01*
X112362927Y-56859142D01*
X112366927Y-56850031D01*
X112476757Y-56599830D01*
X112478483Y-56595898D01*
X112483742Y-56577438D01*
X112556068Y-56323534D01*
X112557244Y-56319406D01*
X112597751Y-56034784D01*
X112597845Y-56016951D01*
X112599235Y-55751583D01*
X112599235Y-55751576D01*
X112599257Y-55747297D01*
X112561732Y-55462266D01*
X112485871Y-55184964D01*
X112418239Y-55026403D01*
X112374763Y-54924476D01*
X112374761Y-54924472D01*
X112373077Y-54920524D01*
X112269704Y-54747800D01*
X112227643Y-54677521D01*
X112227640Y-54677517D01*
X112225439Y-54673839D01*
X112045687Y-54449472D01*
X111837149Y-54251577D01*
X111603683Y-54083814D01*
X111581843Y-54072250D01*
X111558654Y-54059972D01*
X111349608Y-53949288D01*
X111079627Y-53850489D01*
X110798736Y-53789245D01*
X110767685Y-53786801D01*
X110575718Y-53771693D01*
X110575709Y-53771693D01*
X110573261Y-53771500D01*
X110417729Y-53771500D01*
X110415593Y-53771646D01*
X110415582Y-53771646D01*
X110207452Y-53785835D01*
X110207446Y-53785836D01*
X110203175Y-53786127D01*
X110198980Y-53786996D01*
X110198978Y-53786996D01*
X110062417Y-53815276D01*
X109921658Y-53844426D01*
X109650657Y-53940393D01*
X109395188Y-54072250D01*
X109391687Y-54074711D01*
X109391683Y-54074713D01*
X109381594Y-54081804D01*
X109159977Y-54237559D01*
X108949378Y-54433260D01*
X108767287Y-54655732D01*
X108617073Y-54900858D01*
X108501517Y-55164102D01*
X108500342Y-55168229D01*
X108500341Y-55168230D01*
X108497097Y-55179618D01*
X108422756Y-55440594D01*
X108382249Y-55725216D01*
X108382227Y-55729505D01*
X108382226Y-55729512D01*
X108380765Y-56008417D01*
X108380743Y-56012703D01*
X107188500Y-56012703D01*
X107188500Y-55933250D01*
X107190246Y-55912345D01*
X107192770Y-55897344D01*
X107192770Y-55897341D01*
X107193576Y-55892552D01*
X107193729Y-55880000D01*
X107193039Y-55875180D01*
X107191644Y-55865437D01*
X107190545Y-55840983D01*
X107206240Y-55541500D01*
X107207618Y-55528383D01*
X107259613Y-55200102D01*
X107262355Y-55187202D01*
X107305441Y-55026403D01*
X107348380Y-54866152D01*
X107352455Y-54853610D01*
X107429688Y-54652414D01*
X107464368Y-54562069D01*
X107471562Y-54543328D01*
X107476926Y-54531280D01*
X107627820Y-54235133D01*
X107634414Y-54223712D01*
X107815437Y-53944960D01*
X107823190Y-53934290D01*
X108032352Y-53675996D01*
X108041177Y-53666195D01*
X108276195Y-53431177D01*
X108285996Y-53422352D01*
X108544290Y-53213190D01*
X108554960Y-53205437D01*
X108833712Y-53024414D01*
X108845133Y-53017820D01*
X109141280Y-52866926D01*
X109153328Y-52861562D01*
X109192532Y-52846513D01*
X109463618Y-52742453D01*
X109476154Y-52738379D01*
X109797202Y-52652355D01*
X109810102Y-52649613D01*
X110138383Y-52597618D01*
X110151499Y-52596240D01*
X110185152Y-52594476D01*
X110447298Y-52580738D01*
X110473273Y-52582065D01*
X110474843Y-52582309D01*
X110474849Y-52582309D01*
X110483724Y-52583691D01*
X110492626Y-52582527D01*
X110492628Y-52582527D01*
X110507677Y-52580559D01*
X110515286Y-52579564D01*
X110531621Y-52578500D01*
X151080633Y-52578500D01*
X151100018Y-52580000D01*
G37*
%TD.AperFunction*%
M02*
