%TF.GenerationSoftware,KiCad,Pcbnew,(6.0.5)*%
%TF.CreationDate,2022-09-15T17:30:36-04:00*%
%TF.ProjectId,protoboard,70726f74-6f62-46f6-9172-642e6b696361,0.1*%
%TF.SameCoordinates,Original*%
%TF.FileFunction,Soldermask,Bot*%
%TF.FilePolarity,Negative*%
%FSLAX46Y46*%
G04 Gerber Fmt 4.6, Leading zero omitted, Abs format (unit mm)*
G04 Created by KiCad (PCBNEW (6.0.5)) date 2022-09-15 17:30:36*
%MOMM*%
%LPD*%
G01*
G04 APERTURE LIST*
%ADD10C,1.700000*%
%ADD11O,1.700000X1.700000*%
%ADD12C,3.200000*%
G04 APERTURE END LIST*
D10*
%TO.C,J42*%
X116840000Y-111760000D03*
D11*
X119380000Y-111760000D03*
X121920000Y-111760000D03*
X124460000Y-111760000D03*
X127000000Y-111760000D03*
%TD*%
D10*
%TO.C,J5*%
X116840000Y-114300000D03*
D11*
X119380000Y-114300000D03*
X121920000Y-114300000D03*
X124460000Y-114300000D03*
X127000000Y-114300000D03*
%TD*%
D10*
%TO.C,J27*%
X134620000Y-142240000D03*
D11*
X137160000Y-142240000D03*
X139700000Y-142240000D03*
X142240000Y-142240000D03*
X144780000Y-142240000D03*
%TD*%
D10*
%TO.C,J9*%
X134620000Y-124460000D03*
D11*
X137160000Y-124460000D03*
X139700000Y-124460000D03*
X142240000Y-124460000D03*
X144780000Y-124460000D03*
%TD*%
D10*
%TO.C,J60*%
X134620000Y-121920000D03*
D11*
X137160000Y-121920000D03*
X139700000Y-121920000D03*
X142240000Y-121920000D03*
X144780000Y-121920000D03*
%TD*%
D12*
%TO.C,H4*%
X151130000Y-154940000D03*
%TD*%
D10*
%TO.C,J47*%
X134620000Y-78740000D03*
D11*
X137160000Y-78740000D03*
X139700000Y-78740000D03*
X142240000Y-78740000D03*
X144780000Y-78740000D03*
%TD*%
D10*
%TO.C,J34*%
X134620000Y-104140000D03*
D11*
X137160000Y-104140000D03*
X139700000Y-104140000D03*
X142240000Y-104140000D03*
X144780000Y-104140000D03*
%TD*%
D10*
%TO.C,J23*%
X116840000Y-101600000D03*
D11*
X119380000Y-101600000D03*
X121920000Y-101600000D03*
X124460000Y-101600000D03*
X127000000Y-101600000D03*
%TD*%
D10*
%TO.C,J53*%
X116840000Y-132080000D03*
D11*
X119380000Y-132080000D03*
X121920000Y-132080000D03*
X124460000Y-132080000D03*
X127000000Y-132080000D03*
%TD*%
D10*
%TO.C,J68*%
X109220000Y-63500000D03*
D11*
X109220000Y-66040000D03*
X109220000Y-68580000D03*
X109220000Y-71120000D03*
X109220000Y-73660000D03*
X109220000Y-76200000D03*
X109220000Y-78740000D03*
X109220000Y-81280000D03*
X109220000Y-83820000D03*
X109220000Y-86360000D03*
X109220000Y-88900000D03*
X109220000Y-91440000D03*
X109220000Y-93980000D03*
X109220000Y-96520000D03*
X109220000Y-99060000D03*
X109220000Y-101600000D03*
X109220000Y-104140000D03*
X109220000Y-106680000D03*
X109220000Y-109220000D03*
X109220000Y-111760000D03*
X109220000Y-114300000D03*
X109220000Y-116840000D03*
X109220000Y-119380000D03*
X109220000Y-121920000D03*
X109220000Y-124460000D03*
X109220000Y-127000000D03*
X109220000Y-129540000D03*
X109220000Y-132080000D03*
X109220000Y-134620000D03*
X109220000Y-137160000D03*
X109220000Y-139700000D03*
X109220000Y-142240000D03*
X109220000Y-144780000D03*
X109220000Y-147320000D03*
%TD*%
D10*
%TO.C,J8*%
X116840000Y-73660000D03*
D11*
X119380000Y-73660000D03*
X121920000Y-73660000D03*
X124460000Y-73660000D03*
X127000000Y-73660000D03*
%TD*%
D10*
%TO.C,J20*%
X134620000Y-99060000D03*
D11*
X137160000Y-99060000D03*
X139700000Y-99060000D03*
X142240000Y-99060000D03*
X144780000Y-99060000D03*
%TD*%
D10*
%TO.C,J62*%
X147320000Y-68580000D03*
D11*
X147320000Y-71120000D03*
X147320000Y-73660000D03*
X147320000Y-76200000D03*
X147320000Y-78740000D03*
X147320000Y-81280000D03*
X147320000Y-83820000D03*
X147320000Y-86360000D03*
X147320000Y-88900000D03*
X147320000Y-91440000D03*
X147320000Y-93980000D03*
X147320000Y-96520000D03*
X147320000Y-99060000D03*
X147320000Y-101600000D03*
X147320000Y-104140000D03*
X147320000Y-106680000D03*
X147320000Y-109220000D03*
X147320000Y-111760000D03*
X147320000Y-114300000D03*
X147320000Y-116840000D03*
X147320000Y-119380000D03*
X147320000Y-121920000D03*
X147320000Y-124460000D03*
X147320000Y-127000000D03*
X147320000Y-129540000D03*
X147320000Y-132080000D03*
X147320000Y-134620000D03*
X147320000Y-137160000D03*
X147320000Y-139700000D03*
X147320000Y-142240000D03*
%TD*%
D10*
%TO.C,J49*%
X116840000Y-119380000D03*
D11*
X119380000Y-119380000D03*
X121920000Y-119380000D03*
X124460000Y-119380000D03*
X127000000Y-119380000D03*
%TD*%
D10*
%TO.C,J48*%
X116840000Y-91440000D03*
D11*
X119380000Y-91440000D03*
X121920000Y-91440000D03*
X124460000Y-91440000D03*
X127000000Y-91440000D03*
%TD*%
D10*
%TO.C,J64*%
X132080000Y-68580000D03*
D11*
X132080000Y-71120000D03*
X132080000Y-73660000D03*
X132080000Y-76200000D03*
X132080000Y-78740000D03*
X132080000Y-81280000D03*
X132080000Y-83820000D03*
X132080000Y-86360000D03*
X132080000Y-88900000D03*
X132080000Y-91440000D03*
X132080000Y-93980000D03*
X132080000Y-96520000D03*
X132080000Y-99060000D03*
X132080000Y-101600000D03*
X132080000Y-104140000D03*
X132080000Y-106680000D03*
X132080000Y-109220000D03*
X132080000Y-111760000D03*
X132080000Y-114300000D03*
X132080000Y-116840000D03*
X132080000Y-119380000D03*
X132080000Y-121920000D03*
X132080000Y-124460000D03*
X132080000Y-127000000D03*
X132080000Y-129540000D03*
X132080000Y-132080000D03*
X132080000Y-134620000D03*
X132080000Y-137160000D03*
X132080000Y-139700000D03*
X132080000Y-142240000D03*
%TD*%
D10*
%TO.C,J29*%
X116840000Y-104140000D03*
D11*
X119380000Y-104140000D03*
X121920000Y-104140000D03*
X124460000Y-104140000D03*
X127000000Y-104140000D03*
%TD*%
D10*
%TO.C,J6*%
X116840000Y-96520000D03*
D11*
X119380000Y-96520000D03*
X121920000Y-96520000D03*
X124460000Y-96520000D03*
X127000000Y-96520000D03*
%TD*%
D10*
%TO.C,J2*%
X116840000Y-109220000D03*
D11*
X119380000Y-109220000D03*
X121920000Y-109220000D03*
X124460000Y-109220000D03*
X127000000Y-109220000D03*
%TD*%
D10*
%TO.C,J59*%
X134620000Y-91440000D03*
D11*
X137160000Y-91440000D03*
X139700000Y-91440000D03*
X142240000Y-91440000D03*
X144780000Y-91440000D03*
%TD*%
D10*
%TO.C,J25*%
X134620000Y-83820000D03*
D11*
X137160000Y-83820000D03*
X139700000Y-83820000D03*
X142240000Y-83820000D03*
X144780000Y-83820000D03*
%TD*%
D10*
%TO.C,J57*%
X134620000Y-129540000D03*
D11*
X137160000Y-129540000D03*
X139700000Y-129540000D03*
X142240000Y-129540000D03*
X144780000Y-129540000D03*
%TD*%
D10*
%TO.C,J72*%
X111760000Y-147320000D03*
D11*
X114300000Y-147320000D03*
X116840000Y-147320000D03*
X119380000Y-147320000D03*
X121920000Y-147320000D03*
X124460000Y-147320000D03*
X127000000Y-147320000D03*
X129540000Y-147320000D03*
X132080000Y-147320000D03*
X134620000Y-147320000D03*
X137160000Y-147320000D03*
X139700000Y-147320000D03*
X142240000Y-147320000D03*
X144780000Y-147320000D03*
X147320000Y-147320000D03*
X149860000Y-147320000D03*
%TD*%
D10*
%TO.C,J50*%
X116840000Y-78740000D03*
D11*
X119380000Y-78740000D03*
X121920000Y-78740000D03*
X124460000Y-78740000D03*
X127000000Y-78740000D03*
%TD*%
D10*
%TO.C,J16*%
X134620000Y-111760000D03*
D11*
X137160000Y-111760000D03*
X139700000Y-111760000D03*
X142240000Y-111760000D03*
X144780000Y-111760000D03*
%TD*%
D10*
%TO.C,J69*%
X109220000Y-60960000D03*
D11*
X111760000Y-60960000D03*
X114300000Y-60960000D03*
X116840000Y-60960000D03*
X119380000Y-60960000D03*
X121920000Y-60960000D03*
X124460000Y-60960000D03*
X127000000Y-60960000D03*
X129540000Y-60960000D03*
X132080000Y-60960000D03*
X134620000Y-60960000D03*
X137160000Y-60960000D03*
X139700000Y-60960000D03*
X142240000Y-60960000D03*
X144780000Y-60960000D03*
X147320000Y-60960000D03*
X149860000Y-60960000D03*
X152400000Y-60960000D03*
%TD*%
D10*
%TO.C,J67*%
X152400000Y-63500000D03*
D11*
X152400000Y-66040000D03*
X152400000Y-68580000D03*
X152400000Y-71120000D03*
X152400000Y-73660000D03*
X152400000Y-76200000D03*
X152400000Y-78740000D03*
X152400000Y-81280000D03*
X152400000Y-83820000D03*
X152400000Y-86360000D03*
X152400000Y-88900000D03*
X152400000Y-91440000D03*
X152400000Y-93980000D03*
X152400000Y-96520000D03*
X152400000Y-99060000D03*
X152400000Y-101600000D03*
X152400000Y-104140000D03*
X152400000Y-106680000D03*
X152400000Y-109220000D03*
X152400000Y-111760000D03*
X152400000Y-114300000D03*
X152400000Y-116840000D03*
X152400000Y-119380000D03*
X152400000Y-121920000D03*
X152400000Y-124460000D03*
X152400000Y-127000000D03*
X152400000Y-129540000D03*
X152400000Y-132080000D03*
X152400000Y-134620000D03*
X152400000Y-137160000D03*
X152400000Y-139700000D03*
X152400000Y-142240000D03*
X152400000Y-144780000D03*
X152400000Y-147320000D03*
%TD*%
D10*
%TO.C,J71*%
X111760000Y-63500000D03*
D11*
X114300000Y-63500000D03*
X116840000Y-63500000D03*
X119380000Y-63500000D03*
X121920000Y-63500000D03*
X124460000Y-63500000D03*
X127000000Y-63500000D03*
X129540000Y-63500000D03*
X132080000Y-63500000D03*
X134620000Y-63500000D03*
X137160000Y-63500000D03*
X139700000Y-63500000D03*
X142240000Y-63500000D03*
X144780000Y-63500000D03*
X147320000Y-63500000D03*
X149860000Y-63500000D03*
%TD*%
D10*
%TO.C,J10*%
X134620000Y-101600000D03*
D11*
X137160000Y-101600000D03*
X139700000Y-101600000D03*
X142240000Y-101600000D03*
X144780000Y-101600000D03*
%TD*%
D10*
%TO.C,J17*%
X116840000Y-93980000D03*
D11*
X119380000Y-93980000D03*
X121920000Y-93980000D03*
X124460000Y-93980000D03*
X127000000Y-93980000D03*
%TD*%
D12*
%TO.C,H3*%
X151130000Y-55880000D03*
%TD*%
D10*
%TO.C,J56*%
X134620000Y-137160000D03*
D11*
X137160000Y-137160000D03*
X139700000Y-137160000D03*
X142240000Y-137160000D03*
X144780000Y-137160000D03*
%TD*%
D12*
%TO.C,H2*%
X110490000Y-55880000D03*
%TD*%
D10*
%TO.C,J41*%
X116840000Y-142240000D03*
D11*
X119380000Y-142240000D03*
X121920000Y-142240000D03*
X124460000Y-142240000D03*
X127000000Y-142240000D03*
%TD*%
D10*
%TO.C,J43*%
X134620000Y-119380000D03*
D11*
X137160000Y-119380000D03*
X139700000Y-119380000D03*
X142240000Y-119380000D03*
X144780000Y-119380000D03*
%TD*%
D10*
%TO.C,J21*%
X116840000Y-106680000D03*
D11*
X119380000Y-106680000D03*
X121920000Y-106680000D03*
X124460000Y-106680000D03*
X127000000Y-106680000D03*
%TD*%
D10*
%TO.C,J75*%
X115570000Y-154940000D03*
D11*
X115570000Y-152400000D03*
X118110000Y-154940000D03*
X118110000Y-152400000D03*
X120650000Y-154940000D03*
X120650000Y-152400000D03*
X123190000Y-154940000D03*
X123190000Y-152400000D03*
X125730000Y-154940000D03*
X125730000Y-152400000D03*
X128270000Y-154940000D03*
X128270000Y-152400000D03*
X130810000Y-154940000D03*
X130810000Y-152400000D03*
X133350000Y-154940000D03*
X133350000Y-152400000D03*
X135890000Y-154940000D03*
X135890000Y-152400000D03*
X138430000Y-154940000D03*
X138430000Y-152400000D03*
X140970000Y-154940000D03*
X140970000Y-152400000D03*
X143510000Y-154940000D03*
X143510000Y-152400000D03*
X146050000Y-154940000D03*
X146050000Y-152400000D03*
%TD*%
D10*
%TO.C,J39*%
X116840000Y-81280000D03*
D11*
X119380000Y-81280000D03*
X121920000Y-81280000D03*
X124460000Y-81280000D03*
X127000000Y-81280000D03*
%TD*%
D10*
%TO.C,J44*%
X116840000Y-139700000D03*
D11*
X119380000Y-139700000D03*
X121920000Y-139700000D03*
X124460000Y-139700000D03*
X127000000Y-139700000D03*
%TD*%
D10*
%TO.C,J19*%
X116840000Y-134620000D03*
D11*
X119380000Y-134620000D03*
X121920000Y-134620000D03*
X124460000Y-134620000D03*
X127000000Y-134620000D03*
%TD*%
D10*
%TO.C,J40*%
X134620000Y-88900000D03*
D11*
X137160000Y-88900000D03*
X139700000Y-88900000D03*
X142240000Y-88900000D03*
X144780000Y-88900000D03*
%TD*%
D10*
%TO.C,J1*%
X116840000Y-116840000D03*
D11*
X119380000Y-116840000D03*
X121920000Y-116840000D03*
X124460000Y-116840000D03*
X127000000Y-116840000D03*
%TD*%
D10*
%TO.C,J70*%
X109220000Y-149860000D03*
D11*
X111760000Y-149860000D03*
X114300000Y-149860000D03*
X116840000Y-149860000D03*
X119380000Y-149860000D03*
X121920000Y-149860000D03*
X124460000Y-149860000D03*
X127000000Y-149860000D03*
X129540000Y-149860000D03*
X132080000Y-149860000D03*
X134620000Y-149860000D03*
X137160000Y-149860000D03*
X139700000Y-149860000D03*
X142240000Y-149860000D03*
X144780000Y-149860000D03*
X147320000Y-149860000D03*
X149860000Y-149860000D03*
X152400000Y-149860000D03*
%TD*%
D12*
%TO.C,H1*%
X110490000Y-154940000D03*
%TD*%
D10*
%TO.C,J28*%
X116840000Y-137160000D03*
D11*
X119380000Y-137160000D03*
X121920000Y-137160000D03*
X124460000Y-137160000D03*
X127000000Y-137160000D03*
%TD*%
D10*
%TO.C,J46*%
X116840000Y-86360000D03*
D11*
X119380000Y-86360000D03*
X121920000Y-86360000D03*
X124460000Y-86360000D03*
X127000000Y-86360000D03*
%TD*%
D10*
%TO.C,J61*%
X114300000Y-68580000D03*
D11*
X114300000Y-71120000D03*
X114300000Y-73660000D03*
X114300000Y-76200000D03*
X114300000Y-78740000D03*
X114300000Y-81280000D03*
X114300000Y-83820000D03*
X114300000Y-86360000D03*
X114300000Y-88900000D03*
X114300000Y-91440000D03*
X114300000Y-93980000D03*
X114300000Y-96520000D03*
X114300000Y-99060000D03*
X114300000Y-101600000D03*
X114300000Y-104140000D03*
X114300000Y-106680000D03*
X114300000Y-109220000D03*
X114300000Y-111760000D03*
X114300000Y-114300000D03*
X114300000Y-116840000D03*
X114300000Y-119380000D03*
X114300000Y-121920000D03*
X114300000Y-124460000D03*
X114300000Y-127000000D03*
X114300000Y-129540000D03*
X114300000Y-132080000D03*
X114300000Y-134620000D03*
X114300000Y-137160000D03*
X114300000Y-139700000D03*
X114300000Y-142240000D03*
%TD*%
D10*
%TO.C,J3*%
X134620000Y-93980000D03*
D11*
X137160000Y-93980000D03*
X139700000Y-93980000D03*
X142240000Y-93980000D03*
X144780000Y-93980000D03*
%TD*%
D10*
%TO.C,J36*%
X116840000Y-71120000D03*
D11*
X119380000Y-71120000D03*
X121920000Y-71120000D03*
X124460000Y-71120000D03*
X127000000Y-71120000D03*
%TD*%
D10*
%TO.C,J58*%
X116840000Y-88900000D03*
D11*
X119380000Y-88900000D03*
X121920000Y-88900000D03*
X124460000Y-88900000D03*
X127000000Y-88900000D03*
%TD*%
D10*
%TO.C,J30*%
X134620000Y-76200000D03*
D11*
X137160000Y-76200000D03*
X139700000Y-76200000D03*
X142240000Y-76200000D03*
X144780000Y-76200000D03*
%TD*%
D10*
%TO.C,J73*%
X114300000Y-66040000D03*
D11*
X116840000Y-66040000D03*
X119380000Y-66040000D03*
X121920000Y-66040000D03*
X124460000Y-66040000D03*
X127000000Y-66040000D03*
X129540000Y-66040000D03*
X132080000Y-66040000D03*
X134620000Y-66040000D03*
X137160000Y-66040000D03*
X139700000Y-66040000D03*
X142240000Y-66040000D03*
X144780000Y-66040000D03*
X147320000Y-66040000D03*
%TD*%
D10*
%TO.C,J55*%
X116840000Y-68580000D03*
D11*
X119380000Y-68580000D03*
X121920000Y-68580000D03*
X124460000Y-68580000D03*
X127000000Y-68580000D03*
%TD*%
D10*
%TO.C,J38*%
X116840000Y-121920000D03*
D11*
X119380000Y-121920000D03*
X121920000Y-121920000D03*
X124460000Y-121920000D03*
X127000000Y-121920000D03*
%TD*%
D10*
%TO.C,J33*%
X134620000Y-73660000D03*
D11*
X137160000Y-73660000D03*
X139700000Y-73660000D03*
X142240000Y-73660000D03*
X144780000Y-73660000D03*
%TD*%
D10*
%TO.C,J35*%
X134620000Y-86360000D03*
D11*
X137160000Y-86360000D03*
X139700000Y-86360000D03*
X142240000Y-86360000D03*
X144780000Y-86360000D03*
%TD*%
D10*
%TO.C,J12*%
X134620000Y-127000000D03*
D11*
X137160000Y-127000000D03*
X139700000Y-127000000D03*
X142240000Y-127000000D03*
X144780000Y-127000000D03*
%TD*%
D10*
%TO.C,J13*%
X116840000Y-129540000D03*
D11*
X119380000Y-129540000D03*
X121920000Y-129540000D03*
X124460000Y-129540000D03*
X127000000Y-129540000D03*
%TD*%
D10*
%TO.C,J18*%
X116840000Y-76200000D03*
D11*
X119380000Y-76200000D03*
X121920000Y-76200000D03*
X124460000Y-76200000D03*
X127000000Y-76200000D03*
%TD*%
D10*
%TO.C,J7*%
X134620000Y-116840000D03*
D11*
X137160000Y-116840000D03*
X139700000Y-116840000D03*
X142240000Y-116840000D03*
X144780000Y-116840000D03*
%TD*%
D10*
%TO.C,J31*%
X134620000Y-114300000D03*
D11*
X137160000Y-114300000D03*
X139700000Y-114300000D03*
X142240000Y-114300000D03*
X144780000Y-114300000D03*
%TD*%
D10*
%TO.C,J51*%
X134620000Y-68580000D03*
D11*
X137160000Y-68580000D03*
X139700000Y-68580000D03*
X142240000Y-68580000D03*
X144780000Y-68580000D03*
%TD*%
D10*
%TO.C,J52*%
X134620000Y-109220000D03*
D11*
X137160000Y-109220000D03*
X139700000Y-109220000D03*
X142240000Y-109220000D03*
X144780000Y-109220000D03*
%TD*%
D10*
%TO.C,J24*%
X116840000Y-124460000D03*
D11*
X119380000Y-124460000D03*
X121920000Y-124460000D03*
X124460000Y-124460000D03*
X127000000Y-124460000D03*
%TD*%
D10*
%TO.C,J37*%
X134620000Y-81280000D03*
D11*
X137160000Y-81280000D03*
X139700000Y-81280000D03*
X142240000Y-81280000D03*
X144780000Y-81280000D03*
%TD*%
D10*
%TO.C,J66*%
X111760000Y-66040000D03*
D11*
X111760000Y-68580000D03*
X111760000Y-71120000D03*
X111760000Y-73660000D03*
X111760000Y-76200000D03*
X111760000Y-78740000D03*
X111760000Y-81280000D03*
X111760000Y-83820000D03*
X111760000Y-86360000D03*
X111760000Y-88900000D03*
X111760000Y-91440000D03*
X111760000Y-93980000D03*
X111760000Y-96520000D03*
X111760000Y-99060000D03*
X111760000Y-101600000D03*
X111760000Y-104140000D03*
X111760000Y-106680000D03*
X111760000Y-109220000D03*
X111760000Y-111760000D03*
X111760000Y-114300000D03*
X111760000Y-116840000D03*
X111760000Y-119380000D03*
X111760000Y-121920000D03*
X111760000Y-124460000D03*
X111760000Y-127000000D03*
X111760000Y-129540000D03*
X111760000Y-132080000D03*
X111760000Y-134620000D03*
X111760000Y-137160000D03*
X111760000Y-139700000D03*
X111760000Y-142240000D03*
X111760000Y-144780000D03*
%TD*%
D10*
%TO.C,J63*%
X129540000Y-68580000D03*
D11*
X129540000Y-71120000D03*
X129540000Y-73660000D03*
X129540000Y-76200000D03*
X129540000Y-78740000D03*
X129540000Y-81280000D03*
X129540000Y-83820000D03*
X129540000Y-86360000D03*
X129540000Y-88900000D03*
X129540000Y-91440000D03*
X129540000Y-93980000D03*
X129540000Y-96520000D03*
X129540000Y-99060000D03*
X129540000Y-101600000D03*
X129540000Y-104140000D03*
X129540000Y-106680000D03*
X129540000Y-109220000D03*
X129540000Y-111760000D03*
X129540000Y-114300000D03*
X129540000Y-116840000D03*
X129540000Y-119380000D03*
X129540000Y-121920000D03*
X129540000Y-124460000D03*
X129540000Y-127000000D03*
X129540000Y-129540000D03*
X129540000Y-132080000D03*
X129540000Y-134620000D03*
X129540000Y-137160000D03*
X129540000Y-139700000D03*
X129540000Y-142240000D03*
%TD*%
D10*
%TO.C,J11*%
X134620000Y-134620000D03*
D11*
X137160000Y-134620000D03*
X139700000Y-134620000D03*
X142240000Y-134620000D03*
X144780000Y-134620000D03*
%TD*%
D10*
%TO.C,J4*%
X116840000Y-99060000D03*
D11*
X119380000Y-99060000D03*
X121920000Y-99060000D03*
X124460000Y-99060000D03*
X127000000Y-99060000D03*
%TD*%
D10*
%TO.C,J65*%
X149860000Y-66040000D03*
D11*
X149860000Y-68580000D03*
X149860000Y-71120000D03*
X149860000Y-73660000D03*
X149860000Y-76200000D03*
X149860000Y-78740000D03*
X149860000Y-81280000D03*
X149860000Y-83820000D03*
X149860000Y-86360000D03*
X149860000Y-88900000D03*
X149860000Y-91440000D03*
X149860000Y-93980000D03*
X149860000Y-96520000D03*
X149860000Y-99060000D03*
X149860000Y-101600000D03*
X149860000Y-104140000D03*
X149860000Y-106680000D03*
X149860000Y-109220000D03*
X149860000Y-111760000D03*
X149860000Y-114300000D03*
X149860000Y-116840000D03*
X149860000Y-119380000D03*
X149860000Y-121920000D03*
X149860000Y-124460000D03*
X149860000Y-127000000D03*
X149860000Y-129540000D03*
X149860000Y-132080000D03*
X149860000Y-134620000D03*
X149860000Y-137160000D03*
X149860000Y-139700000D03*
X149860000Y-142240000D03*
X149860000Y-144780000D03*
%TD*%
D10*
%TO.C,J14*%
X134620000Y-132080000D03*
D11*
X137160000Y-132080000D03*
X139700000Y-132080000D03*
X142240000Y-132080000D03*
X144780000Y-132080000D03*
%TD*%
D10*
%TO.C,J15*%
X134620000Y-139700000D03*
D11*
X137160000Y-139700000D03*
X139700000Y-139700000D03*
X142240000Y-139700000D03*
X144780000Y-139700000D03*
%TD*%
D10*
%TO.C,J54*%
X134620000Y-96520000D03*
D11*
X137160000Y-96520000D03*
X139700000Y-96520000D03*
X142240000Y-96520000D03*
X144780000Y-96520000D03*
%TD*%
D10*
%TO.C,J76*%
X115570000Y-58420000D03*
D11*
X115570000Y-55880000D03*
X118110000Y-58420000D03*
X118110000Y-55880000D03*
X120650000Y-58420000D03*
X120650000Y-55880000D03*
X123190000Y-58420000D03*
X123190000Y-55880000D03*
X125730000Y-58420000D03*
X125730000Y-55880000D03*
X128270000Y-58420000D03*
X128270000Y-55880000D03*
X130810000Y-58420000D03*
X130810000Y-55880000D03*
X133350000Y-58420000D03*
X133350000Y-55880000D03*
X135890000Y-58420000D03*
X135890000Y-55880000D03*
X138430000Y-58420000D03*
X138430000Y-55880000D03*
X140970000Y-58420000D03*
X140970000Y-55880000D03*
X143510000Y-58420000D03*
X143510000Y-55880000D03*
X146050000Y-58420000D03*
X146050000Y-55880000D03*
%TD*%
D10*
%TO.C,J22*%
X116840000Y-83820000D03*
D11*
X119380000Y-83820000D03*
X121920000Y-83820000D03*
X124460000Y-83820000D03*
X127000000Y-83820000D03*
%TD*%
D10*
%TO.C,J32*%
X134620000Y-106680000D03*
D11*
X137160000Y-106680000D03*
X139700000Y-106680000D03*
X142240000Y-106680000D03*
X144780000Y-106680000D03*
%TD*%
D10*
%TO.C,J26*%
X134620000Y-71120000D03*
D11*
X137160000Y-71120000D03*
X139700000Y-71120000D03*
X142240000Y-71120000D03*
X144780000Y-71120000D03*
%TD*%
D10*
%TO.C,J74*%
X114300000Y-144780000D03*
D11*
X116840000Y-144780000D03*
X119380000Y-144780000D03*
X121920000Y-144780000D03*
X124460000Y-144780000D03*
X127000000Y-144780000D03*
X129540000Y-144780000D03*
X132080000Y-144780000D03*
X134620000Y-144780000D03*
X137160000Y-144780000D03*
X139700000Y-144780000D03*
X142240000Y-144780000D03*
X144780000Y-144780000D03*
X147320000Y-144780000D03*
%TD*%
D10*
%TO.C,J45*%
X116840000Y-127000000D03*
D11*
X119380000Y-127000000D03*
X121920000Y-127000000D03*
X124460000Y-127000000D03*
X127000000Y-127000000D03*
%TD*%
M02*
