%TF.GenerationSoftware,KiCad,Pcbnew,(6.0.5)*%
%TF.CreationDate,2022-09-13T18:20:42-04:00*%
%TF.ProjectId,protoboard,70726f74-6f62-46f6-9172-642e6b696361,0.1*%
%TF.SameCoordinates,Original*%
%TF.FileFunction,Legend,Bot*%
%TF.FilePolarity,Positive*%
%FSLAX46Y46*%
G04 Gerber Fmt 4.6, Leading zero omitted, Abs format (unit mm)*
G04 Created by KiCad (PCBNEW (6.0.5)) date 2022-09-13 18:20:42*
%MOMM*%
%LPD*%
G01*
G04 APERTURE LIST*
%ADD10C,0.150000*%
%ADD11C,0.100000*%
G04 APERTURE END LIST*
D10*
X142071904Y-157265714D02*
X142071904Y-158075238D01*
X142119523Y-158170476D01*
X142167142Y-158218095D01*
X142262380Y-158265714D01*
X142405238Y-158265714D01*
X142500476Y-158218095D01*
X142071904Y-157884761D02*
X142167142Y-157932380D01*
X142357619Y-157932380D01*
X142452857Y-157884761D01*
X142500476Y-157837142D01*
X142548095Y-157741904D01*
X142548095Y-157456190D01*
X142500476Y-157360952D01*
X142452857Y-157313333D01*
X142357619Y-157265714D01*
X142167142Y-157265714D01*
X142071904Y-157313333D01*
X141595714Y-157932380D02*
X141595714Y-157265714D01*
X141595714Y-156932380D02*
X141643333Y-156980000D01*
X141595714Y-157027619D01*
X141548095Y-156980000D01*
X141595714Y-156932380D01*
X141595714Y-157027619D01*
X141262380Y-157265714D02*
X140881428Y-157265714D01*
X141119523Y-156932380D02*
X141119523Y-157789523D01*
X141071904Y-157884761D01*
X140976666Y-157932380D01*
X140881428Y-157932380D01*
X140548095Y-157932380D02*
X140548095Y-156932380D01*
X140119523Y-157932380D02*
X140119523Y-157408571D01*
X140167142Y-157313333D01*
X140262380Y-157265714D01*
X140405238Y-157265714D01*
X140500476Y-157313333D01*
X140548095Y-157360952D01*
X139214761Y-157265714D02*
X139214761Y-157932380D01*
X139643333Y-157265714D02*
X139643333Y-157789523D01*
X139595714Y-157884761D01*
X139500476Y-157932380D01*
X139357619Y-157932380D01*
X139262380Y-157884761D01*
X139214761Y-157837142D01*
X138738571Y-157932380D02*
X138738571Y-156932380D01*
X138738571Y-157313333D02*
X138643333Y-157265714D01*
X138452857Y-157265714D01*
X138357619Y-157313333D01*
X138310000Y-157360952D01*
X138262380Y-157456190D01*
X138262380Y-157741904D01*
X138310000Y-157837142D01*
X138357619Y-157884761D01*
X138452857Y-157932380D01*
X138643333Y-157932380D01*
X138738571Y-157884761D01*
X137833809Y-157837142D02*
X137786190Y-157884761D01*
X137833809Y-157932380D01*
X137881428Y-157884761D01*
X137833809Y-157837142D01*
X137833809Y-157932380D01*
X136929047Y-157884761D02*
X137024285Y-157932380D01*
X137214761Y-157932380D01*
X137310000Y-157884761D01*
X137357619Y-157837142D01*
X137405238Y-157741904D01*
X137405238Y-157456190D01*
X137357619Y-157360952D01*
X137310000Y-157313333D01*
X137214761Y-157265714D01*
X137024285Y-157265714D01*
X136929047Y-157313333D01*
X136357619Y-157932380D02*
X136452857Y-157884761D01*
X136500476Y-157837142D01*
X136548095Y-157741904D01*
X136548095Y-157456190D01*
X136500476Y-157360952D01*
X136452857Y-157313333D01*
X136357619Y-157265714D01*
X136214761Y-157265714D01*
X136119523Y-157313333D01*
X136071904Y-157360952D01*
X136024285Y-157456190D01*
X136024285Y-157741904D01*
X136071904Y-157837142D01*
X136119523Y-157884761D01*
X136214761Y-157932380D01*
X136357619Y-157932380D01*
X135595714Y-157932380D02*
X135595714Y-157265714D01*
X135595714Y-157360952D02*
X135548095Y-157313333D01*
X135452857Y-157265714D01*
X135310000Y-157265714D01*
X135214761Y-157313333D01*
X135167142Y-157408571D01*
X135167142Y-157932380D01*
X135167142Y-157408571D02*
X135119523Y-157313333D01*
X135024285Y-157265714D01*
X134881428Y-157265714D01*
X134786190Y-157313333D01*
X134738571Y-157408571D01*
X134738571Y-157932380D01*
X133548095Y-156884761D02*
X134405238Y-158170476D01*
X133214761Y-157932380D02*
X133214761Y-157265714D01*
X133214761Y-157360952D02*
X133167142Y-157313333D01*
X133071904Y-157265714D01*
X132929047Y-157265714D01*
X132833809Y-157313333D01*
X132786190Y-157408571D01*
X132786190Y-157932380D01*
X132786190Y-157408571D02*
X132738571Y-157313333D01*
X132643333Y-157265714D01*
X132500476Y-157265714D01*
X132405238Y-157313333D01*
X132357619Y-157408571D01*
X132357619Y-157932380D01*
X131881428Y-157265714D02*
X131881428Y-158265714D01*
X131881428Y-157313333D02*
X131786190Y-157265714D01*
X131595714Y-157265714D01*
X131500476Y-157313333D01*
X131452857Y-157360952D01*
X131405238Y-157456190D01*
X131405238Y-157741904D01*
X131452857Y-157837142D01*
X131500476Y-157884761D01*
X131595714Y-157932380D01*
X131786190Y-157932380D01*
X131881428Y-157884761D01*
X130976666Y-157932380D02*
X130976666Y-157265714D01*
X130976666Y-157456190D02*
X130929047Y-157360952D01*
X130881428Y-157313333D01*
X130786190Y-157265714D01*
X130690952Y-157265714D01*
X130214761Y-157932380D02*
X130310000Y-157884761D01*
X130357619Y-157837142D01*
X130405238Y-157741904D01*
X130405238Y-157456190D01*
X130357619Y-157360952D01*
X130310000Y-157313333D01*
X130214761Y-157265714D01*
X130071904Y-157265714D01*
X129976666Y-157313333D01*
X129929047Y-157360952D01*
X129881428Y-157456190D01*
X129881428Y-157741904D01*
X129929047Y-157837142D01*
X129976666Y-157884761D01*
X130071904Y-157932380D01*
X130214761Y-157932380D01*
X129500476Y-157884761D02*
X129405238Y-157932380D01*
X129214761Y-157932380D01*
X129119523Y-157884761D01*
X129071904Y-157789523D01*
X129071904Y-157741904D01*
X129119523Y-157646666D01*
X129214761Y-157599047D01*
X129357619Y-157599047D01*
X129452857Y-157551428D01*
X129500476Y-157456190D01*
X129500476Y-157408571D01*
X129452857Y-157313333D01*
X129357619Y-157265714D01*
X129214761Y-157265714D01*
X129119523Y-157313333D01*
X128643333Y-157932380D02*
X128643333Y-156932380D01*
X128548095Y-157551428D02*
X128262380Y-157932380D01*
X128262380Y-157265714D02*
X128643333Y-157646666D01*
X127119523Y-156884761D02*
X127976666Y-158170476D01*
X126786190Y-157265714D02*
X126786190Y-158265714D01*
X126786190Y-157313333D02*
X126690952Y-157265714D01*
X126500476Y-157265714D01*
X126405238Y-157313333D01*
X126357619Y-157360952D01*
X126310000Y-157456190D01*
X126310000Y-157741904D01*
X126357619Y-157837142D01*
X126405238Y-157884761D01*
X126500476Y-157932380D01*
X126690952Y-157932380D01*
X126786190Y-157884761D01*
X125881428Y-157932380D02*
X125881428Y-157265714D01*
X125881428Y-157456190D02*
X125833809Y-157360952D01*
X125786190Y-157313333D01*
X125690952Y-157265714D01*
X125595714Y-157265714D01*
X125119523Y-157932380D02*
X125214761Y-157884761D01*
X125262380Y-157837142D01*
X125310000Y-157741904D01*
X125310000Y-157456190D01*
X125262380Y-157360952D01*
X125214761Y-157313333D01*
X125119523Y-157265714D01*
X124976666Y-157265714D01*
X124881428Y-157313333D01*
X124833809Y-157360952D01*
X124786190Y-157456190D01*
X124786190Y-157741904D01*
X124833809Y-157837142D01*
X124881428Y-157884761D01*
X124976666Y-157932380D01*
X125119523Y-157932380D01*
X124500476Y-157265714D02*
X124119523Y-157265714D01*
X124357619Y-156932380D02*
X124357619Y-157789523D01*
X124310000Y-157884761D01*
X124214761Y-157932380D01*
X124119523Y-157932380D01*
X123643333Y-157932380D02*
X123738571Y-157884761D01*
X123786190Y-157837142D01*
X123833809Y-157741904D01*
X123833809Y-157456190D01*
X123786190Y-157360952D01*
X123738571Y-157313333D01*
X123643333Y-157265714D01*
X123500476Y-157265714D01*
X123405238Y-157313333D01*
X123357619Y-157360952D01*
X123310000Y-157456190D01*
X123310000Y-157741904D01*
X123357619Y-157837142D01*
X123405238Y-157884761D01*
X123500476Y-157932380D01*
X123643333Y-157932380D01*
X122881428Y-157932380D02*
X122881428Y-156932380D01*
X122881428Y-157313333D02*
X122786190Y-157265714D01*
X122595714Y-157265714D01*
X122500476Y-157313333D01*
X122452857Y-157360952D01*
X122405238Y-157456190D01*
X122405238Y-157741904D01*
X122452857Y-157837142D01*
X122500476Y-157884761D01*
X122595714Y-157932380D01*
X122786190Y-157932380D01*
X122881428Y-157884761D01*
X121833809Y-157932380D02*
X121929047Y-157884761D01*
X121976666Y-157837142D01*
X122024285Y-157741904D01*
X122024285Y-157456190D01*
X121976666Y-157360952D01*
X121929047Y-157313333D01*
X121833809Y-157265714D01*
X121690952Y-157265714D01*
X121595714Y-157313333D01*
X121548095Y-157360952D01*
X121500476Y-157456190D01*
X121500476Y-157741904D01*
X121548095Y-157837142D01*
X121595714Y-157884761D01*
X121690952Y-157932380D01*
X121833809Y-157932380D01*
X120643333Y-157932380D02*
X120643333Y-157408571D01*
X120690952Y-157313333D01*
X120786190Y-157265714D01*
X120976666Y-157265714D01*
X121071904Y-157313333D01*
X120643333Y-157884761D02*
X120738571Y-157932380D01*
X120976666Y-157932380D01*
X121071904Y-157884761D01*
X121119523Y-157789523D01*
X121119523Y-157694285D01*
X121071904Y-157599047D01*
X120976666Y-157551428D01*
X120738571Y-157551428D01*
X120643333Y-157503809D01*
X120167142Y-157932380D02*
X120167142Y-157265714D01*
X120167142Y-157456190D02*
X120119523Y-157360952D01*
X120071904Y-157313333D01*
X119976666Y-157265714D01*
X119881428Y-157265714D01*
X119119523Y-157932380D02*
X119119523Y-156932380D01*
X119119523Y-157884761D02*
X119214761Y-157932380D01*
X119405238Y-157932380D01*
X119500476Y-157884761D01*
X119548095Y-157837142D01*
X119595714Y-157741904D01*
X119595714Y-157456190D01*
X119548095Y-157360952D01*
X119500476Y-157313333D01*
X119405238Y-157265714D01*
X119214761Y-157265714D01*
X119119523Y-157313333D01*
X143119523Y-53792380D02*
X143119523Y-52792380D01*
X142786190Y-53506666D01*
X142452857Y-52792380D01*
X142452857Y-53792380D01*
X141548095Y-53792380D02*
X141548095Y-53268571D01*
X141595714Y-53173333D01*
X141690952Y-53125714D01*
X141881428Y-53125714D01*
X141976666Y-53173333D01*
X141548095Y-53744761D02*
X141643333Y-53792380D01*
X141881428Y-53792380D01*
X141976666Y-53744761D01*
X142024285Y-53649523D01*
X142024285Y-53554285D01*
X141976666Y-53459047D01*
X141881428Y-53411428D01*
X141643333Y-53411428D01*
X141548095Y-53363809D01*
X141167142Y-53792380D02*
X140643333Y-53125714D01*
X141167142Y-53125714D02*
X140643333Y-53792380D01*
X139500476Y-53792380D02*
X139500476Y-52792380D01*
X139119523Y-52792380D01*
X139024285Y-52840000D01*
X138976666Y-52887619D01*
X138929047Y-52982857D01*
X138929047Y-53125714D01*
X138976666Y-53220952D01*
X139024285Y-53268571D01*
X139119523Y-53316190D01*
X139500476Y-53316190D01*
X138500476Y-53792380D02*
X138500476Y-53125714D01*
X138500476Y-53316190D02*
X138452857Y-53220952D01*
X138405238Y-53173333D01*
X138310000Y-53125714D01*
X138214761Y-53125714D01*
X137738571Y-53792380D02*
X137833809Y-53744761D01*
X137881428Y-53697142D01*
X137929047Y-53601904D01*
X137929047Y-53316190D01*
X137881428Y-53220952D01*
X137833809Y-53173333D01*
X137738571Y-53125714D01*
X137595714Y-53125714D01*
X137500476Y-53173333D01*
X137452857Y-53220952D01*
X137405238Y-53316190D01*
X137405238Y-53601904D01*
X137452857Y-53697142D01*
X137500476Y-53744761D01*
X137595714Y-53792380D01*
X137738571Y-53792380D01*
X137024285Y-53744761D02*
X136929047Y-53792380D01*
X136738571Y-53792380D01*
X136643333Y-53744761D01*
X136595714Y-53649523D01*
X136595714Y-53601904D01*
X136643333Y-53506666D01*
X136738571Y-53459047D01*
X136881428Y-53459047D01*
X136976666Y-53411428D01*
X137024285Y-53316190D01*
X137024285Y-53268571D01*
X136976666Y-53173333D01*
X136881428Y-53125714D01*
X136738571Y-53125714D01*
X136643333Y-53173333D01*
X136167142Y-53792380D02*
X136167142Y-52792380D01*
X136071904Y-53411428D02*
X135786190Y-53792380D01*
X135786190Y-53125714D02*
X136167142Y-53506666D01*
X134929047Y-53792380D02*
X134929047Y-53268571D01*
X134976666Y-53173333D01*
X135071904Y-53125714D01*
X135262380Y-53125714D01*
X135357619Y-53173333D01*
X134929047Y-53744761D02*
X135024285Y-53792380D01*
X135262380Y-53792380D01*
X135357619Y-53744761D01*
X135405238Y-53649523D01*
X135405238Y-53554285D01*
X135357619Y-53459047D01*
X135262380Y-53411428D01*
X135024285Y-53411428D01*
X134929047Y-53363809D01*
X134024285Y-53125714D02*
X134024285Y-53792380D01*
X134452857Y-53125714D02*
X134452857Y-53649523D01*
X134405238Y-53744761D01*
X134310000Y-53792380D01*
X134167142Y-53792380D01*
X134071904Y-53744761D01*
X134024285Y-53697142D01*
X133167142Y-53744761D02*
X133262380Y-53792380D01*
X133452857Y-53792380D01*
X133548095Y-53744761D01*
X133595714Y-53649523D01*
X133595714Y-53268571D01*
X133548095Y-53173333D01*
X133452857Y-53125714D01*
X133262380Y-53125714D01*
X133167142Y-53173333D01*
X133119523Y-53268571D01*
X133119523Y-53363809D01*
X133595714Y-53459047D01*
X132690952Y-53792380D02*
X132690952Y-53125714D01*
X132690952Y-53316190D02*
X132643333Y-53220952D01*
X132595714Y-53173333D01*
X132500476Y-53125714D01*
X132405238Y-53125714D01*
X130643333Y-53125714D02*
X130405238Y-53792380D01*
X130167142Y-53125714D01*
X129595714Y-52792380D02*
X129500476Y-52792380D01*
X129405238Y-52840000D01*
X129357619Y-52887619D01*
X129310000Y-52982857D01*
X129262380Y-53173333D01*
X129262380Y-53411428D01*
X129310000Y-53601904D01*
X129357619Y-53697142D01*
X129405238Y-53744761D01*
X129500476Y-53792380D01*
X129595714Y-53792380D01*
X129690952Y-53744761D01*
X129738571Y-53697142D01*
X129786190Y-53601904D01*
X129833809Y-53411428D01*
X129833809Y-53173333D01*
X129786190Y-52982857D01*
X129738571Y-52887619D01*
X129690952Y-52840000D01*
X129595714Y-52792380D01*
X128833809Y-53697142D02*
X128786190Y-53744761D01*
X128833809Y-53792380D01*
X128881428Y-53744761D01*
X128833809Y-53697142D01*
X128833809Y-53792380D01*
X127833809Y-53792380D02*
X128405238Y-53792380D01*
X128119523Y-53792380D02*
X128119523Y-52792380D01*
X128214761Y-52935238D01*
X128310000Y-53030476D01*
X128405238Y-53078095D01*
X125929047Y-53744761D02*
X125786190Y-53792380D01*
X125548095Y-53792380D01*
X125452857Y-53744761D01*
X125405238Y-53697142D01*
X125357619Y-53601904D01*
X125357619Y-53506666D01*
X125405238Y-53411428D01*
X125452857Y-53363809D01*
X125548095Y-53316190D01*
X125738571Y-53268571D01*
X125833809Y-53220952D01*
X125881428Y-53173333D01*
X125929047Y-53078095D01*
X125929047Y-52982857D01*
X125881428Y-52887619D01*
X125833809Y-52840000D01*
X125738571Y-52792380D01*
X125500476Y-52792380D01*
X125357619Y-52840000D01*
X124548095Y-53744761D02*
X124643333Y-53792380D01*
X124833809Y-53792380D01*
X124929047Y-53744761D01*
X124976666Y-53649523D01*
X124976666Y-53268571D01*
X124929047Y-53173333D01*
X124833809Y-53125714D01*
X124643333Y-53125714D01*
X124548095Y-53173333D01*
X124500476Y-53268571D01*
X124500476Y-53363809D01*
X124976666Y-53459047D01*
X124071904Y-53125714D02*
X124071904Y-54125714D01*
X124071904Y-53173333D02*
X123976666Y-53125714D01*
X123786190Y-53125714D01*
X123690952Y-53173333D01*
X123643333Y-53220952D01*
X123595714Y-53316190D01*
X123595714Y-53601904D01*
X123643333Y-53697142D01*
X123690952Y-53744761D01*
X123786190Y-53792380D01*
X123976666Y-53792380D01*
X124071904Y-53744761D01*
X123310000Y-53125714D02*
X122929047Y-53125714D01*
X123167142Y-52792380D02*
X123167142Y-53649523D01*
X123119523Y-53744761D01*
X123024285Y-53792380D01*
X122929047Y-53792380D01*
X121881428Y-52887619D02*
X121833809Y-52840000D01*
X121738571Y-52792380D01*
X121500476Y-52792380D01*
X121405238Y-52840000D01*
X121357619Y-52887619D01*
X121310000Y-52982857D01*
X121310000Y-53078095D01*
X121357619Y-53220952D01*
X121929047Y-53792380D01*
X121310000Y-53792380D01*
X120690952Y-52792380D02*
X120595714Y-52792380D01*
X120500476Y-52840000D01*
X120452857Y-52887619D01*
X120405238Y-52982857D01*
X120357619Y-53173333D01*
X120357619Y-53411428D01*
X120405238Y-53601904D01*
X120452857Y-53697142D01*
X120500476Y-53744761D01*
X120595714Y-53792380D01*
X120690952Y-53792380D01*
X120786190Y-53744761D01*
X120833809Y-53697142D01*
X120881428Y-53601904D01*
X120929047Y-53411428D01*
X120929047Y-53173333D01*
X120881428Y-52982857D01*
X120833809Y-52887619D01*
X120786190Y-52840000D01*
X120690952Y-52792380D01*
X119976666Y-52887619D02*
X119929047Y-52840000D01*
X119833809Y-52792380D01*
X119595714Y-52792380D01*
X119500476Y-52840000D01*
X119452857Y-52887619D01*
X119405238Y-52982857D01*
X119405238Y-53078095D01*
X119452857Y-53220952D01*
X120024285Y-53792380D01*
X119405238Y-53792380D01*
X119024285Y-52887619D02*
X118976666Y-52840000D01*
X118881428Y-52792380D01*
X118643333Y-52792380D01*
X118548095Y-52840000D01*
X118500476Y-52887619D01*
X118452857Y-52982857D01*
X118452857Y-53078095D01*
X118500476Y-53220952D01*
X119071904Y-53792380D01*
X118452857Y-53792380D01*
D11*
X107698333Y-108643333D02*
X107198333Y-108643333D01*
X107098333Y-108676666D01*
X107031666Y-108743333D01*
X106998333Y-108843333D01*
X106998333Y-108910000D01*
X106998333Y-107976666D02*
X106998333Y-108310000D01*
X107698333Y-108310000D01*
X107065000Y-107343333D02*
X107031666Y-107376666D01*
X106998333Y-107476666D01*
X106998333Y-107543333D01*
X107031666Y-107643333D01*
X107098333Y-107710000D01*
X107165000Y-107743333D01*
X107298333Y-107776666D01*
X107398333Y-107776666D01*
X107531666Y-107743333D01*
X107598333Y-107710000D01*
X107665000Y-107643333D01*
X107698333Y-107543333D01*
X107698333Y-107476666D01*
X107665000Y-107376666D01*
X107631666Y-107343333D01*
X107698333Y-106843333D02*
X107198333Y-106843333D01*
X107098333Y-106876666D01*
X107031666Y-106943333D01*
X106998333Y-107043333D01*
X106998333Y-107110000D01*
X106998333Y-106176666D02*
X106998333Y-106510000D01*
X107698333Y-106510000D01*
X107065000Y-105543333D02*
X107031666Y-105576666D01*
X106998333Y-105676666D01*
X106998333Y-105743333D01*
X107031666Y-105843333D01*
X107098333Y-105910000D01*
X107165000Y-105943333D01*
X107298333Y-105976666D01*
X107398333Y-105976666D01*
X107531666Y-105943333D01*
X107598333Y-105910000D01*
X107665000Y-105843333D01*
X107698333Y-105743333D01*
X107698333Y-105676666D01*
X107665000Y-105576666D01*
X107631666Y-105543333D01*
X107698333Y-105043333D02*
X107198333Y-105043333D01*
X107098333Y-105076666D01*
X107031666Y-105143333D01*
X106998333Y-105243333D01*
X106998333Y-105310000D01*
X106998333Y-104376666D02*
X106998333Y-104710000D01*
X107698333Y-104710000D01*
X107065000Y-103743333D02*
X107031666Y-103776666D01*
X106998333Y-103876666D01*
X106998333Y-103943333D01*
X107031666Y-104043333D01*
X107098333Y-104110000D01*
X107165000Y-104143333D01*
X107298333Y-104176666D01*
X107398333Y-104176666D01*
X107531666Y-104143333D01*
X107598333Y-104110000D01*
X107665000Y-104043333D01*
X107698333Y-103943333D01*
X107698333Y-103876666D01*
X107665000Y-103776666D01*
X107631666Y-103743333D01*
X107698333Y-103243333D02*
X107198333Y-103243333D01*
X107098333Y-103276666D01*
X107031666Y-103343333D01*
X106998333Y-103443333D01*
X106998333Y-103510000D01*
X106998333Y-102576666D02*
X106998333Y-102910000D01*
X107698333Y-102910000D01*
X107065000Y-101943333D02*
X107031666Y-101976666D01*
X106998333Y-102076666D01*
X106998333Y-102143333D01*
X107031666Y-102243333D01*
X107098333Y-102310000D01*
X107165000Y-102343333D01*
X107298333Y-102376666D01*
X107398333Y-102376666D01*
X107531666Y-102343333D01*
X107598333Y-102310000D01*
X107665000Y-102243333D01*
X107698333Y-102143333D01*
X107698333Y-102076666D01*
X107665000Y-101976666D01*
X107631666Y-101943333D01*
M02*
